<?xml version="1.0" encoding="UTF-8" standalone="no"?>
<!DOCTYPE svg PUBLIC "-//W3C//DTD SVG 1.1//EN"
 "http://www.w3.org/Graphics/SVG/1.1/DTD/svg11.dtd">
<!-- Generated by graphviz version 2.38.0 (20140413.2041)
 -->
<!-- Title: controllers_diagram Pages: 1 -->
<svg width="603pt" height="616pt"
 viewBox="0.00 0.00 602.59 616.00" xmlns="http://www.w3.org/2000/svg" xmlns:xlink="http://www.w3.org/1999/xlink">
<g id="graph0" class="graph" transform="scale(1 1) rotate(0) translate(241.821 374.5)">
<title>controllers_diagram</title>
<polygon fill="white" stroke="none" points="-241.821,241.5 -241.821,-374.5 360.772,-374.5 360.772,241.5 -241.821,241.5"/>
<!-- _diagram_info -->
<g id="node1" class="node"><title>_diagram_info</title>
<text text-anchor="start" x="92.5503" y="127.9" font-family="Times,serif" font-size="13.00">Controllers diagram</text>
<text text-anchor="start" x="92.5503" y="140.9" font-family="Times,serif" font-size="13.00">Date: Feb 01 2016 &#45; 08:20</text>
<text text-anchor="start" x="92.5503" y="153.9" font-family="Times,serif" font-size="13.00">Migration version: 20160201131913</text>
<text text-anchor="start" x="92.5503" y="166.9" font-family="Times,serif" font-size="13.00">Generated by RailRoady 1.3.0</text>
<text text-anchor="start" x="92.5503" y="179.9" font-family="Times,serif" font-size="13.00">http://railroady.prestonlee.com</text>
</g>
<!-- ApplicationController -->
<g id="node2" class="node"><title>ApplicationController</title>
<path fill="none" stroke="black" d="M-225.821,203C-225.821,203 -110.179,203 -110.179,203 -104.179,203 -98.1792,197 -98.1792,191 -98.1792,191 -98.1792,123 -98.1792,123 -98.1792,117 -104.179,111 -110.179,111 -110.179,111 -225.821,111 -225.821,111 -231.821,111 -237.821,117 -237.821,123 -237.821,123 -237.821,191 -237.821,191 -237.821,197 -231.821,203 -225.821,203"/>
<text text-anchor="middle" x="-168" y="126.2" font-family="Times,serif" font-size="14.00">ApplicationController</text>
<polyline fill="none" stroke="black" points="-237.821,133 -98.1792,133 "/>
<polyline fill="none" stroke="black" points="-237.821,157 -98.1792,157 "/>
<polyline fill="none" stroke="black" points="-237.821,181 -98.1792,181 "/>
<text text-anchor="start" x="-229.821" y="196.2" font-family="Times,serif" font-size="14.00">_layout</text>
</g>
<!-- CategoriesController -->
<g id="node3" class="node"><title>CategoriesController</title>
<path fill="none" stroke="black" d="M97.293,84C97.293,84 206.707,84 206.707,84 212.707,84 218.707,78 218.707,72 218.707,72 218.707,-106 218.707,-106 218.707,-112 212.707,-118 206.707,-118 206.707,-118 97.293,-118 97.293,-118 91.293,-118 85.293,-112 85.293,-106 85.293,-106 85.293,72 85.293,72 85.293,78 91.293,84 97.293,84"/>
<text text-anchor="middle" x="152" y="-102.8" font-family="Times,serif" font-size="14.00">CategoriesController</text>
<polyline fill="none" stroke="black" points="85.293,-96 218.707,-96 "/>
<text text-anchor="start" x="93.293" y="-80.8" font-family="Times,serif" font-size="14.00">create</text>
<text text-anchor="start" x="93.293" y="-66.8" font-family="Times,serif" font-size="14.00">destroy</text>
<text text-anchor="start" x="93.293" y="-52.8" font-family="Times,serif" font-size="14.00">edit</text>
<text text-anchor="start" x="93.293" y="-38.8" font-family="Times,serif" font-size="14.00">index</text>
<text text-anchor="start" x="93.293" y="-24.8" font-family="Times,serif" font-size="14.00">new</text>
<text text-anchor="start" x="93.293" y="-10.8" font-family="Times,serif" font-size="14.00">show</text>
<text text-anchor="start" x="93.293" y="3.2" font-family="Times,serif" font-size="14.00">update</text>
<polyline fill="none" stroke="black" points="85.293,10 218.707,10 "/>
<polyline fill="none" stroke="black" points="85.293,34 218.707,34 "/>
<text text-anchor="start" x="93.293" y="49.2" font-family="Times,serif" font-size="14.00">_layout</text>
<text text-anchor="start" x="93.293" y="63.2" font-family="Times,serif" font-size="14.00">category_params</text>
<text text-anchor="start" x="93.293" y="77.2" font-family="Times,serif" font-size="14.00">set_category</text>
</g>
<!-- LiftsController -->
<g id="node4" class="node"><title>LiftsController</title>
<path fill="none" stroke="black" d="M-191.993,84C-191.993,84 -116.007,84 -116.007,84 -110.007,84 -104.007,78 -104.007,72 -104.007,72 -104.007,-106 -104.007,-106 -104.007,-112 -110.007,-118 -116.007,-118 -116.007,-118 -191.993,-118 -191.993,-118 -197.993,-118 -203.993,-112 -203.993,-106 -203.993,-106 -203.993,72 -203.993,72 -203.993,78 -197.993,84 -191.993,84"/>
<text text-anchor="middle" x="-154" y="-102.8" font-family="Times,serif" font-size="14.00">LiftsController</text>
<polyline fill="none" stroke="black" points="-203.993,-96 -104.007,-96 "/>
<text text-anchor="start" x="-195.993" y="-80.8" font-family="Times,serif" font-size="14.00">create</text>
<text text-anchor="start" x="-195.993" y="-66.8" font-family="Times,serif" font-size="14.00">destroy</text>
<text text-anchor="start" x="-195.993" y="-52.8" font-family="Times,serif" font-size="14.00">edit</text>
<text text-anchor="start" x="-195.993" y="-38.8" font-family="Times,serif" font-size="14.00">index</text>
<text text-anchor="start" x="-195.993" y="-24.8" font-family="Times,serif" font-size="14.00">new</text>
<text text-anchor="start" x="-195.993" y="-10.8" font-family="Times,serif" font-size="14.00">show</text>
<text text-anchor="start" x="-195.993" y="3.2" font-family="Times,serif" font-size="14.00">update</text>
<polyline fill="none" stroke="black" points="-203.993,10 -104.007,10 "/>
<polyline fill="none" stroke="black" points="-203.993,34 -104.007,34 "/>
<text text-anchor="start" x="-195.993" y="49.2" font-family="Times,serif" font-size="14.00">_layout</text>
<text text-anchor="start" x="-195.993" y="63.2" font-family="Times,serif" font-size="14.00">lift_params</text>
<text text-anchor="start" x="-195.993" y="77.2" font-family="Times,serif" font-size="14.00">set_lift</text>
</g>
<!-- PartsController -->
<g id="node5" class="node"><title>PartsController</title>
<path fill="none" stroke="black" d="M267.228,84C267.228,84 344.772,84 344.772,84 350.772,84 356.772,78 356.772,72 356.772,72 356.772,-106 356.772,-106 356.772,-112 350.772,-118 344.772,-118 344.772,-118 267.228,-118 267.228,-118 261.228,-118 255.228,-112 255.228,-106 255.228,-106 255.228,72 255.228,72 255.228,78 261.228,84 267.228,84"/>
<text text-anchor="middle" x="306" y="-102.8" font-family="Times,serif" font-size="14.00">PartsController</text>
<polyline fill="none" stroke="black" points="255.228,-96 356.772,-96 "/>
<text text-anchor="start" x="263.228" y="-80.8" font-family="Times,serif" font-size="14.00">create</text>
<text text-anchor="start" x="263.228" y="-66.8" font-family="Times,serif" font-size="14.00">destroy</text>
<text text-anchor="start" x="263.228" y="-52.8" font-family="Times,serif" font-size="14.00">edit</text>
<text text-anchor="start" x="263.228" y="-38.8" font-family="Times,serif" font-size="14.00">index</text>
<text text-anchor="start" x="263.228" y="-24.8" font-family="Times,serif" font-size="14.00">new</text>
<text text-anchor="start" x="263.228" y="-10.8" font-family="Times,serif" font-size="14.00">show</text>
<text text-anchor="start" x="263.228" y="3.2" font-family="Times,serif" font-size="14.00">update</text>
<polyline fill="none" stroke="black" points="255.228,10 356.772,10 "/>
<polyline fill="none" stroke="black" points="255.228,34 356.772,34 "/>
<text text-anchor="start" x="263.228" y="49.2" font-family="Times,serif" font-size="14.00">_layout</text>
<text text-anchor="start" x="263.228" y="63.2" font-family="Times,serif" font-size="14.00">part_params</text>
<text text-anchor="start" x="263.228" y="77.2" font-family="Times,serif" font-size="14.00">set_part</text>
</g>
<!-- ScoresController -->
<g id="node6" class="node"><title>ScoresController</title>
<path fill="none" stroke="black" d="M164.565,-154C164.565,-154 251.435,-154 251.435,-154 257.435,-154 263.435,-160 263.435,-166 263.435,-166 263.435,-358 263.435,-358 263.435,-364 257.435,-370 251.435,-370 251.435,-370 164.565,-370 164.565,-370 158.565,-370 152.565,-364 152.565,-358 152.565,-358 152.565,-166 152.565,-166 152.565,-160 158.565,-154 164.565,-154"/>
<text text-anchor="middle" x="208" y="-354.8" font-family="Times,serif" font-size="14.00">ScoresController</text>
<polyline fill="none" stroke="black" points="152.565,-348 263.435,-348 "/>
<text text-anchor="start" x="160.565" y="-332.8" font-family="Times,serif" font-size="14.00">create</text>
<text text-anchor="start" x="160.565" y="-318.8" font-family="Times,serif" font-size="14.00">destroy</text>
<text text-anchor="start" x="160.565" y="-304.8" font-family="Times,serif" font-size="14.00">edit</text>
<text text-anchor="start" x="160.565" y="-290.8" font-family="Times,serif" font-size="14.00">index</text>
<text text-anchor="start" x="160.565" y="-276.8" font-family="Times,serif" font-size="14.00">new</text>
<text text-anchor="start" x="160.565" y="-262.8" font-family="Times,serif" font-size="14.00">show</text>
<text text-anchor="start" x="160.565" y="-248.8" font-family="Times,serif" font-size="14.00">update</text>
<polyline fill="none" stroke="black" points="152.565,-242 263.435,-242 "/>
<polyline fill="none" stroke="black" points="152.565,-218 263.435,-218 "/>
<text text-anchor="start" x="160.565" y="-202.8" font-family="Times,serif" font-size="14.00">_layout</text>
<text text-anchor="start" x="160.565" y="-188.8" font-family="Times,serif" font-size="14.00">score_params</text>
<text text-anchor="start" x="160.565" y="-174.8" font-family="Times,serif" font-size="14.00">search_params</text>
<text text-anchor="start" x="160.565" y="-160.8" font-family="Times,serif" font-size="14.00">set_score</text>
</g>
<!-- UsersController -->
<g id="node7" class="node"><title>UsersController</title>
<path fill="none" stroke="black" d="M29.2861,-154C29.2861,-154 110.714,-154 110.714,-154 116.714,-154 122.714,-160 122.714,-166 122.714,-166 122.714,-344 122.714,-344 122.714,-350 116.714,-356 110.714,-356 110.714,-356 29.2861,-356 29.2861,-356 23.2861,-356 17.2861,-350 17.2861,-344 17.2861,-344 17.2861,-166 17.2861,-166 17.2861,-160 23.2861,-154 29.2861,-154"/>
<text text-anchor="middle" x="70" y="-340.8" font-family="Times,serif" font-size="14.00">UsersController</text>
<polyline fill="none" stroke="black" points="17.2861,-334 122.714,-334 "/>
<text text-anchor="start" x="25.2861" y="-318.8" font-family="Times,serif" font-size="14.00">create</text>
<text text-anchor="start" x="25.2861" y="-304.8" font-family="Times,serif" font-size="14.00">destroy</text>
<text text-anchor="start" x="25.2861" y="-290.8" font-family="Times,serif" font-size="14.00">edit</text>
<text text-anchor="start" x="25.2861" y="-276.8" font-family="Times,serif" font-size="14.00">index</text>
<text text-anchor="start" x="25.2861" y="-262.8" font-family="Times,serif" font-size="14.00">new</text>
<text text-anchor="start" x="25.2861" y="-248.8" font-family="Times,serif" font-size="14.00">show</text>
<text text-anchor="start" x="25.2861" y="-234.8" font-family="Times,serif" font-size="14.00">update</text>
<polyline fill="none" stroke="black" points="17.2861,-228 122.714,-228 "/>
<polyline fill="none" stroke="black" points="17.2861,-204 122.714,-204 "/>
<text text-anchor="start" x="25.2861" y="-188.8" font-family="Times,serif" font-size="14.00">_layout</text>
<text text-anchor="start" x="25.2861" y="-174.8" font-family="Times,serif" font-size="14.00">set_user</text>
<text text-anchor="start" x="25.2861" y="-160.8" font-family="Times,serif" font-size="14.00">user_params</text>
</g>
<!-- WelcomeController -->
<g id="node8" class="node"><title>WelcomeController</title>
<path fill="none" stroke="black" d="M-56.0327,237C-56.0327,237 46.0327,237 46.0327,237 52.0327,237 58.0327,231 58.0327,225 58.0327,225 58.0327,157 58.0327,157 58.0327,151 52.0327,145 46.0327,145 46.0327,145 -56.0327,145 -56.0327,145 -62.0327,145 -68.0327,151 -68.0327,157 -68.0327,157 -68.0327,225 -68.0327,225 -68.0327,231 -62.0327,237 -56.0327,237"/>
<text text-anchor="middle" x="-5" y="160.2" font-family="Times,serif" font-size="14.00">WelcomeController</text>
<polyline fill="none" stroke="black" points="-68.0327,167 58.0327,167 "/>
<polyline fill="none" stroke="black" points="-68.0327,191 58.0327,191 "/>
<polyline fill="none" stroke="black" points="-68.0327,215 58.0327,215 "/>
<text text-anchor="start" x="-60.0327" y="230.2" font-family="Times,serif" font-size="14.00">_layout</text>
</g>
<!-- WodsController -->
<g id="node9" class="node"><title>WodsController</title>
<path fill="none" stroke="black" d="M-106.546,-154C-106.546,-154 -25.4536,-154 -25.4536,-154 -19.4536,-154 -13.4536,-160 -13.4536,-166 -13.4536,-166 -13.4536,-344 -13.4536,-344 -13.4536,-350 -19.4536,-356 -25.4536,-356 -25.4536,-356 -106.546,-356 -106.546,-356 -112.546,-356 -118.546,-350 -118.546,-344 -118.546,-344 -118.546,-166 -118.546,-166 -118.546,-160 -112.546,-154 -106.546,-154"/>
<text text-anchor="middle" x="-66" y="-340.8" font-family="Times,serif" font-size="14.00">WodsController</text>
<polyline fill="none" stroke="black" points="-118.546,-334 -13.4536,-334 "/>
<text text-anchor="start" x="-110.546" y="-318.8" font-family="Times,serif" font-size="14.00">create</text>
<text text-anchor="start" x="-110.546" y="-304.8" font-family="Times,serif" font-size="14.00">destroy</text>
<text text-anchor="start" x="-110.546" y="-290.8" font-family="Times,serif" font-size="14.00">edit</text>
<text text-anchor="start" x="-110.546" y="-276.8" font-family="Times,serif" font-size="14.00">index</text>
<text text-anchor="start" x="-110.546" y="-262.8" font-family="Times,serif" font-size="14.00">new</text>
<text text-anchor="start" x="-110.546" y="-248.8" font-family="Times,serif" font-size="14.00">show</text>
<text text-anchor="start" x="-110.546" y="-234.8" font-family="Times,serif" font-size="14.00">update</text>
<polyline fill="none" stroke="black" points="-118.546,-228 -13.4536,-228 "/>
<polyline fill="none" stroke="black" points="-118.546,-204 -13.4536,-204 "/>
<text text-anchor="start" x="-110.546" y="-188.8" font-family="Times,serif" font-size="14.00">_layout</text>
<text text-anchor="start" x="-110.546" y="-174.8" font-family="Times,serif" font-size="14.00">set_wod</text>
<text text-anchor="start" x="-110.546" y="-160.8" font-family="Times,serif" font-size="14.00">wod_params</text>
</g>
<!-- WorkoutsController -->
<g id="node10" class="node"><title>WorkoutsController</title>
<path fill="none" stroke="black" d="M-55.8223,118C-55.8223,118 47.8223,118 47.8223,118 53.8223,118 59.8223,112 59.8223,106 59.8223,106 59.8223,-100 59.8223,-100 59.8223,-106 53.8223,-112 47.8223,-112 47.8223,-112 -55.8223,-112 -55.8223,-112 -61.8223,-112 -67.8223,-106 -67.8223,-100 -67.8223,-100 -67.8223,106 -67.8223,106 -67.8223,112 -61.8223,118 -55.8223,118"/>
<text text-anchor="middle" x="-4" y="-96.8" font-family="Times,serif" font-size="14.00">WorkoutsController</text>
<polyline fill="none" stroke="black" points="-67.8223,-90 59.8223,-90 "/>
<text text-anchor="start" x="-59.8223" y="-74.8" font-family="Times,serif" font-size="14.00">create</text>
<text text-anchor="start" x="-59.8223" y="-60.8" font-family="Times,serif" font-size="14.00">destroy</text>
<text text-anchor="start" x="-59.8223" y="-46.8" font-family="Times,serif" font-size="14.00">edit</text>
<text text-anchor="start" x="-59.8223" y="-32.8" font-family="Times,serif" font-size="14.00">future</text>
<text text-anchor="start" x="-59.8223" y="-18.8" font-family="Times,serif" font-size="14.00">index</text>
<text text-anchor="start" x="-59.8223" y="-4.8" font-family="Times,serif" font-size="14.00">leaderboard</text>
<text text-anchor="start" x="-59.8223" y="9.2" font-family="Times,serif" font-size="14.00">new</text>
<text text-anchor="start" x="-59.8223" y="23.2" font-family="Times,serif" font-size="14.00">show</text>
<text text-anchor="start" x="-59.8223" y="37.2" font-family="Times,serif" font-size="14.00">update</text>
<polyline fill="none" stroke="black" points="-67.8223,44 59.8223,44 "/>
<polyline fill="none" stroke="black" points="-67.8223,68 59.8223,68 "/>
<text text-anchor="start" x="-59.8223" y="83.2" font-family="Times,serif" font-size="14.00">_layout</text>
<text text-anchor="start" x="-59.8223" y="97.2" font-family="Times,serif" font-size="14.00">set_workout</text>
<text text-anchor="start" x="-59.8223" y="111.2" font-family="Times,serif" font-size="14.00">workout_params</text>
</g>
</g>
</svg>
