<?xml version="1.0" encoding="UTF-8" standalone="no"?>
<!DOCTYPE svg PUBLIC "-//W3C//DTD SVG 1.1//EN"
 "http://www.w3.org/Graphics/SVG/1.1/DTD/svg11.dtd">
<!-- Generated by graphviz version 2.38.0 (20140413.2041)
 -->
<!-- Title: controllers_diagram Pages: 1 -->
<svg width="603pt" height="636pt"
 viewBox="0.00 0.00 602.59 636.00" xmlns="http://www.w3.org/2000/svg" xmlns:xlink="http://www.w3.org/1999/xlink">
<g id="graph0" class="graph" transform="scale(1 1) rotate(0) translate(241.821 394.5)">
<title>controllers_diagram</title>
<polygon fill="white" stroke="none" points="-241.821,241.5 -241.821,-394.5 360.772,-394.5 360.772,241.5 -241.821,241.5"/>
<!-- _diagram_info -->
<g id="node1" class="node"><title>_diagram_info</title>
<text text-anchor="start" x="93.3123" y="127.9" font-family="Times,serif" font-size="13.00">Controllers diagram</text>
<text text-anchor="start" x="93.3123" y="140.9" font-family="Times,serif" font-size="13.00">Date: Jan 16 2016 &#45; 09:38</text>
<text text-anchor="start" x="93.3123" y="153.9" font-family="Times,serif" font-size="13.00">Migration version: 20150726151329</text>
<text text-anchor="start" x="93.3123" y="166.9" font-family="Times,serif" font-size="13.00">Generated by RailRoady 1.3.0</text>
<text text-anchor="start" x="93.3123" y="179.9" font-family="Times,serif" font-size="13.00">http://railroady.prestonlee.com</text>
</g>
<!-- ApplicationController -->
<g id="node2" class="node"><title>ApplicationController</title>
<path fill="none" stroke="black" d="M-225.821,169C-225.821,169 -110.179,169 -110.179,169 -104.179,169 -98.1792,163 -98.1792,157 -98.1792,157 -98.1792,89 -98.1792,89 -98.1792,83 -104.179,77 -110.179,77 -110.179,77 -225.821,77 -225.821,77 -231.821,77 -237.821,83 -237.821,89 -237.821,89 -237.821,157 -237.821,157 -237.821,163 -231.821,169 -225.821,169"/>
<text text-anchor="middle" x="-168" y="92.2" font-family="Times,serif" font-size="14.00">ApplicationController</text>
<polyline fill="none" stroke="black" points="-237.821,99 -98.1792,99 "/>
<polyline fill="none" stroke="black" points="-237.821,123 -98.1792,123 "/>
<polyline fill="none" stroke="black" points="-237.821,147 -98.1792,147 "/>
<text text-anchor="start" x="-229.821" y="162.2" font-family="Times,serif" font-size="14.00">_layout</text>
</g>
<!-- CategoriesController -->
<g id="node3" class="node"><title>CategoriesController</title>
<path fill="none" stroke="black" d="M97.293,84C97.293,84 206.707,84 206.707,84 212.707,84 218.707,78 218.707,72 218.707,72 218.707,-106 218.707,-106 218.707,-112 212.707,-118 206.707,-118 206.707,-118 97.293,-118 97.293,-118 91.293,-118 85.293,-112 85.293,-106 85.293,-106 85.293,72 85.293,72 85.293,78 91.293,84 97.293,84"/>
<text text-anchor="middle" x="152" y="-102.8" font-family="Times,serif" font-size="14.00">CategoriesController</text>
<polyline fill="none" stroke="black" points="85.293,-96 218.707,-96 "/>
<text text-anchor="start" x="93.293" y="-80.8" font-family="Times,serif" font-size="14.00">create</text>
<text text-anchor="start" x="93.293" y="-66.8" font-family="Times,serif" font-size="14.00">destroy</text>
<text text-anchor="start" x="93.293" y="-52.8" font-family="Times,serif" font-size="14.00">edit</text>
<text text-anchor="start" x="93.293" y="-38.8" font-family="Times,serif" font-size="14.00">index</text>
<text text-anchor="start" x="93.293" y="-24.8" font-family="Times,serif" font-size="14.00">new</text>
<text text-anchor="start" x="93.293" y="-10.8" font-family="Times,serif" font-size="14.00">show</text>
<text text-anchor="start" x="93.293" y="3.2" font-family="Times,serif" font-size="14.00">update</text>
<polyline fill="none" stroke="black" points="85.293,10 218.707,10 "/>
<polyline fill="none" stroke="black" points="85.293,34 218.707,34 "/>
<text text-anchor="start" x="93.293" y="49.2" font-family="Times,serif" font-size="14.00">_layout</text>
<text text-anchor="start" x="93.293" y="63.2" font-family="Times,serif" font-size="14.00">category_params</text>
<text text-anchor="start" x="93.293" y="77.2" font-family="Times,serif" font-size="14.00">set_category</text>
</g>
<!-- LiftsController -->
<g id="node4" class="node"><title>LiftsController</title>
<path fill="none" stroke="black" d="M-191.993,50C-191.993,50 -116.007,50 -116.007,50 -110.007,50 -104.007,44 -104.007,38 -104.007,38 -104.007,-140 -104.007,-140 -104.007,-146 -110.007,-152 -116.007,-152 -116.007,-152 -191.993,-152 -191.993,-152 -197.993,-152 -203.993,-146 -203.993,-140 -203.993,-140 -203.993,38 -203.993,38 -203.993,44 -197.993,50 -191.993,50"/>
<text text-anchor="middle" x="-154" y="-136.8" font-family="Times,serif" font-size="14.00">LiftsController</text>
<polyline fill="none" stroke="black" points="-203.993,-130 -104.007,-130 "/>
<text text-anchor="start" x="-195.993" y="-114.8" font-family="Times,serif" font-size="14.00">create</text>
<text text-anchor="start" x="-195.993" y="-100.8" font-family="Times,serif" font-size="14.00">destroy</text>
<text text-anchor="start" x="-195.993" y="-86.8" font-family="Times,serif" font-size="14.00">edit</text>
<text text-anchor="start" x="-195.993" y="-72.8" font-family="Times,serif" font-size="14.00">index</text>
<text text-anchor="start" x="-195.993" y="-58.8" font-family="Times,serif" font-size="14.00">new</text>
<text text-anchor="start" x="-195.993" y="-44.8" font-family="Times,serif" font-size="14.00">show</text>
<text text-anchor="start" x="-195.993" y="-30.8" font-family="Times,serif" font-size="14.00">update</text>
<polyline fill="none" stroke="black" points="-203.993,-24 -104.007,-24 "/>
<polyline fill="none" stroke="black" points="-203.993,-0 -104.007,-0 "/>
<text text-anchor="start" x="-195.993" y="15.2" font-family="Times,serif" font-size="14.00">_layout</text>
<text text-anchor="start" x="-195.993" y="29.2" font-family="Times,serif" font-size="14.00">lift_params</text>
<text text-anchor="start" x="-195.993" y="43.2" font-family="Times,serif" font-size="14.00">set_lift</text>
</g>
<!-- PartsController -->
<g id="node5" class="node"><title>PartsController</title>
<path fill="none" stroke="black" d="M267.228,84C267.228,84 344.772,84 344.772,84 350.772,84 356.772,78 356.772,72 356.772,72 356.772,-106 356.772,-106 356.772,-112 350.772,-118 344.772,-118 344.772,-118 267.228,-118 267.228,-118 261.228,-118 255.228,-112 255.228,-106 255.228,-106 255.228,72 255.228,72 255.228,78 261.228,84 267.228,84"/>
<text text-anchor="middle" x="306" y="-102.8" font-family="Times,serif" font-size="14.00">PartsController</text>
<polyline fill="none" stroke="black" points="255.228,-96 356.772,-96 "/>
<text text-anchor="start" x="263.228" y="-80.8" font-family="Times,serif" font-size="14.00">create</text>
<text text-anchor="start" x="263.228" y="-66.8" font-family="Times,serif" font-size="14.00">destroy</text>
<text text-anchor="start" x="263.228" y="-52.8" font-family="Times,serif" font-size="14.00">edit</text>
<text text-anchor="start" x="263.228" y="-38.8" font-family="Times,serif" font-size="14.00">index</text>
<text text-anchor="start" x="263.228" y="-24.8" font-family="Times,serif" font-size="14.00">new</text>
<text text-anchor="start" x="263.228" y="-10.8" font-family="Times,serif" font-size="14.00">show</text>
<text text-anchor="start" x="263.228" y="3.2" font-family="Times,serif" font-size="14.00">update</text>
<polyline fill="none" stroke="black" points="255.228,10 356.772,10 "/>
<polyline fill="none" stroke="black" points="255.228,34 356.772,34 "/>
<text text-anchor="start" x="263.228" y="49.2" font-family="Times,serif" font-size="14.00">_layout</text>
<text text-anchor="start" x="263.228" y="63.2" font-family="Times,serif" font-size="14.00">part_params</text>
<text text-anchor="start" x="263.228" y="77.2" font-family="Times,serif" font-size="14.00">set_part</text>
</g>
<!-- ScoresController -->
<g id="node6" class="node"><title>ScoresController</title>
<path fill="none" stroke="black" d="M-39.4346,-137C-39.4346,-137 47.4346,-137 47.4346,-137 53.4346,-137 59.4346,-143 59.4346,-149 59.4346,-149 59.4346,-341 59.4346,-341 59.4346,-347 53.4346,-353 47.4346,-353 47.4346,-353 -39.4346,-353 -39.4346,-353 -45.4346,-353 -51.4346,-347 -51.4346,-341 -51.4346,-341 -51.4346,-149 -51.4346,-149 -51.4346,-143 -45.4346,-137 -39.4346,-137"/>
<text text-anchor="middle" x="4" y="-337.8" font-family="Times,serif" font-size="14.00">ScoresController</text>
<polyline fill="none" stroke="black" points="-51.4346,-331 59.4346,-331 "/>
<text text-anchor="start" x="-43.4346" y="-315.8" font-family="Times,serif" font-size="14.00">create</text>
<text text-anchor="start" x="-43.4346" y="-301.8" font-family="Times,serif" font-size="14.00">destroy</text>
<text text-anchor="start" x="-43.4346" y="-287.8" font-family="Times,serif" font-size="14.00">edit</text>
<text text-anchor="start" x="-43.4346" y="-273.8" font-family="Times,serif" font-size="14.00">index</text>
<text text-anchor="start" x="-43.4346" y="-259.8" font-family="Times,serif" font-size="14.00">new</text>
<text text-anchor="start" x="-43.4346" y="-245.8" font-family="Times,serif" font-size="14.00">show</text>
<text text-anchor="start" x="-43.4346" y="-231.8" font-family="Times,serif" font-size="14.00">update</text>
<polyline fill="none" stroke="black" points="-51.4346,-225 59.4346,-225 "/>
<polyline fill="none" stroke="black" points="-51.4346,-201 59.4346,-201 "/>
<text text-anchor="start" x="-43.4346" y="-185.8" font-family="Times,serif" font-size="14.00">_layout</text>
<text text-anchor="start" x="-43.4346" y="-171.8" font-family="Times,serif" font-size="14.00">score_params</text>
<text text-anchor="start" x="-43.4346" y="-157.8" font-family="Times,serif" font-size="14.00">search_params</text>
<text text-anchor="start" x="-43.4346" y="-143.8" font-family="Times,serif" font-size="14.00">set_score</text>
</g>
<!-- UsersController -->
<g id="node7" class="node"><title>UsersController</title>
<path fill="none" stroke="black" d="M165.286,-154C165.286,-154 246.714,-154 246.714,-154 252.714,-154 258.714,-160 258.714,-166 258.714,-166 258.714,-344 258.714,-344 258.714,-350 252.714,-356 246.714,-356 246.714,-356 165.286,-356 165.286,-356 159.286,-356 153.286,-350 153.286,-344 153.286,-344 153.286,-166 153.286,-166 153.286,-160 159.286,-154 165.286,-154"/>
<text text-anchor="middle" x="206" y="-340.8" font-family="Times,serif" font-size="14.00">UsersController</text>
<polyline fill="none" stroke="black" points="153.286,-334 258.714,-334 "/>
<text text-anchor="start" x="161.286" y="-318.8" font-family="Times,serif" font-size="14.00">create</text>
<text text-anchor="start" x="161.286" y="-304.8" font-family="Times,serif" font-size="14.00">destroy</text>
<text text-anchor="start" x="161.286" y="-290.8" font-family="Times,serif" font-size="14.00">edit</text>
<text text-anchor="start" x="161.286" y="-276.8" font-family="Times,serif" font-size="14.00">index</text>
<text text-anchor="start" x="161.286" y="-262.8" font-family="Times,serif" font-size="14.00">new</text>
<text text-anchor="start" x="161.286" y="-248.8" font-family="Times,serif" font-size="14.00">show</text>
<text text-anchor="start" x="161.286" y="-234.8" font-family="Times,serif" font-size="14.00">update</text>
<polyline fill="none" stroke="black" points="153.286,-228 258.714,-228 "/>
<polyline fill="none" stroke="black" points="153.286,-204 258.714,-204 "/>
<text text-anchor="start" x="161.286" y="-188.8" font-family="Times,serif" font-size="14.00">_layout</text>
<text text-anchor="start" x="161.286" y="-174.8" font-family="Times,serif" font-size="14.00">set_user</text>
<text text-anchor="start" x="161.286" y="-160.8" font-family="Times,serif" font-size="14.00">user_params</text>
</g>
<!-- WelcomeController -->
<g id="node8" class="node"><title>WelcomeController</title>
<path fill="none" stroke="black" d="M-56.0327,237C-56.0327,237 46.0327,237 46.0327,237 52.0327,237 58.0327,231 58.0327,225 58.0327,225 58.0327,157 58.0327,157 58.0327,151 52.0327,145 46.0327,145 46.0327,145 -56.0327,145 -56.0327,145 -62.0327,145 -68.0327,151 -68.0327,157 -68.0327,157 -68.0327,225 -68.0327,225 -68.0327,231 -62.0327,237 -56.0327,237"/>
<text text-anchor="middle" x="-5" y="160.2" font-family="Times,serif" font-size="14.00">WelcomeController</text>
<polyline fill="none" stroke="black" points="-68.0327,167 58.0327,167 "/>
<polyline fill="none" stroke="black" points="-68.0327,191 58.0327,191 "/>
<polyline fill="none" stroke="black" points="-68.0327,215 58.0327,215 "/>
<text text-anchor="start" x="-60.0327" y="230.2" font-family="Times,serif" font-size="14.00">_layout</text>
</g>
<!-- WodsController -->
<g id="node9" class="node"><title>WodsController</title>
<path fill="none" stroke="black" d="M-174.546,-188C-174.546,-188 -93.4536,-188 -93.4536,-188 -87.4536,-188 -81.4536,-194 -81.4536,-200 -81.4536,-200 -81.4536,-378 -81.4536,-378 -81.4536,-384 -87.4536,-390 -93.4536,-390 -93.4536,-390 -174.546,-390 -174.546,-390 -180.546,-390 -186.546,-384 -186.546,-378 -186.546,-378 -186.546,-200 -186.546,-200 -186.546,-194 -180.546,-188 -174.546,-188"/>
<text text-anchor="middle" x="-134" y="-374.8" font-family="Times,serif" font-size="14.00">WodsController</text>
<polyline fill="none" stroke="black" points="-186.546,-368 -81.4536,-368 "/>
<text text-anchor="start" x="-178.546" y="-352.8" font-family="Times,serif" font-size="14.00">create</text>
<text text-anchor="start" x="-178.546" y="-338.8" font-family="Times,serif" font-size="14.00">destroy</text>
<text text-anchor="start" x="-178.546" y="-324.8" font-family="Times,serif" font-size="14.00">edit</text>
<text text-anchor="start" x="-178.546" y="-310.8" font-family="Times,serif" font-size="14.00">index</text>
<text text-anchor="start" x="-178.546" y="-296.8" font-family="Times,serif" font-size="14.00">new</text>
<text text-anchor="start" x="-178.546" y="-282.8" font-family="Times,serif" font-size="14.00">show</text>
<text text-anchor="start" x="-178.546" y="-268.8" font-family="Times,serif" font-size="14.00">update</text>
<polyline fill="none" stroke="black" points="-186.546,-262 -81.4536,-262 "/>
<polyline fill="none" stroke="black" points="-186.546,-238 -81.4536,-238 "/>
<text text-anchor="start" x="-178.546" y="-222.8" font-family="Times,serif" font-size="14.00">_layout</text>
<text text-anchor="start" x="-178.546" y="-208.8" font-family="Times,serif" font-size="14.00">set_wod</text>
<text text-anchor="start" x="-178.546" y="-194.8" font-family="Times,serif" font-size="14.00">wod_params</text>
</g>
<!-- WorkoutsController -->
<g id="node10" class="node"><title>WorkoutsController</title>
<path fill="none" stroke="black" d="M-55.8223,118C-55.8223,118 47.8223,118 47.8223,118 53.8223,118 59.8223,112 59.8223,106 59.8223,106 59.8223,-86 59.8223,-86 59.8223,-92 53.8223,-98 47.8223,-98 47.8223,-98 -55.8223,-98 -55.8223,-98 -61.8223,-98 -67.8223,-92 -67.8223,-86 -67.8223,-86 -67.8223,106 -67.8223,106 -67.8223,112 -61.8223,118 -55.8223,118"/>
<text text-anchor="middle" x="-4" y="-82.8" font-family="Times,serif" font-size="14.00">WorkoutsController</text>
<polyline fill="none" stroke="black" points="-67.8223,-76 59.8223,-76 "/>
<text text-anchor="start" x="-59.8223" y="-60.8" font-family="Times,serif" font-size="14.00">create</text>
<text text-anchor="start" x="-59.8223" y="-46.8" font-family="Times,serif" font-size="14.00">destroy</text>
<text text-anchor="start" x="-59.8223" y="-32.8" font-family="Times,serif" font-size="14.00">edit</text>
<text text-anchor="start" x="-59.8223" y="-18.8" font-family="Times,serif" font-size="14.00">index</text>
<text text-anchor="start" x="-59.8223" y="-4.8" font-family="Times,serif" font-size="14.00">leaderboard</text>
<text text-anchor="start" x="-59.8223" y="9.2" font-family="Times,serif" font-size="14.00">new</text>
<text text-anchor="start" x="-59.8223" y="23.2" font-family="Times,serif" font-size="14.00">show</text>
<text text-anchor="start" x="-59.8223" y="37.2" font-family="Times,serif" font-size="14.00">update</text>
<polyline fill="none" stroke="black" points="-67.8223,44 59.8223,44 "/>
<polyline fill="none" stroke="black" points="-67.8223,68 59.8223,68 "/>
<text text-anchor="start" x="-59.8223" y="83.2" font-family="Times,serif" font-size="14.00">_layout</text>
<text text-anchor="start" x="-59.8223" y="97.2" font-family="Times,serif" font-size="14.00">set_workout</text>
<text text-anchor="start" x="-59.8223" y="111.2" font-family="Times,serif" font-size="14.00">workout_params</text>
</g>
</g>
</svg>
