<?xml version="1.0" encoding="UTF-8" standalone="no"?>
<!DOCTYPE svg PUBLIC "-//W3C//DTD SVG 1.1//EN"
 "http://www.w3.org/Graphics/SVG/1.1/DTD/svg11.dtd">
<!-- Generated by graphviz version 2.38.0 (20140413.2041)
 -->
<!-- Title: controllers_diagram Pages: 1 -->
<svg width="593pt" height="636pt"
 viewBox="0.00 0.00 592.85 636.00" xmlns="http://www.w3.org/2000/svg" xmlns:xlink="http://www.w3.org/1999/xlink">
<g id="graph0" class="graph" transform="scale(1 1) rotate(0) translate(224.821 394.5)">
<title>controllers_diagram</title>
<polygon fill="white" stroke="none" points="-224.821,241.5 -224.821,-394.5 368.033,-394.5 368.033,241.5 -224.821,241.5"/>
<!-- _diagram_info -->
<g id="node1" class="node"><title>_diagram_info</title>
<text text-anchor="start" x="7.55029" y="144.9" font-family="Times,serif" font-size="13.00">Controllers diagram</text>
<text text-anchor="start" x="7.55029" y="157.9" font-family="Times,serif" font-size="13.00">Date: Jul 26 2015 &#45; 10:28</text>
<text text-anchor="start" x="7.55029" y="170.9" font-family="Times,serif" font-size="13.00">Migration version: 20150715211331</text>
<text text-anchor="start" x="7.55029" y="183.9" font-family="Times,serif" font-size="13.00">Generated by RailRoady 1.3.0</text>
<text text-anchor="start" x="7.55029" y="196.9" font-family="Times,serif" font-size="13.00">http://railroady.prestonlee.com</text>
</g>
<!-- ApplicationController -->
<g id="node2" class="node"><title>ApplicationController</title>
<path fill="none" stroke="black" d="M-208.821,220C-208.821,220 -93.1792,220 -93.1792,220 -87.1792,220 -81.1792,214 -81.1792,208 -81.1792,208 -81.1792,140 -81.1792,140 -81.1792,134 -87.1792,128 -93.1792,128 -93.1792,128 -208.821,128 -208.821,128 -214.821,128 -220.821,134 -220.821,140 -220.821,140 -220.821,208 -220.821,208 -220.821,214 -214.821,220 -208.821,220"/>
<text text-anchor="middle" x="-151" y="143.2" font-family="Times,serif" font-size="14.00">ApplicationController</text>
<polyline fill="none" stroke="black" points="-220.821,150 -81.1792,150 "/>
<polyline fill="none" stroke="black" points="-220.821,174 -81.1792,174 "/>
<polyline fill="none" stroke="black" points="-220.821,198 -81.1792,198 "/>
<text text-anchor="start" x="-212.821" y="213.2" font-family="Times,serif" font-size="14.00">_layout</text>
</g>
<!-- CategoriesController -->
<g id="node3" class="node"><title>CategoriesController</title>
<path fill="none" stroke="black" d="M-55.707,101C-55.707,101 53.707,101 53.707,101 59.707,101 65.707,95 65.707,89 65.707,89 65.707,-89 65.707,-89 65.707,-95 59.707,-101 53.707,-101 53.707,-101 -55.707,-101 -55.707,-101 -61.707,-101 -67.707,-95 -67.707,-89 -67.707,-89 -67.707,89 -67.707,89 -67.707,95 -61.707,101 -55.707,101"/>
<text text-anchor="middle" x="-1" y="-85.8" font-family="Times,serif" font-size="14.00">CategoriesController</text>
<polyline fill="none" stroke="black" points="-67.707,-79 65.707,-79 "/>
<text text-anchor="start" x="-59.707" y="-63.8" font-family="Times,serif" font-size="14.00">create</text>
<text text-anchor="start" x="-59.707" y="-49.8" font-family="Times,serif" font-size="14.00">destroy</text>
<text text-anchor="start" x="-59.707" y="-35.8" font-family="Times,serif" font-size="14.00">edit</text>
<text text-anchor="start" x="-59.707" y="-21.8" font-family="Times,serif" font-size="14.00">index</text>
<text text-anchor="start" x="-59.707" y="-7.8" font-family="Times,serif" font-size="14.00">new</text>
<text text-anchor="start" x="-59.707" y="6.2" font-family="Times,serif" font-size="14.00">show</text>
<text text-anchor="start" x="-59.707" y="20.2" font-family="Times,serif" font-size="14.00">update</text>
<polyline fill="none" stroke="black" points="-67.707,27 65.707,27 "/>
<polyline fill="none" stroke="black" points="-67.707,51 65.707,51 "/>
<text text-anchor="start" x="-59.707" y="66.2" font-family="Times,serif" font-size="14.00">_layout</text>
<text text-anchor="start" x="-59.707" y="80.2" font-family="Times,serif" font-size="14.00">category_params</text>
<text text-anchor="start" x="-59.707" y="94.2" font-family="Times,serif" font-size="14.00">set_category</text>
</g>
<!-- LiftsController -->
<g id="node4" class="node"><title>LiftsController</title>
<path fill="none" stroke="black" d="M-191.993,50C-191.993,50 -116.007,50 -116.007,50 -110.007,50 -104.007,44 -104.007,38 -104.007,38 -104.007,-140 -104.007,-140 -104.007,-146 -110.007,-152 -116.007,-152 -116.007,-152 -191.993,-152 -191.993,-152 -197.993,-152 -203.993,-146 -203.993,-140 -203.993,-140 -203.993,38 -203.993,38 -203.993,44 -197.993,50 -191.993,50"/>
<text text-anchor="middle" x="-154" y="-136.8" font-family="Times,serif" font-size="14.00">LiftsController</text>
<polyline fill="none" stroke="black" points="-203.993,-130 -104.007,-130 "/>
<text text-anchor="start" x="-195.993" y="-114.8" font-family="Times,serif" font-size="14.00">create</text>
<text text-anchor="start" x="-195.993" y="-100.8" font-family="Times,serif" font-size="14.00">destroy</text>
<text text-anchor="start" x="-195.993" y="-86.8" font-family="Times,serif" font-size="14.00">edit</text>
<text text-anchor="start" x="-195.993" y="-72.8" font-family="Times,serif" font-size="14.00">index</text>
<text text-anchor="start" x="-195.993" y="-58.8" font-family="Times,serif" font-size="14.00">new</text>
<text text-anchor="start" x="-195.993" y="-44.8" font-family="Times,serif" font-size="14.00">show</text>
<text text-anchor="start" x="-195.993" y="-30.8" font-family="Times,serif" font-size="14.00">update</text>
<polyline fill="none" stroke="black" points="-203.993,-24 -104.007,-24 "/>
<polyline fill="none" stroke="black" points="-203.993,-0 -104.007,-0 "/>
<text text-anchor="start" x="-195.993" y="15.2" font-family="Times,serif" font-size="14.00">_layout</text>
<text text-anchor="start" x="-195.993" y="29.2" font-family="Times,serif" font-size="14.00">lift_params</text>
<text text-anchor="start" x="-195.993" y="43.2" font-family="Times,serif" font-size="14.00">set_lift</text>
</g>
<!-- PartsController -->
<g id="node5" class="node"><title>PartsController</title>
<path fill="none" stroke="black" d="M-174.772,-188C-174.772,-188 -97.2275,-188 -97.2275,-188 -91.2275,-188 -85.2275,-194 -85.2275,-200 -85.2275,-200 -85.2275,-378 -85.2275,-378 -85.2275,-384 -91.2275,-390 -97.2275,-390 -97.2275,-390 -174.772,-390 -174.772,-390 -180.772,-390 -186.772,-384 -186.772,-378 -186.772,-378 -186.772,-200 -186.772,-200 -186.772,-194 -180.772,-188 -174.772,-188"/>
<text text-anchor="middle" x="-136" y="-374.8" font-family="Times,serif" font-size="14.00">PartsController</text>
<polyline fill="none" stroke="black" points="-186.772,-368 -85.2275,-368 "/>
<text text-anchor="start" x="-178.772" y="-352.8" font-family="Times,serif" font-size="14.00">create</text>
<text text-anchor="start" x="-178.772" y="-338.8" font-family="Times,serif" font-size="14.00">destroy</text>
<text text-anchor="start" x="-178.772" y="-324.8" font-family="Times,serif" font-size="14.00">edit</text>
<text text-anchor="start" x="-178.772" y="-310.8" font-family="Times,serif" font-size="14.00">index</text>
<text text-anchor="start" x="-178.772" y="-296.8" font-family="Times,serif" font-size="14.00">new</text>
<text text-anchor="start" x="-178.772" y="-282.8" font-family="Times,serif" font-size="14.00">show</text>
<text text-anchor="start" x="-178.772" y="-268.8" font-family="Times,serif" font-size="14.00">update</text>
<polyline fill="none" stroke="black" points="-186.772,-262 -85.2275,-262 "/>
<polyline fill="none" stroke="black" points="-186.772,-238 -85.2275,-238 "/>
<text text-anchor="start" x="-178.772" y="-222.8" font-family="Times,serif" font-size="14.00">_layout</text>
<text text-anchor="start" x="-178.772" y="-208.8" font-family="Times,serif" font-size="14.00">part_params</text>
<text text-anchor="start" x="-178.772" y="-194.8" font-family="Times,serif" font-size="14.00">set_part</text>
</g>
<!-- ScoresController -->
<g id="node6" class="node"><title>ScoresController</title>
<path fill="none" stroke="black" d="M113.565,101C113.565,101 200.435,101 200.435,101 206.435,101 212.435,95 212.435,89 212.435,89 212.435,-103 212.435,-103 212.435,-109 206.435,-115 200.435,-115 200.435,-115 113.565,-115 113.565,-115 107.565,-115 101.565,-109 101.565,-103 101.565,-103 101.565,89 101.565,89 101.565,95 107.565,101 113.565,101"/>
<text text-anchor="middle" x="157" y="-99.8" font-family="Times,serif" font-size="14.00">ScoresController</text>
<polyline fill="none" stroke="black" points="101.565,-93 212.435,-93 "/>
<text text-anchor="start" x="109.565" y="-77.8" font-family="Times,serif" font-size="14.00">create</text>
<text text-anchor="start" x="109.565" y="-63.8" font-family="Times,serif" font-size="14.00">destroy</text>
<text text-anchor="start" x="109.565" y="-49.8" font-family="Times,serif" font-size="14.00">edit</text>
<text text-anchor="start" x="109.565" y="-35.8" font-family="Times,serif" font-size="14.00">index</text>
<text text-anchor="start" x="109.565" y="-21.8" font-family="Times,serif" font-size="14.00">new</text>
<text text-anchor="start" x="109.565" y="-7.8" font-family="Times,serif" font-size="14.00">show</text>
<text text-anchor="start" x="109.565" y="6.2" font-family="Times,serif" font-size="14.00">update</text>
<polyline fill="none" stroke="black" points="101.565,13 212.435,13 "/>
<polyline fill="none" stroke="black" points="101.565,37 212.435,37 "/>
<text text-anchor="start" x="109.565" y="52.2" font-family="Times,serif" font-size="14.00">_layout</text>
<text text-anchor="start" x="109.565" y="66.2" font-family="Times,serif" font-size="14.00">score_params</text>
<text text-anchor="start" x="109.565" y="80.2" font-family="Times,serif" font-size="14.00">search_params</text>
<text text-anchor="start" x="109.565" y="94.2" font-family="Times,serif" font-size="14.00">set_score</text>
</g>
<!-- WelcomeController -->
<g id="node7" class="node"><title>WelcomeController</title>
<path fill="none" stroke="black" d="M249.967,237C249.967,237 352.033,237 352.033,237 358.033,237 364.033,231 364.033,225 364.033,225 364.033,157 364.033,157 364.033,151 358.033,145 352.033,145 352.033,145 249.967,145 249.967,145 243.967,145 237.967,151 237.967,157 237.967,157 237.967,225 237.967,225 237.967,231 243.967,237 249.967,237"/>
<text text-anchor="middle" x="301" y="160.2" font-family="Times,serif" font-size="14.00">WelcomeController</text>
<polyline fill="none" stroke="black" points="237.967,167 364.033,167 "/>
<polyline fill="none" stroke="black" points="237.967,191 364.033,191 "/>
<polyline fill="none" stroke="black" points="237.967,215 364.033,215 "/>
<text text-anchor="start" x="245.967" y="230.2" font-family="Times,serif" font-size="14.00">_layout</text>
</g>
<!-- WodsController -->
<g id="node8" class="node"><title>WodsController</title>
<path fill="none" stroke="black" d="M165.454,-154C165.454,-154 246.546,-154 246.546,-154 252.546,-154 258.546,-160 258.546,-166 258.546,-166 258.546,-344 258.546,-344 258.546,-350 252.546,-356 246.546,-356 246.546,-356 165.454,-356 165.454,-356 159.454,-356 153.454,-350 153.454,-344 153.454,-344 153.454,-166 153.454,-166 153.454,-160 159.454,-154 165.454,-154"/>
<text text-anchor="middle" x="206" y="-340.8" font-family="Times,serif" font-size="14.00">WodsController</text>
<polyline fill="none" stroke="black" points="153.454,-334 258.546,-334 "/>
<text text-anchor="start" x="161.454" y="-318.8" font-family="Times,serif" font-size="14.00">create</text>
<text text-anchor="start" x="161.454" y="-304.8" font-family="Times,serif" font-size="14.00">destroy</text>
<text text-anchor="start" x="161.454" y="-290.8" font-family="Times,serif" font-size="14.00">edit</text>
<text text-anchor="start" x="161.454" y="-276.8" font-family="Times,serif" font-size="14.00">index</text>
<text text-anchor="start" x="161.454" y="-262.8" font-family="Times,serif" font-size="14.00">new</text>
<text text-anchor="start" x="161.454" y="-248.8" font-family="Times,serif" font-size="14.00">show</text>
<text text-anchor="start" x="161.454" y="-234.8" font-family="Times,serif" font-size="14.00">update</text>
<polyline fill="none" stroke="black" points="153.454,-228 258.546,-228 "/>
<polyline fill="none" stroke="black" points="153.454,-204 258.546,-204 "/>
<text text-anchor="start" x="161.454" y="-188.8" font-family="Times,serif" font-size="14.00">_layout</text>
<text text-anchor="start" x="161.454" y="-174.8" font-family="Times,serif" font-size="14.00">set_wod</text>
<text text-anchor="start" x="161.454" y="-160.8" font-family="Times,serif" font-size="14.00">wod_params</text>
</g>
<!-- WorkoutsController -->
<g id="node9" class="node"><title>WorkoutsController</title>
<path fill="none" stroke="black" d="M-38.8223,-137C-38.8223,-137 64.8223,-137 64.8223,-137 70.8223,-137 76.8223,-143 76.8223,-149 76.8223,-149 76.8223,-327 76.8223,-327 76.8223,-333 70.8223,-339 64.8223,-339 64.8223,-339 -38.8223,-339 -38.8223,-339 -44.8223,-339 -50.8223,-333 -50.8223,-327 -50.8223,-327 -50.8223,-149 -50.8223,-149 -50.8223,-143 -44.8223,-137 -38.8223,-137"/>
<text text-anchor="middle" x="13" y="-323.8" font-family="Times,serif" font-size="14.00">WorkoutsController</text>
<polyline fill="none" stroke="black" points="-50.8223,-317 76.8223,-317 "/>
<text text-anchor="start" x="-42.8223" y="-301.8" font-family="Times,serif" font-size="14.00">create</text>
<text text-anchor="start" x="-42.8223" y="-287.8" font-family="Times,serif" font-size="14.00">destroy</text>
<text text-anchor="start" x="-42.8223" y="-273.8" font-family="Times,serif" font-size="14.00">edit</text>
<text text-anchor="start" x="-42.8223" y="-259.8" font-family="Times,serif" font-size="14.00">index</text>
<text text-anchor="start" x="-42.8223" y="-245.8" font-family="Times,serif" font-size="14.00">new</text>
<text text-anchor="start" x="-42.8223" y="-231.8" font-family="Times,serif" font-size="14.00">show</text>
<text text-anchor="start" x="-42.8223" y="-217.8" font-family="Times,serif" font-size="14.00">update</text>
<polyline fill="none" stroke="black" points="-50.8223,-211 76.8223,-211 "/>
<polyline fill="none" stroke="black" points="-50.8223,-187 76.8223,-187 "/>
<text text-anchor="start" x="-42.8223" y="-171.8" font-family="Times,serif" font-size="14.00">_layout</text>
<text text-anchor="start" x="-42.8223" y="-157.8" font-family="Times,serif" font-size="14.00">set_workout</text>
<text text-anchor="start" x="-42.8223" y="-143.8" font-family="Times,serif" font-size="14.00">workout_params</text>
</g>
</g>
</svg>
