<?xml version="1.0" encoding="UTF-8" standalone="no"?>
<!DOCTYPE svg PUBLIC "-//W3C//DTD SVG 1.1//EN"
 "http://www.w3.org/Graphics/SVG/1.1/DTD/svg11.dtd">
<!-- Generated by graphviz version 2.38.0 (20140413.2041)
 -->
<!-- Title: controllers_diagram Pages: 1 -->
<svg width="567pt" height="738pt"
 viewBox="0.00 0.00 566.71 738.00" xmlns="http://www.w3.org/2000/svg" xmlns:xlink="http://www.w3.org/1999/xlink">
<g id="graph0" class="graph" transform="scale(1 1) rotate(0) translate(241.714 428.5)">
<title>controllers_diagram</title>
<polygon fill="white" stroke="none" points="-241.714,309.5 -241.714,-428.5 324.993,-428.5 324.993,309.5 -241.714,309.5"/>
<!-- _diagram_info -->
<g id="node1" class="node"><title>_diagram_info</title>
<text text-anchor="start" x="92.5503" y="127.9" font-family="Times,serif" font-size="13.00">Controllers diagram</text>
<text text-anchor="start" x="92.5503" y="140.9" font-family="Times,serif" font-size="13.00">Date: Feb 02 2016 &#45; 08:49</text>
<text text-anchor="start" x="92.5503" y="153.9" font-family="Times,serif" font-size="13.00">Migration version: 20160201142341</text>
<text text-anchor="start" x="92.5503" y="166.9" font-family="Times,serif" font-size="13.00">Generated by RailRoady 1.3.0</text>
<text text-anchor="start" x="92.5503" y="179.9" font-family="Times,serif" font-size="13.00">http://railroady.prestonlee.com</text>
</g>
<!-- ApplicationController -->
<g id="node2" class="node"><title>ApplicationController</title>
<path fill="none" stroke="black" d="M12.1792,305C12.1792,305 127.821,305 127.821,305 133.821,305 139.821,299 139.821,293 139.821,293 139.821,225 139.821,225 139.821,219 133.821,213 127.821,213 127.821,213 12.1792,213 12.1792,213 6.1792,213 0.179199,219 0.179199,225 0.179199,225 0.179199,293 0.179199,293 0.179199,299 6.1792,305 12.1792,305"/>
<text text-anchor="middle" x="70" y="228.2" font-family="Times,serif" font-size="14.00">ApplicationController</text>
<polyline fill="none" stroke="black" points="0.179199,235 139.821,235 "/>
<polyline fill="none" stroke="black" points="0.179199,259 139.821,259 "/>
<polyline fill="none" stroke="black" points="0.179199,283 139.821,283 "/>
<text text-anchor="start" x="8.1792" y="298.2" font-family="Times,serif" font-size="14.00">_layout</text>
</g>
<!-- CategoriesController -->
<g id="node3" class="node"><title>CategoriesController</title>
<path fill="none" stroke="black" d="M-72.707,-154C-72.707,-154 36.707,-154 36.707,-154 42.707,-154 48.707,-160 48.707,-166 48.707,-166 48.707,-344 48.707,-344 48.707,-350 42.707,-356 36.707,-356 36.707,-356 -72.707,-356 -72.707,-356 -78.707,-356 -84.707,-350 -84.707,-344 -84.707,-344 -84.707,-166 -84.707,-166 -84.707,-160 -78.707,-154 -72.707,-154"/>
<text text-anchor="middle" x="-18" y="-340.8" font-family="Times,serif" font-size="14.00">CategoriesController</text>
<polyline fill="none" stroke="black" points="-84.707,-334 48.707,-334 "/>
<text text-anchor="start" x="-76.707" y="-318.8" font-family="Times,serif" font-size="14.00">create</text>
<text text-anchor="start" x="-76.707" y="-304.8" font-family="Times,serif" font-size="14.00">destroy</text>
<text text-anchor="start" x="-76.707" y="-290.8" font-family="Times,serif" font-size="14.00">edit</text>
<text text-anchor="start" x="-76.707" y="-276.8" font-family="Times,serif" font-size="14.00">index</text>
<text text-anchor="start" x="-76.707" y="-262.8" font-family="Times,serif" font-size="14.00">new</text>
<text text-anchor="start" x="-76.707" y="-248.8" font-family="Times,serif" font-size="14.00">show</text>
<text text-anchor="start" x="-76.707" y="-234.8" font-family="Times,serif" font-size="14.00">update</text>
<polyline fill="none" stroke="black" points="-84.707,-228 48.707,-228 "/>
<polyline fill="none" stroke="black" points="-84.707,-204 48.707,-204 "/>
<text text-anchor="start" x="-76.707" y="-188.8" font-family="Times,serif" font-size="14.00">_layout</text>
<text text-anchor="start" x="-76.707" y="-174.8" font-family="Times,serif" font-size="14.00">category_params</text>
<text text-anchor="start" x="-76.707" y="-160.8" font-family="Times,serif" font-size="14.00">set_category</text>
</g>
<!-- LiftsController -->
<g id="node4" class="node"><title>LiftsController</title>
<path fill="none" stroke="black" d="M233.007,84C233.007,84 308.993,84 308.993,84 314.993,84 320.993,78 320.993,72 320.993,72 320.993,-106 320.993,-106 320.993,-112 314.993,-118 308.993,-118 308.993,-118 233.007,-118 233.007,-118 227.007,-118 221.007,-112 221.007,-106 221.007,-106 221.007,72 221.007,72 221.007,78 227.007,84 233.007,84"/>
<text text-anchor="middle" x="271" y="-102.8" font-family="Times,serif" font-size="14.00">LiftsController</text>
<polyline fill="none" stroke="black" points="221.007,-96 320.993,-96 "/>
<text text-anchor="start" x="229.007" y="-80.8" font-family="Times,serif" font-size="14.00">create</text>
<text text-anchor="start" x="229.007" y="-66.8" font-family="Times,serif" font-size="14.00">destroy</text>
<text text-anchor="start" x="229.007" y="-52.8" font-family="Times,serif" font-size="14.00">edit</text>
<text text-anchor="start" x="229.007" y="-38.8" font-family="Times,serif" font-size="14.00">index</text>
<text text-anchor="start" x="229.007" y="-24.8" font-family="Times,serif" font-size="14.00">new</text>
<text text-anchor="start" x="229.007" y="-10.8" font-family="Times,serif" font-size="14.00">show</text>
<text text-anchor="start" x="229.007" y="3.2" font-family="Times,serif" font-size="14.00">update</text>
<polyline fill="none" stroke="black" points="221.007,10 320.993,10 "/>
<polyline fill="none" stroke="black" points="221.007,34 320.993,34 "/>
<text text-anchor="start" x="229.007" y="49.2" font-family="Times,serif" font-size="14.00">_layout</text>
<text text-anchor="start" x="229.007" y="63.2" font-family="Times,serif" font-size="14.00">lift_params</text>
<text text-anchor="start" x="229.007" y="77.2" font-family="Times,serif" font-size="14.00">set_lift</text>
</g>
<!-- PartsController -->
<g id="node5" class="node"><title>PartsController</title>
<path fill="none" stroke="black" d="M-208.772,-222C-208.772,-222 -131.228,-222 -131.228,-222 -125.228,-222 -119.228,-228 -119.228,-234 -119.228,-234 -119.228,-412 -119.228,-412 -119.228,-418 -125.228,-424 -131.228,-424 -131.228,-424 -208.772,-424 -208.772,-424 -214.772,-424 -220.772,-418 -220.772,-412 -220.772,-412 -220.772,-234 -220.772,-234 -220.772,-228 -214.772,-222 -208.772,-222"/>
<text text-anchor="middle" x="-170" y="-408.8" font-family="Times,serif" font-size="14.00">PartsController</text>
<polyline fill="none" stroke="black" points="-220.772,-402 -119.228,-402 "/>
<text text-anchor="start" x="-212.772" y="-386.8" font-family="Times,serif" font-size="14.00">create</text>
<text text-anchor="start" x="-212.772" y="-372.8" font-family="Times,serif" font-size="14.00">destroy</text>
<text text-anchor="start" x="-212.772" y="-358.8" font-family="Times,serif" font-size="14.00">edit</text>
<text text-anchor="start" x="-212.772" y="-344.8" font-family="Times,serif" font-size="14.00">index</text>
<text text-anchor="start" x="-212.772" y="-330.8" font-family="Times,serif" font-size="14.00">new</text>
<text text-anchor="start" x="-212.772" y="-316.8" font-family="Times,serif" font-size="14.00">show</text>
<text text-anchor="start" x="-212.772" y="-302.8" font-family="Times,serif" font-size="14.00">update</text>
<polyline fill="none" stroke="black" points="-220.772,-296 -119.228,-296 "/>
<polyline fill="none" stroke="black" points="-220.772,-272 -119.228,-272 "/>
<text text-anchor="start" x="-212.772" y="-256.8" font-family="Times,serif" font-size="14.00">_layout</text>
<text text-anchor="start" x="-212.772" y="-242.8" font-family="Times,serif" font-size="14.00">part_params</text>
<text text-anchor="start" x="-212.772" y="-228.8" font-family="Times,serif" font-size="14.00">set_part</text>
</g>
<!-- RegistrationsController -->
<g id="node6" class="node"><title>RegistrationsController</title>
<path fill="none" stroke="black" d="M-225.714,237C-225.714,237 -102.286,237 -102.286,237 -96.2861,237 -90.2861,231 -90.2861,225 -90.2861,225 -90.2861,159 -90.2861,159 -90.2861,153 -96.2861,147 -102.286,147 -102.286,147 -225.714,147 -225.714,147 -231.714,147 -237.714,153 -237.714,159 -237.714,159 -237.714,225 -237.714,225 -237.714,231 -231.714,237 -225.714,237"/>
<text text-anchor="middle" x="-164" y="162.2" font-family="Times,serif" font-size="14.00">RegistrationsController</text>
<polyline fill="none" stroke="black" points="-237.714,169 -90.2861,169 "/>
<polyline fill="none" stroke="black" points="-237.714,193 -90.2861,193 "/>
<text text-anchor="start" x="-229.714" y="208.2" font-family="Times,serif" font-size="14.00">after_sign_up_path_for</text>
<polyline fill="none" stroke="black" points="-237.714,215 -90.2861,215 "/>
<text text-anchor="start" x="-229.714" y="230.2" font-family="Times,serif" font-size="14.00">_layout</text>
</g>
<!-- ScoresController -->
<g id="node7" class="node"><title>ScoresController</title>
<path fill="none" stroke="black" d="M96.5654,84C96.5654,84 183.435,84 183.435,84 189.435,84 195.435,78 195.435,72 195.435,72 195.435,-120 195.435,-120 195.435,-126 189.435,-132 183.435,-132 183.435,-132 96.5654,-132 96.5654,-132 90.5654,-132 84.5654,-126 84.5654,-120 84.5654,-120 84.5654,72 84.5654,72 84.5654,78 90.5654,84 96.5654,84"/>
<text text-anchor="middle" x="140" y="-116.8" font-family="Times,serif" font-size="14.00">ScoresController</text>
<polyline fill="none" stroke="black" points="84.5654,-110 195.435,-110 "/>
<text text-anchor="start" x="92.5654" y="-94.8" font-family="Times,serif" font-size="14.00">create</text>
<text text-anchor="start" x="92.5654" y="-80.8" font-family="Times,serif" font-size="14.00">destroy</text>
<text text-anchor="start" x="92.5654" y="-66.8" font-family="Times,serif" font-size="14.00">edit</text>
<text text-anchor="start" x="92.5654" y="-52.8" font-family="Times,serif" font-size="14.00">index</text>
<text text-anchor="start" x="92.5654" y="-38.8" font-family="Times,serif" font-size="14.00">new</text>
<text text-anchor="start" x="92.5654" y="-24.8" font-family="Times,serif" font-size="14.00">show</text>
<text text-anchor="start" x="92.5654" y="-10.8" font-family="Times,serif" font-size="14.00">update</text>
<polyline fill="none" stroke="black" points="84.5654,-4 195.435,-4 "/>
<polyline fill="none" stroke="black" points="84.5654,20 195.435,20 "/>
<text text-anchor="start" x="92.5654" y="35.2" font-family="Times,serif" font-size="14.00">_layout</text>
<text text-anchor="start" x="92.5654" y="49.2" font-family="Times,serif" font-size="14.00">score_params</text>
<text text-anchor="start" x="92.5654" y="63.2" font-family="Times,serif" font-size="14.00">search_params</text>
<text text-anchor="start" x="92.5654" y="77.2" font-family="Times,serif" font-size="14.00">set_score</text>
</g>
<!-- UsersController -->
<g id="node8" class="node"><title>UsersController</title>
<path fill="none" stroke="black" d="M-191.714,84C-191.714,84 -110.286,84 -110.286,84 -104.286,84 -98.2861,78 -98.2861,72 -98.2861,72 -98.2861,-106 -98.2861,-106 -98.2861,-112 -104.286,-118 -110.286,-118 -110.286,-118 -191.714,-118 -191.714,-118 -197.714,-118 -203.714,-112 -203.714,-106 -203.714,-106 -203.714,72 -203.714,72 -203.714,78 -197.714,84 -191.714,84"/>
<text text-anchor="middle" x="-151" y="-102.8" font-family="Times,serif" font-size="14.00">UsersController</text>
<polyline fill="none" stroke="black" points="-203.714,-96 -98.2861,-96 "/>
<text text-anchor="start" x="-195.714" y="-80.8" font-family="Times,serif" font-size="14.00">create</text>
<text text-anchor="start" x="-195.714" y="-66.8" font-family="Times,serif" font-size="14.00">destroy</text>
<text text-anchor="start" x="-195.714" y="-52.8" font-family="Times,serif" font-size="14.00">edit</text>
<text text-anchor="start" x="-195.714" y="-38.8" font-family="Times,serif" font-size="14.00">index</text>
<text text-anchor="start" x="-195.714" y="-24.8" font-family="Times,serif" font-size="14.00">new</text>
<text text-anchor="start" x="-195.714" y="-10.8" font-family="Times,serif" font-size="14.00">show</text>
<text text-anchor="start" x="-195.714" y="3.2" font-family="Times,serif" font-size="14.00">update</text>
<polyline fill="none" stroke="black" points="-203.714,10 -98.2861,10 "/>
<polyline fill="none" stroke="black" points="-203.714,34 -98.2861,34 "/>
<text text-anchor="start" x="-195.714" y="49.2" font-family="Times,serif" font-size="14.00">_layout</text>
<text text-anchor="start" x="-195.714" y="63.2" font-family="Times,serif" font-size="14.00">set_user</text>
<text text-anchor="start" x="-195.714" y="77.2" font-family="Times,serif" font-size="14.00">user_params</text>
</g>
<!-- WelcomeController -->
<g id="node9" class="node"><title>WelcomeController</title>
<path fill="none" stroke="black" d="M181.967,305C181.967,305 284.033,305 284.033,305 290.033,305 296.033,299 296.033,293 296.033,293 296.033,225 296.033,225 296.033,219 290.033,213 284.033,213 284.033,213 181.967,213 181.967,213 175.967,213 169.967,219 169.967,225 169.967,225 169.967,293 169.967,293 169.967,299 175.967,305 181.967,305"/>
<text text-anchor="middle" x="233" y="228.2" font-family="Times,serif" font-size="14.00">WelcomeController</text>
<polyline fill="none" stroke="black" points="169.967,235 296.033,235 "/>
<polyline fill="none" stroke="black" points="169.967,259 296.033,259 "/>
<polyline fill="none" stroke="black" points="169.967,283 296.033,283 "/>
<text text-anchor="start" x="177.967" y="298.2" font-family="Times,serif" font-size="14.00">_layout</text>
</g>
<!-- WodsController -->
<g id="node10" class="node"><title>WodsController</title>
<path fill="none" stroke="black" d="M182.454,-171C182.454,-171 263.546,-171 263.546,-171 269.546,-171 275.546,-177 275.546,-183 275.546,-183 275.546,-361 275.546,-361 275.546,-367 269.546,-373 263.546,-373 263.546,-373 182.454,-373 182.454,-373 176.454,-373 170.454,-367 170.454,-361 170.454,-361 170.454,-183 170.454,-183 170.454,-177 176.454,-171 182.454,-171"/>
<text text-anchor="middle" x="223" y="-357.8" font-family="Times,serif" font-size="14.00">WodsController</text>
<polyline fill="none" stroke="black" points="170.454,-351 275.546,-351 "/>
<text text-anchor="start" x="178.454" y="-335.8" font-family="Times,serif" font-size="14.00">create</text>
<text text-anchor="start" x="178.454" y="-321.8" font-family="Times,serif" font-size="14.00">destroy</text>
<text text-anchor="start" x="178.454" y="-307.8" font-family="Times,serif" font-size="14.00">edit</text>
<text text-anchor="start" x="178.454" y="-293.8" font-family="Times,serif" font-size="14.00">index</text>
<text text-anchor="start" x="178.454" y="-279.8" font-family="Times,serif" font-size="14.00">new</text>
<text text-anchor="start" x="178.454" y="-265.8" font-family="Times,serif" font-size="14.00">show</text>
<text text-anchor="start" x="178.454" y="-251.8" font-family="Times,serif" font-size="14.00">update</text>
<polyline fill="none" stroke="black" points="170.454,-245 275.546,-245 "/>
<polyline fill="none" stroke="black" points="170.454,-221 275.546,-221 "/>
<text text-anchor="start" x="178.454" y="-205.8" font-family="Times,serif" font-size="14.00">_layout</text>
<text text-anchor="start" x="178.454" y="-191.8" font-family="Times,serif" font-size="14.00">set_wod</text>
<text text-anchor="start" x="178.454" y="-177.8" font-family="Times,serif" font-size="14.00">wod_params</text>
</g>
<!-- WorkoutsController -->
<g id="node11" class="node"><title>WorkoutsController</title>
<path fill="none" stroke="black" d="M-55.8223,118C-55.8223,118 47.8223,118 47.8223,118 53.8223,118 59.8223,112 59.8223,106 59.8223,106 59.8223,-100 59.8223,-100 59.8223,-106 53.8223,-112 47.8223,-112 47.8223,-112 -55.8223,-112 -55.8223,-112 -61.8223,-112 -67.8223,-106 -67.8223,-100 -67.8223,-100 -67.8223,106 -67.8223,106 -67.8223,112 -61.8223,118 -55.8223,118"/>
<text text-anchor="middle" x="-4" y="-96.8" font-family="Times,serif" font-size="14.00">WorkoutsController</text>
<polyline fill="none" stroke="black" points="-67.8223,-90 59.8223,-90 "/>
<text text-anchor="start" x="-59.8223" y="-74.8" font-family="Times,serif" font-size="14.00">create</text>
<text text-anchor="start" x="-59.8223" y="-60.8" font-family="Times,serif" font-size="14.00">destroy</text>
<text text-anchor="start" x="-59.8223" y="-46.8" font-family="Times,serif" font-size="14.00">edit</text>
<text text-anchor="start" x="-59.8223" y="-32.8" font-family="Times,serif" font-size="14.00">future</text>
<text text-anchor="start" x="-59.8223" y="-18.8" font-family="Times,serif" font-size="14.00">index</text>
<text text-anchor="start" x="-59.8223" y="-4.8" font-family="Times,serif" font-size="14.00">leaderboard</text>
<text text-anchor="start" x="-59.8223" y="9.2" font-family="Times,serif" font-size="14.00">new</text>
<text text-anchor="start" x="-59.8223" y="23.2" font-family="Times,serif" font-size="14.00">show</text>
<text text-anchor="start" x="-59.8223" y="37.2" font-family="Times,serif" font-size="14.00">update</text>
<polyline fill="none" stroke="black" points="-67.8223,44 59.8223,44 "/>
<polyline fill="none" stroke="black" points="-67.8223,68 59.8223,68 "/>
<text text-anchor="start" x="-59.8223" y="83.2" font-family="Times,serif" font-size="14.00">_layout</text>
<text text-anchor="start" x="-59.8223" y="97.2" font-family="Times,serif" font-size="14.00">set_workout</text>
<text text-anchor="start" x="-59.8223" y="111.2" font-family="Times,serif" font-size="14.00">workout_params</text>
</g>
</g>
</svg>
