<?xml version="1.0" encoding="UTF-8" standalone="no"?>
<!DOCTYPE svg PUBLIC "-//W3C//DTD SVG 1.1//EN"
 "http://www.w3.org/Graphics/SVG/1.1/DTD/svg11.dtd">
<!-- Generated by graphviz version 2.38.0 (20140413.2041)
 -->
<!-- Title: controllers_diagram Pages: 1 -->
<svg width="678pt" height="670pt"
 viewBox="0.00 0.00 677.85 670.00" xmlns="http://www.w3.org/2000/svg" xmlns:xlink="http://www.w3.org/1999/xlink">
<g id="graph0" class="graph" transform="scale(1 1) rotate(0) translate(241.821 428.5)">
<title>controllers_diagram</title>
<polygon fill="white" stroke="none" points="-241.821,241.5 -241.821,-428.5 436.033,-428.5 436.033,241.5 -241.821,241.5"/>
<!-- _diagram_info -->
<g id="node1" class="node"><title>_diagram_info</title>
<text text-anchor="start" x="229.312" y="-76.1" font-family="Times,serif" font-size="13.00">Controllers diagram</text>
<text text-anchor="start" x="229.312" y="-63.1" font-family="Times,serif" font-size="13.00">Date: Dec 13 2016 &#45; 12:33</text>
<text text-anchor="start" x="229.312" y="-50.1" font-family="Times,serif" font-size="13.00">Migration version: 20161213173234</text>
<text text-anchor="start" x="229.312" y="-37.1" font-family="Times,serif" font-size="13.00">Generated by RailRoady 1.3.0</text>
<text text-anchor="start" x="229.312" y="-24.1" font-family="Times,serif" font-size="13.00">http://railroady.prestonlee.com</text>
</g>
<!-- ApplicationController -->
<g id="node2" class="node"><title>ApplicationController</title>
<path fill="none" stroke="black" d="M-225.821,220C-225.821,220 -110.179,220 -110.179,220 -104.179,220 -98.1792,214 -98.1792,208 -98.1792,208 -98.1792,140 -98.1792,140 -98.1792,134 -104.179,128 -110.179,128 -110.179,128 -225.821,128 -225.821,128 -231.821,128 -237.821,134 -237.821,140 -237.821,140 -237.821,208 -237.821,208 -237.821,214 -231.821,220 -225.821,220"/>
<text text-anchor="middle" x="-168" y="143.2" font-family="Times,serif" font-size="14.00">ApplicationController</text>
<polyline fill="none" stroke="black" points="-237.821,150 -98.1792,150 "/>
<polyline fill="none" stroke="black" points="-237.821,174 -98.1792,174 "/>
<polyline fill="none" stroke="black" points="-237.821,198 -98.1792,198 "/>
<text text-anchor="start" x="-229.821" y="213.2" font-family="Times,serif" font-size="14.00">_layout</text>
</g>
<!-- CategoriesController -->
<g id="node3" class="node"><title>CategoriesController</title>
<path fill="none" stroke="black" d="M-72.707,-154C-72.707,-154 36.707,-154 36.707,-154 42.707,-154 48.707,-160 48.707,-166 48.707,-166 48.707,-344 48.707,-344 48.707,-350 42.707,-356 36.707,-356 36.707,-356 -72.707,-356 -72.707,-356 -78.707,-356 -84.707,-350 -84.707,-344 -84.707,-344 -84.707,-166 -84.707,-166 -84.707,-160 -78.707,-154 -72.707,-154"/>
<text text-anchor="middle" x="-18" y="-340.8" font-family="Times,serif" font-size="14.00">CategoriesController</text>
<polyline fill="none" stroke="black" points="-84.707,-334 48.707,-334 "/>
<text text-anchor="start" x="-76.707" y="-318.8" font-family="Times,serif" font-size="14.00">create</text>
<text text-anchor="start" x="-76.707" y="-304.8" font-family="Times,serif" font-size="14.00">destroy</text>
<text text-anchor="start" x="-76.707" y="-290.8" font-family="Times,serif" font-size="14.00">edit</text>
<text text-anchor="start" x="-76.707" y="-276.8" font-family="Times,serif" font-size="14.00">index</text>
<text text-anchor="start" x="-76.707" y="-262.8" font-family="Times,serif" font-size="14.00">new</text>
<text text-anchor="start" x="-76.707" y="-248.8" font-family="Times,serif" font-size="14.00">show</text>
<text text-anchor="start" x="-76.707" y="-234.8" font-family="Times,serif" font-size="14.00">update</text>
<polyline fill="none" stroke="black" points="-84.707,-228 48.707,-228 "/>
<polyline fill="none" stroke="black" points="-84.707,-204 48.707,-204 "/>
<text text-anchor="start" x="-76.707" y="-188.8" font-family="Times,serif" font-size="14.00">_layout</text>
<text text-anchor="start" x="-76.707" y="-174.8" font-family="Times,serif" font-size="14.00">category_params</text>
<text text-anchor="start" x="-76.707" y="-160.8" font-family="Times,serif" font-size="14.00">set_category</text>
</g>
<!-- LiftsController -->
<g id="node4" class="node"><title>LiftsController</title>
<path fill="none" stroke="black" d="M-191.993,101C-191.993,101 -116.007,101 -116.007,101 -110.007,101 -104.007,95 -104.007,89 -104.007,89 -104.007,-103 -104.007,-103 -104.007,-109 -110.007,-115 -116.007,-115 -116.007,-115 -191.993,-115 -191.993,-115 -197.993,-115 -203.993,-109 -203.993,-103 -203.993,-103 -203.993,89 -203.993,89 -203.993,95 -197.993,101 -191.993,101"/>
<text text-anchor="middle" x="-154" y="-99.8" font-family="Times,serif" font-size="14.00">LiftsController</text>
<polyline fill="none" stroke="black" points="-203.993,-93 -104.007,-93 "/>
<text text-anchor="start" x="-195.993" y="-77.8" font-family="Times,serif" font-size="14.00">create</text>
<text text-anchor="start" x="-195.993" y="-63.8" font-family="Times,serif" font-size="14.00">destroy</text>
<text text-anchor="start" x="-195.993" y="-49.8" font-family="Times,serif" font-size="14.00">edit</text>
<text text-anchor="start" x="-195.993" y="-35.8" font-family="Times,serif" font-size="14.00">index</text>
<text text-anchor="start" x="-195.993" y="-21.8" font-family="Times,serif" font-size="14.00">new</text>
<text text-anchor="start" x="-195.993" y="-7.8" font-family="Times,serif" font-size="14.00">show</text>
<text text-anchor="start" x="-195.993" y="6.2" font-family="Times,serif" font-size="14.00">update</text>
<polyline fill="none" stroke="black" points="-203.993,13 -104.007,13 "/>
<polyline fill="none" stroke="black" points="-203.993,37 -104.007,37 "/>
<text text-anchor="start" x="-195.993" y="52.2" font-family="Times,serif" font-size="14.00">_layout</text>
<text text-anchor="start" x="-195.993" y="66.2" font-family="Times,serif" font-size="14.00">generate_url</text>
<text text-anchor="start" x="-195.993" y="80.2" font-family="Times,serif" font-size="14.00">lift_params</text>
<text text-anchor="start" x="-195.993" y="94.2" font-family="Times,serif" font-size="14.00">set_lift</text>
</g>
<!-- PartsController -->
<g id="node5" class="node"><title>PartsController</title>
<path fill="none" stroke="black" d="M-208.772,-222C-208.772,-222 -131.228,-222 -131.228,-222 -125.228,-222 -119.228,-228 -119.228,-234 -119.228,-234 -119.228,-412 -119.228,-412 -119.228,-418 -125.228,-424 -131.228,-424 -131.228,-424 -208.772,-424 -208.772,-424 -214.772,-424 -220.772,-418 -220.772,-412 -220.772,-412 -220.772,-234 -220.772,-234 -220.772,-228 -214.772,-222 -208.772,-222"/>
<text text-anchor="middle" x="-170" y="-408.8" font-family="Times,serif" font-size="14.00">PartsController</text>
<polyline fill="none" stroke="black" points="-220.772,-402 -119.228,-402 "/>
<text text-anchor="start" x="-212.772" y="-386.8" font-family="Times,serif" font-size="14.00">create</text>
<text text-anchor="start" x="-212.772" y="-372.8" font-family="Times,serif" font-size="14.00">destroy</text>
<text text-anchor="start" x="-212.772" y="-358.8" font-family="Times,serif" font-size="14.00">edit</text>
<text text-anchor="start" x="-212.772" y="-344.8" font-family="Times,serif" font-size="14.00">index</text>
<text text-anchor="start" x="-212.772" y="-330.8" font-family="Times,serif" font-size="14.00">new</text>
<text text-anchor="start" x="-212.772" y="-316.8" font-family="Times,serif" font-size="14.00">show</text>
<text text-anchor="start" x="-212.772" y="-302.8" font-family="Times,serif" font-size="14.00">update</text>
<polyline fill="none" stroke="black" points="-220.772,-296 -119.228,-296 "/>
<polyline fill="none" stroke="black" points="-220.772,-272 -119.228,-272 "/>
<text text-anchor="start" x="-212.772" y="-256.8" font-family="Times,serif" font-size="14.00">_layout</text>
<text text-anchor="start" x="-212.772" y="-242.8" font-family="Times,serif" font-size="14.00">part_params</text>
<text text-anchor="start" x="-212.772" y="-228.8" font-family="Times,serif" font-size="14.00">set_part</text>
</g>
<!-- RegistrationsController -->
<g id="node6" class="node"><title>RegistrationsController</title>
<path fill="none" stroke="black" d="M12.2861,237C12.2861,237 135.714,237 135.714,237 141.714,237 147.714,231 147.714,225 147.714,225 147.714,159 147.714,159 147.714,153 141.714,147 135.714,147 135.714,147 12.2861,147 12.2861,147 6.28613,147 0.286133,153 0.286133,159 0.286133,159 0.286133,225 0.286133,225 0.286133,231 6.28613,237 12.2861,237"/>
<text text-anchor="middle" x="74" y="162.2" font-family="Times,serif" font-size="14.00">RegistrationsController</text>
<polyline fill="none" stroke="black" points="0.286133,169 147.714,169 "/>
<polyline fill="none" stroke="black" points="0.286133,193 147.714,193 "/>
<text text-anchor="start" x="8.28613" y="208.2" font-family="Times,serif" font-size="14.00">after_sign_up_path_for</text>
<polyline fill="none" stroke="black" points="0.286133,215 147.714,215 "/>
<text text-anchor="start" x="8.28613" y="230.2" font-family="Times,serif" font-size="14.00">_layout</text>
</g>
<!-- ScoresController -->
<g id="node7" class="node"><title>ScoresController</title>
<path fill="none" stroke="black" d="M96.5654,84C96.5654,84 183.435,84 183.435,84 189.435,84 195.435,78 195.435,72 195.435,72 195.435,-120 195.435,-120 195.435,-126 189.435,-132 183.435,-132 183.435,-132 96.5654,-132 96.5654,-132 90.5654,-132 84.5654,-126 84.5654,-120 84.5654,-120 84.5654,72 84.5654,72 84.5654,78 90.5654,84 96.5654,84"/>
<text text-anchor="middle" x="140" y="-116.8" font-family="Times,serif" font-size="14.00">ScoresController</text>
<polyline fill="none" stroke="black" points="84.5654,-110 195.435,-110 "/>
<text text-anchor="start" x="92.5654" y="-94.8" font-family="Times,serif" font-size="14.00">create</text>
<text text-anchor="start" x="92.5654" y="-80.8" font-family="Times,serif" font-size="14.00">destroy</text>
<text text-anchor="start" x="92.5654" y="-66.8" font-family="Times,serif" font-size="14.00">edit</text>
<text text-anchor="start" x="92.5654" y="-52.8" font-family="Times,serif" font-size="14.00">index</text>
<text text-anchor="start" x="92.5654" y="-38.8" font-family="Times,serif" font-size="14.00">new</text>
<text text-anchor="start" x="92.5654" y="-24.8" font-family="Times,serif" font-size="14.00">show</text>
<text text-anchor="start" x="92.5654" y="-10.8" font-family="Times,serif" font-size="14.00">update</text>
<polyline fill="none" stroke="black" points="84.5654,-4 195.435,-4 "/>
<polyline fill="none" stroke="black" points="84.5654,20 195.435,20 "/>
<text text-anchor="start" x="92.5654" y="35.2" font-family="Times,serif" font-size="14.00">_layout</text>
<text text-anchor="start" x="92.5654" y="49.2" font-family="Times,serif" font-size="14.00">score_params</text>
<text text-anchor="start" x="92.5654" y="63.2" font-family="Times,serif" font-size="14.00">search_params</text>
<text text-anchor="start" x="92.5654" y="77.2" font-family="Times,serif" font-size="14.00">set_score</text>
</g>
<!-- UsersController -->
<g id="node8" class="node"><title>UsersController</title>
<path fill="none" stroke="black" d="M182.286,-171C182.286,-171 263.714,-171 263.714,-171 269.714,-171 275.714,-177 275.714,-183 275.714,-183 275.714,-361 275.714,-361 275.714,-367 269.714,-373 263.714,-373 263.714,-373 182.286,-373 182.286,-373 176.286,-373 170.286,-367 170.286,-361 170.286,-361 170.286,-183 170.286,-183 170.286,-177 176.286,-171 182.286,-171"/>
<text text-anchor="middle" x="223" y="-357.8" font-family="Times,serif" font-size="14.00">UsersController</text>
<polyline fill="none" stroke="black" points="170.286,-351 275.714,-351 "/>
<text text-anchor="start" x="178.286" y="-335.8" font-family="Times,serif" font-size="14.00">create</text>
<text text-anchor="start" x="178.286" y="-321.8" font-family="Times,serif" font-size="14.00">destroy</text>
<text text-anchor="start" x="178.286" y="-307.8" font-family="Times,serif" font-size="14.00">edit</text>
<text text-anchor="start" x="178.286" y="-293.8" font-family="Times,serif" font-size="14.00">index</text>
<text text-anchor="start" x="178.286" y="-279.8" font-family="Times,serif" font-size="14.00">new</text>
<text text-anchor="start" x="178.286" y="-265.8" font-family="Times,serif" font-size="14.00">show</text>
<text text-anchor="start" x="178.286" y="-251.8" font-family="Times,serif" font-size="14.00">update</text>
<polyline fill="none" stroke="black" points="170.286,-245 275.714,-245 "/>
<polyline fill="none" stroke="black" points="170.286,-221 275.714,-221 "/>
<text text-anchor="start" x="178.286" y="-205.8" font-family="Times,serif" font-size="14.00">_layout</text>
<text text-anchor="start" x="178.286" y="-191.8" font-family="Times,serif" font-size="14.00">set_user</text>
<text text-anchor="start" x="178.286" y="-177.8" font-family="Times,serif" font-size="14.00">user_params</text>
</g>
<!-- WelcomeController -->
<g id="node9" class="node"><title>WelcomeController</title>
<path fill="none" stroke="black" d="M317.967,-120C317.967,-120 420.033,-120 420.033,-120 426.033,-120 432.033,-126 432.033,-132 432.033,-132 432.033,-200 432.033,-200 432.033,-206 426.033,-212 420.033,-212 420.033,-212 317.967,-212 317.967,-212 311.967,-212 305.967,-206 305.967,-200 305.967,-200 305.967,-132 305.967,-132 305.967,-126 311.967,-120 317.967,-120"/>
<text text-anchor="middle" x="369" y="-196.8" font-family="Times,serif" font-size="14.00">WelcomeController</text>
<polyline fill="none" stroke="black" points="305.967,-190 432.033,-190 "/>
<polyline fill="none" stroke="black" points="305.967,-166 432.033,-166 "/>
<polyline fill="none" stroke="black" points="305.967,-142 432.033,-142 "/>
<text text-anchor="start" x="313.967" y="-126.8" font-family="Times,serif" font-size="14.00">_layout</text>
</g>
<!-- WodsController -->
<g id="node10" class="node"><title>WodsController</title>
<path fill="none" stroke="black" d="M233.454,220C233.454,220 314.546,220 314.546,220 320.546,220 326.546,214 326.546,208 326.546,208 326.546,30 326.546,30 326.546,24 320.546,18 314.546,18 314.546,18 233.454,18 233.454,18 227.454,18 221.454,24 221.454,30 221.454,30 221.454,208 221.454,208 221.454,214 227.454,220 233.454,220"/>
<text text-anchor="middle" x="274" y="33.2" font-family="Times,serif" font-size="14.00">WodsController</text>
<polyline fill="none" stroke="black" points="221.454,40 326.546,40 "/>
<text text-anchor="start" x="229.454" y="55.2" font-family="Times,serif" font-size="14.00">create</text>
<text text-anchor="start" x="229.454" y="69.2" font-family="Times,serif" font-size="14.00">destroy</text>
<text text-anchor="start" x="229.454" y="83.2" font-family="Times,serif" font-size="14.00">edit</text>
<text text-anchor="start" x="229.454" y="97.2" font-family="Times,serif" font-size="14.00">index</text>
<text text-anchor="start" x="229.454" y="111.2" font-family="Times,serif" font-size="14.00">new</text>
<text text-anchor="start" x="229.454" y="125.2" font-family="Times,serif" font-size="14.00">show</text>
<text text-anchor="start" x="229.454" y="139.2" font-family="Times,serif" font-size="14.00">update</text>
<polyline fill="none" stroke="black" points="221.454,146 326.546,146 "/>
<polyline fill="none" stroke="black" points="221.454,170 326.546,170 "/>
<text text-anchor="start" x="229.454" y="185.2" font-family="Times,serif" font-size="14.00">_layout</text>
<text text-anchor="start" x="229.454" y="199.2" font-family="Times,serif" font-size="14.00">set_wod</text>
<text text-anchor="start" x="229.454" y="213.2" font-family="Times,serif" font-size="14.00">wod_params</text>
</g>
<!-- WorkoutsController -->
<g id="node11" class="node"><title>WorkoutsController</title>
<path fill="none" stroke="black" d="M-55.8223,118C-55.8223,118 47.8223,118 47.8223,118 53.8223,118 59.8223,112 59.8223,106 59.8223,106 59.8223,-100 59.8223,-100 59.8223,-106 53.8223,-112 47.8223,-112 47.8223,-112 -55.8223,-112 -55.8223,-112 -61.8223,-112 -67.8223,-106 -67.8223,-100 -67.8223,-100 -67.8223,106 -67.8223,106 -67.8223,112 -61.8223,118 -55.8223,118"/>
<text text-anchor="middle" x="-4" y="-96.8" font-family="Times,serif" font-size="14.00">WorkoutsController</text>
<polyline fill="none" stroke="black" points="-67.8223,-90 59.8223,-90 "/>
<text text-anchor="start" x="-59.8223" y="-74.8" font-family="Times,serif" font-size="14.00">create</text>
<text text-anchor="start" x="-59.8223" y="-60.8" font-family="Times,serif" font-size="14.00">destroy</text>
<text text-anchor="start" x="-59.8223" y="-46.8" font-family="Times,serif" font-size="14.00">edit</text>
<text text-anchor="start" x="-59.8223" y="-32.8" font-family="Times,serif" font-size="14.00">future</text>
<text text-anchor="start" x="-59.8223" y="-18.8" font-family="Times,serif" font-size="14.00">index</text>
<text text-anchor="start" x="-59.8223" y="-4.8" font-family="Times,serif" font-size="14.00">leaderboard</text>
<text text-anchor="start" x="-59.8223" y="9.2" font-family="Times,serif" font-size="14.00">new</text>
<text text-anchor="start" x="-59.8223" y="23.2" font-family="Times,serif" font-size="14.00">show</text>
<text text-anchor="start" x="-59.8223" y="37.2" font-family="Times,serif" font-size="14.00">update</text>
<polyline fill="none" stroke="black" points="-67.8223,44 59.8223,44 "/>
<polyline fill="none" stroke="black" points="-67.8223,68 59.8223,68 "/>
<text text-anchor="start" x="-59.8223" y="83.2" font-family="Times,serif" font-size="14.00">_layout</text>
<text text-anchor="start" x="-59.8223" y="97.2" font-family="Times,serif" font-size="14.00">set_workout</text>
<text text-anchor="start" x="-59.8223" y="111.2" font-family="Times,serif" font-size="14.00">workout_params</text>
</g>
</g>
</svg>
