<?xml version="1.0" encoding="UTF-8" standalone="no"?>
<!DOCTYPE svg PUBLIC "-//W3C//DTD SVG 1.1//EN"
 "http://www.w3.org/Graphics/SVG/1.1/DTD/svg11.dtd">
<!-- Generated by graphviz version 2.38.0 (20140413.2041)
 -->
<!-- Title: models_diagram Pages: 1 -->
<svg width="757pt" height="951pt"
 viewBox="0.00 0.00 756.50 951.00" xmlns="http://www.w3.org/2000/svg" xmlns:xlink="http://www.w3.org/1999/xlink">
<g id="graph0" class="graph" transform="scale(1 1) rotate(0) translate(4 947)">
<title>models_diagram</title>
<polygon fill="white" stroke="none" points="-4,4 -4,-947 752.501,-947 752.501,4 -4,4"/>
<!-- _diagram_info -->
<g id="node1" class="node"><title>_diagram_info</title>
<text text-anchor="start" x="8" y="-858.6" font-family="Times,serif" font-size="13.00">Models diagram</text>
<text text-anchor="start" x="8" y="-845.6" font-family="Times,serif" font-size="13.00">Date: Feb 02 2016 &#45; 08:49</text>
<text text-anchor="start" x="8" y="-832.6" font-family="Times,serif" font-size="13.00">Migration version: 20160201142341</text>
<text text-anchor="start" x="8" y="-819.6" font-family="Times,serif" font-size="13.00">Generated by RailRoady 1.3.0</text>
<text text-anchor="start" x="8" y="-806.6" font-family="Times,serif" font-size="13.00">http://railroady.prestonlee.com</text>
</g>
<!-- Admin -->
<g id="node2" class="node"><title>Admin</title>
<path fill="none" stroke="black" d="M237.172,-730.5C237.172,-730.5 417.728,-730.5 417.728,-730.5 423.728,-730.5 429.728,-736.5 429.728,-742.5 429.728,-742.5 429.728,-930.5 429.728,-930.5 429.728,-936.5 423.728,-942.5 417.728,-942.5 417.728,-942.5 237.172,-942.5 237.172,-942.5 231.172,-942.5 225.172,-936.5 225.172,-930.5 225.172,-930.5 225.172,-742.5 225.172,-742.5 225.172,-736.5 231.172,-730.5 237.172,-730.5"/>
<text text-anchor="middle" x="327.45" y="-927.3" font-family="Times,serif" font-size="14.00">Admin</text>
<polyline fill="none" stroke="black" points="225.172,-920.5 429.728,-920.5 "/>
<text text-anchor="start" x="233.172" y="-905.3" font-family="Times,serif" font-size="14.00">id :integer</text>
<text text-anchor="start" x="233.172" y="-891.3" font-family="Times,serif" font-size="14.00">email :string</text>
<text text-anchor="start" x="233.172" y="-877.3" font-family="Times,serif" font-size="14.00">encrypted_password :string</text>
<text text-anchor="start" x="233.172" y="-863.3" font-family="Times,serif" font-size="14.00">reset_password_token :string</text>
<text text-anchor="start" x="233.172" y="-849.3" font-family="Times,serif" font-size="14.00">reset_password_sent_at :datetime</text>
<text text-anchor="start" x="233.172" y="-835.3" font-family="Times,serif" font-size="14.00">remember_created_at :datetime</text>
<text text-anchor="start" x="233.172" y="-821.3" font-family="Times,serif" font-size="14.00">sign_in_count :integer</text>
<text text-anchor="start" x="233.172" y="-807.3" font-family="Times,serif" font-size="14.00">current_sign_in_at :datetime</text>
<text text-anchor="start" x="233.172" y="-793.3" font-family="Times,serif" font-size="14.00">last_sign_in_at :datetime</text>
<text text-anchor="start" x="233.172" y="-779.3" font-family="Times,serif" font-size="14.00">current_sign_in_ip :inet</text>
<text text-anchor="start" x="233.172" y="-765.3" font-family="Times,serif" font-size="14.00">last_sign_in_ip :inet</text>
<text text-anchor="start" x="233.172" y="-751.3" font-family="Times,serif" font-size="14.00">created_at :datetime</text>
<text text-anchor="start" x="233.172" y="-737.3" font-family="Times,serif" font-size="14.00">updated_at :datetime</text>
</g>
<!-- Workout -->
<g id="node12" class="node"><title>Workout</title>
<path fill="none" stroke="black" d="M265.165,-579.5C265.165,-579.5 389.734,-579.5 389.734,-579.5 395.734,-579.5 401.734,-585.5 401.734,-591.5 401.734,-591.5 401.734,-681.5 401.734,-681.5 401.734,-687.5 395.734,-693.5 389.734,-693.5 389.734,-693.5 265.165,-693.5 265.165,-693.5 259.165,-693.5 253.165,-687.5 253.165,-681.5 253.165,-681.5 253.165,-591.5 253.165,-591.5 253.165,-585.5 259.165,-579.5 265.165,-579.5"/>
<text text-anchor="middle" x="327.45" y="-678.3" font-family="Times,serif" font-size="14.00">Workout</text>
<polyline fill="none" stroke="black" points="253.165,-671.5 401.734,-671.5 "/>
<text text-anchor="start" x="261.165" y="-656.3" font-family="Times,serif" font-size="14.00">id :integer</text>
<text text-anchor="start" x="261.165" y="-642.3" font-family="Times,serif" font-size="14.00">title :string</text>
<text text-anchor="start" x="261.165" y="-628.3" font-family="Times,serif" font-size="14.00">admin_id :integer</text>
<text text-anchor="start" x="261.165" y="-614.3" font-family="Times,serif" font-size="14.00">created_at :datetime</text>
<text text-anchor="start" x="261.165" y="-600.3" font-family="Times,serif" font-size="14.00">updated_at :datetime</text>
<text text-anchor="start" x="261.165" y="-586.3" font-family="Times,serif" font-size="14.00">workout_date :datetime</text>
</g>
<!-- Admin&#45;&gt;Workout -->
<g id="edge1" class="edge"><title>Admin&#45;&gt;Workout</title>
<path fill="none" stroke="#7425dd" d="M327.45,-722.119C327.45,-715.975 327.45,-709.907 327.45,-704.012"/>
<ellipse fill="none" stroke="#7425dd" cx="327.45" cy="-726.413" rx="4" ry="4"/>
<polygon fill="#7425dd" stroke="#7425dd" points="327.45,-703.609 331.95,-693.608 327.45,-698.609 327.45,-693.609 327.45,-693.609 327.45,-693.609 327.45,-698.609 322.95,-693.609 327.45,-703.609 327.45,-703.609"/>
</g>
<!-- AdminAbility -->
<g id="node3" class="node"><title>AdminAbility</title>
<polygon fill="none" stroke="black" points="448.17,-814.5 448.17,-858.5 542.729,-858.5 542.729,-814.5 448.17,-814.5"/>
<text text-anchor="middle" x="495.45" y="-843.3" font-family="Times,serif" font-size="14.00">AdminAbility</text>
<polyline fill="none" stroke="black" points="448.17,-836.5 542.729,-836.5 "/>
<text text-anchor="middle" x="495.45" y="-821.3" font-family="Times,serif" font-size="14.00"> </text>
</g>
<!-- Category -->
<g id="node4" class="node"><title>Category</title>
<path fill="none" stroke="black" d="M121.944,-442.5C121.944,-442.5 230.955,-442.5 230.955,-442.5 236.955,-442.5 242.955,-448.5 242.955,-454.5 242.955,-454.5 242.955,-530.5 242.955,-530.5 242.955,-536.5 236.955,-542.5 230.955,-542.5 230.955,-542.5 121.944,-542.5 121.944,-542.5 115.944,-542.5 109.944,-536.5 109.944,-530.5 109.944,-530.5 109.944,-454.5 109.944,-454.5 109.944,-448.5 115.944,-442.5 121.944,-442.5"/>
<text text-anchor="middle" x="176.45" y="-527.3" font-family="Times,serif" font-size="14.00">Category</text>
<polyline fill="none" stroke="black" points="109.944,-520.5 242.955,-520.5 "/>
<text text-anchor="start" x="117.944" y="-505.3" font-family="Times,serif" font-size="14.00">id :integer</text>
<text text-anchor="start" x="117.944" y="-491.3" font-family="Times,serif" font-size="14.00">name :string</text>
<text text-anchor="start" x="117.944" y="-477.3" font-family="Times,serif" font-size="14.00">style :integer</text>
<text text-anchor="start" x="117.944" y="-463.3" font-family="Times,serif" font-size="14.00">created_at :datetime</text>
<text text-anchor="start" x="117.944" y="-449.3" font-family="Times,serif" font-size="14.00">updated_at :datetime</text>
</g>
<!-- Lift -->
<g id="node6" class="node"><title>Lift</title>
<path fill="none" stroke="black" d="M121.944,-200.5C121.944,-200.5 230.955,-200.5 230.955,-200.5 236.955,-200.5 242.955,-206.5 242.955,-212.5 242.955,-212.5 242.955,-372.5 242.955,-372.5 242.955,-378.5 236.955,-384.5 230.955,-384.5 230.955,-384.5 121.944,-384.5 121.944,-384.5 115.944,-384.5 109.944,-378.5 109.944,-372.5 109.944,-372.5 109.944,-212.5 109.944,-212.5 109.944,-206.5 115.944,-200.5 121.944,-200.5"/>
<text text-anchor="middle" x="176.45" y="-369.3" font-family="Times,serif" font-size="14.00">Lift</text>
<polyline fill="none" stroke="black" points="109.944,-362.5 242.955,-362.5 "/>
<text text-anchor="start" x="117.944" y="-347.3" font-family="Times,serif" font-size="14.00">id :integer</text>
<text text-anchor="start" x="117.944" y="-333.3" font-family="Times,serif" font-size="14.00">description :string</text>
<text text-anchor="start" x="117.944" y="-319.3" font-family="Times,serif" font-size="14.00">rep_count :integer</text>
<text text-anchor="start" x="117.944" y="-305.3" font-family="Times,serif" font-size="14.00">created_at :datetime</text>
<text text-anchor="start" x="117.944" y="-291.3" font-family="Times,serif" font-size="14.00">updated_at :datetime</text>
<text text-anchor="start" x="117.944" y="-277.3" font-family="Times,serif" font-size="14.00">part_id :integer</text>
<text text-anchor="start" x="117.944" y="-263.3" font-family="Times,serif" font-size="14.00">style :integer</text>
<text text-anchor="start" x="117.944" y="-249.3" font-family="Times,serif" font-size="14.00">category_id :integer</text>
<text text-anchor="start" x="117.944" y="-235.3" font-family="Times,serif" font-size="14.00">timing :string</text>
<text text-anchor="start" x="117.944" y="-221.3" font-family="Times,serif" font-size="14.00">max :boolean</text>
<text text-anchor="start" x="117.944" y="-207.3" font-family="Times,serif" font-size="14.00">summary :text</text>
</g>
<!-- Category&#45;&gt;Lift -->
<g id="edge2" class="edge"><title>Category&#45;&gt;Lift</title>
<path fill="none" stroke="#66082e" d="M176.45,-433.894C176.45,-421.574 176.45,-408.21 176.45,-394.791"/>
<ellipse fill="none" stroke="#66082e" cx="176.45" cy="-438.302" rx="4" ry="4"/>
<polygon fill="#66082e" stroke="#66082e" points="176.45,-394.534 180.95,-384.534 176.45,-389.534 176.45,-384.534 176.45,-384.534 176.45,-384.534 176.45,-389.534 171.95,-384.534 176.45,-394.534 176.45,-394.534"/>
</g>
<!-- GuestAbility -->
<g id="node5" class="node"><title>GuestAbility</title>
<polygon fill="none" stroke="black" points="560.284,-814.5 560.284,-858.5 648.615,-858.5 648.615,-814.5 560.284,-814.5"/>
<text text-anchor="middle" x="604.45" y="-843.3" font-family="Times,serif" font-size="14.00">GuestAbility</text>
<polyline fill="none" stroke="black" points="560.284,-836.5 648.615,-836.5 "/>
<text text-anchor="middle" x="604.45" y="-821.3" font-family="Times,serif" font-size="14.00"> </text>
</g>
<!-- Score -->
<g id="node8" class="node"><title>Score</title>
<path fill="none" stroke="black" d="M272.944,-0.5C272.944,-0.5 381.955,-0.5 381.955,-0.5 387.955,-0.5 393.955,-6.5 393.955,-12.5 393.955,-12.5 393.955,-130.5 393.955,-130.5 393.955,-136.5 387.955,-142.5 381.955,-142.5 381.955,-142.5 272.944,-142.5 272.944,-142.5 266.944,-142.5 260.944,-136.5 260.944,-130.5 260.944,-130.5 260.944,-12.5 260.944,-12.5 260.944,-6.5 266.944,-0.5 272.944,-0.5"/>
<text text-anchor="middle" x="327.45" y="-127.3" font-family="Times,serif" font-size="14.00">Score</text>
<polyline fill="none" stroke="black" points="260.944,-120.5 393.955,-120.5 "/>
<text text-anchor="start" x="268.944" y="-105.3" font-family="Times,serif" font-size="14.00">id :integer</text>
<text text-anchor="start" x="268.944" y="-91.3" font-family="Times,serif" font-size="14.00">result :string</text>
<text text-anchor="start" x="268.944" y="-77.3" font-family="Times,serif" font-size="14.00">user_id :integer</text>
<text text-anchor="start" x="268.944" y="-63.3" font-family="Times,serif" font-size="14.00">lift_id :integer</text>
<text text-anchor="start" x="268.944" y="-49.3" font-family="Times,serif" font-size="14.00">wod_id :integer</text>
<text text-anchor="start" x="268.944" y="-35.3" font-family="Times,serif" font-size="14.00">created_at :datetime</text>
<text text-anchor="start" x="268.944" y="-21.3" font-family="Times,serif" font-size="14.00">updated_at :datetime</text>
<text text-anchor="start" x="268.944" y="-7.3" font-family="Times,serif" font-size="14.00">rx :boolean</text>
</g>
<!-- Lift&#45;&gt;Score -->
<g id="edge3" class="edge"><title>Lift&#45;&gt;Score</title>
<path fill="none" stroke="#54ab0c" d="M241.406,-193.658C244.788,-188.691 248.151,-183.782 251.45,-179 257.735,-169.89 264.381,-160.389 271.022,-150.977"/>
<ellipse fill="none" stroke="#54ab0c" cx="239.033" cy="-197.151" rx="4.00002" ry="4.00002"/>
<polygon fill="#54ab0c" stroke="#54ab0c" points="271.074,-150.904 280.522,-145.339 273.961,-146.822 276.849,-142.74 276.849,-142.74 276.849,-142.74 273.961,-146.822 273.175,-140.141 271.074,-150.904 271.074,-150.904"/>
</g>
<!-- Part -->
<g id="node7" class="node"><title>Part</title>
<path fill="none" stroke="black" d="M272.944,-442.5C272.944,-442.5 381.955,-442.5 381.955,-442.5 387.955,-442.5 393.955,-448.5 393.955,-454.5 393.955,-454.5 393.955,-530.5 393.955,-530.5 393.955,-536.5 387.955,-542.5 381.955,-542.5 381.955,-542.5 272.944,-542.5 272.944,-542.5 266.944,-542.5 260.944,-536.5 260.944,-530.5 260.944,-530.5 260.944,-454.5 260.944,-454.5 260.944,-448.5 266.944,-442.5 272.944,-442.5"/>
<text text-anchor="middle" x="327.45" y="-527.3" font-family="Times,serif" font-size="14.00">Part</text>
<polyline fill="none" stroke="black" points="260.944,-520.5 393.955,-520.5 "/>
<text text-anchor="start" x="268.944" y="-505.3" font-family="Times,serif" font-size="14.00">id :integer</text>
<text text-anchor="start" x="268.944" y="-491.3" font-family="Times,serif" font-size="14.00">workout_id :integer</text>
<text text-anchor="start" x="268.944" y="-477.3" font-family="Times,serif" font-size="14.00">created_at :datetime</text>
<text text-anchor="start" x="268.944" y="-463.3" font-family="Times,serif" font-size="14.00">updated_at :datetime</text>
<text text-anchor="start" x="268.944" y="-449.3" font-family="Times,serif" font-size="14.00">style :integer</text>
</g>
<!-- Part&#45;&gt;Lift -->
<g id="edge4" class="edge"><title>Part&#45;&gt;Lift</title>
<path fill="none" stroke="#a2d224" d="M276.336,-436.23C267.786,-426.361 259.187,-416.025 251.45,-406 248.133,-401.703 244.804,-397.264 241.491,-392.744"/>
<ellipse fill="none" stroke="#a2d224" cx="279.014" cy="-439.296" rx="4.00002" ry="4.00002"/>
<polygon fill="#a2d224" stroke="#a2d224" points="241.413,-392.637 239.198,-381.897 238.482,-388.585 235.552,-384.534 235.552,-384.534 235.552,-384.534 238.482,-388.585 231.906,-387.172 241.413,-392.637 241.413,-392.637"/>
</g>
<!-- Wod -->
<g id="node11" class="node"><title>Wod</title>
<path fill="none" stroke="black" d="M272.944,-228.5C272.944,-228.5 381.955,-228.5 381.955,-228.5 387.955,-228.5 393.955,-234.5 393.955,-240.5 393.955,-240.5 393.955,-344.5 393.955,-344.5 393.955,-350.5 387.955,-356.5 381.955,-356.5 381.955,-356.5 272.944,-356.5 272.944,-356.5 266.944,-356.5 260.944,-350.5 260.944,-344.5 260.944,-344.5 260.944,-240.5 260.944,-240.5 260.944,-234.5 266.944,-228.5 272.944,-228.5"/>
<text text-anchor="middle" x="327.45" y="-341.3" font-family="Times,serif" font-size="14.00">Wod</text>
<polyline fill="none" stroke="black" points="260.944,-334.5 393.955,-334.5 "/>
<text text-anchor="start" x="268.944" y="-319.3" font-family="Times,serif" font-size="14.00">id :integer</text>
<text text-anchor="start" x="268.944" y="-305.3" font-family="Times,serif" font-size="14.00">description :text</text>
<text text-anchor="start" x="268.944" y="-291.3" font-family="Times,serif" font-size="14.00">result_label :string</text>
<text text-anchor="start" x="268.944" y="-277.3" font-family="Times,serif" font-size="14.00">created_at :datetime</text>
<text text-anchor="start" x="268.944" y="-263.3" font-family="Times,serif" font-size="14.00">updated_at :datetime</text>
<text text-anchor="start" x="268.944" y="-249.3" font-family="Times,serif" font-size="14.00">title :string</text>
<text text-anchor="start" x="268.944" y="-235.3" font-family="Times,serif" font-size="14.00">part_id :integer</text>
</g>
<!-- Part&#45;&gt;Wod -->
<g id="edge5" class="edge"><title>Part&#45;&gt;Wod</title>
<path fill="none" stroke="#ea7c2b" d="M327.45,-434.236C327.45,-413.182 327.45,-389.044 327.45,-366.773"/>
<ellipse fill="none" stroke="#ea7c2b" cx="327.45" cy="-438.302" rx="4" ry="4"/>
<polygon fill="#ea7c2b" stroke="#ea7c2b" points="327.45,-366.69 331.95,-356.69 327.45,-361.69 327.45,-356.69 327.45,-356.69 327.45,-356.69 327.45,-361.69 322.95,-356.69 327.45,-366.69 327.45,-366.69"/>
</g>
<!-- User -->
<g id="node9" class="node"><title>User</title>
<path fill="none" stroke="black" d="M424.172,-179.5C424.172,-179.5 604.728,-179.5 604.728,-179.5 610.728,-179.5 616.728,-185.5 616.728,-191.5 616.728,-191.5 616.728,-393.5 616.728,-393.5 616.728,-399.5 610.728,-405.5 604.728,-405.5 604.728,-405.5 424.172,-405.5 424.172,-405.5 418.172,-405.5 412.172,-399.5 412.172,-393.5 412.172,-393.5 412.172,-191.5 412.172,-191.5 412.172,-185.5 418.172,-179.5 424.172,-179.5"/>
<text text-anchor="middle" x="514.45" y="-390.3" font-family="Times,serif" font-size="14.00">User</text>
<polyline fill="none" stroke="black" points="412.172,-383.5 616.728,-383.5 "/>
<text text-anchor="start" x="420.172" y="-368.3" font-family="Times,serif" font-size="14.00">id :integer</text>
<text text-anchor="start" x="420.172" y="-354.3" font-family="Times,serif" font-size="14.00">email :string</text>
<text text-anchor="start" x="420.172" y="-340.3" font-family="Times,serif" font-size="14.00">encrypted_password :string</text>
<text text-anchor="start" x="420.172" y="-326.3" font-family="Times,serif" font-size="14.00">reset_password_token :string</text>
<text text-anchor="start" x="420.172" y="-312.3" font-family="Times,serif" font-size="14.00">reset_password_sent_at :datetime</text>
<text text-anchor="start" x="420.172" y="-298.3" font-family="Times,serif" font-size="14.00">remember_created_at :datetime</text>
<text text-anchor="start" x="420.172" y="-284.3" font-family="Times,serif" font-size="14.00">sign_in_count :integer</text>
<text text-anchor="start" x="420.172" y="-270.3" font-family="Times,serif" font-size="14.00">current_sign_in_at :datetime</text>
<text text-anchor="start" x="420.172" y="-256.3" font-family="Times,serif" font-size="14.00">last_sign_in_at :datetime</text>
<text text-anchor="start" x="420.172" y="-242.3" font-family="Times,serif" font-size="14.00">current_sign_in_ip :inet</text>
<text text-anchor="start" x="420.172" y="-228.3" font-family="Times,serif" font-size="14.00">last_sign_in_ip :inet</text>
<text text-anchor="start" x="420.172" y="-214.3" font-family="Times,serif" font-size="14.00">created_at :datetime</text>
<text text-anchor="start" x="420.172" y="-200.3" font-family="Times,serif" font-size="14.00">updated_at :datetime</text>
<text text-anchor="start" x="420.172" y="-186.3" font-family="Times,serif" font-size="14.00">username :string</text>
</g>
<!-- User&#45;&gt;Score -->
<g id="edge6" class="edge"><title>User&#45;&gt;Score</title>
<path fill="none" stroke="#f30e63" d="M413.501,-173.277C406.953,-165.609 400.455,-157.998 394.135,-150.596"/>
<ellipse fill="none" stroke="#f30e63" cx="416.161" cy="-176.392" rx="4.00002" ry="4.00002"/>
<polygon fill="#f30e63" stroke="#f30e63" points="393.847,-150.259 390.775,-139.732 390.6,-146.457 387.353,-142.654 387.353,-142.654 387.353,-142.654 390.6,-146.457 383.931,-145.576 393.847,-150.259 393.847,-150.259"/>
</g>
<!-- UserAbility -->
<g id="node10" class="node"><title>UserAbility</title>
<polygon fill="none" stroke="black" points="666.398,-814.5 666.398,-858.5 748.501,-858.5 748.501,-814.5 666.398,-814.5"/>
<text text-anchor="middle" x="707.45" y="-843.3" font-family="Times,serif" font-size="14.00">UserAbility</text>
<polyline fill="none" stroke="black" points="666.398,-836.5 748.501,-836.5 "/>
<text text-anchor="middle" x="707.45" y="-821.3" font-family="Times,serif" font-size="14.00"> </text>
</g>
<!-- Wod&#45;&gt;Score -->
<g id="edge7" class="edge"><title>Wod&#45;&gt;Score</title>
<path fill="none" stroke="#57fe86" d="M327.45,-220.156C327.45,-198.631 327.45,-174.858 327.45,-152.792"/>
<ellipse fill="none" stroke="#57fe86" cx="327.45" cy="-224.45" rx="4" ry="4"/>
<polygon fill="#57fe86" stroke="#57fe86" points="327.45,-152.789 331.95,-142.789 327.45,-147.789 327.45,-142.789 327.45,-142.789 327.45,-142.789 327.45,-147.789 322.95,-142.789 327.45,-152.789 327.45,-152.789"/>
</g>
<!-- Workout&#45;&gt;Part -->
<g id="edge8" class="edge"><title>Workout&#45;&gt;Part</title>
<path fill="none" stroke="#efc3c8" d="M327.45,-571.371C327.45,-565.222 327.45,-559.003 327.45,-552.902"/>
<ellipse fill="none" stroke="#efc3c8" cx="327.45" cy="-575.378" rx="4" ry="4"/>
<polygon fill="#efc3c8" stroke="#efc3c8" points="327.45,-552.779 331.95,-542.779 327.45,-547.779 327.45,-542.779 327.45,-542.779 327.45,-542.779 327.45,-547.779 322.95,-542.779 327.45,-552.779 327.45,-552.779"/>
</g>
</g>
</svg>
