<?xml version="1.0" encoding="UTF-8" standalone="no"?>
<!DOCTYPE svg PUBLIC "-//W3C//DTD SVG 1.1//EN"
 "http://www.w3.org/Graphics/SVG/1.1/DTD/svg11.dtd">
<!-- Generated by graphviz version 2.38.0 (20140413.2041)
 -->
<!-- Title: models_diagram Pages: 1 -->
<svg width="757pt" height="923pt"
 viewBox="0.00 0.00 756.50 923.00" xmlns="http://www.w3.org/2000/svg" xmlns:xlink="http://www.w3.org/1999/xlink">
<g id="graph0" class="graph" transform="scale(1 1) rotate(0) translate(4 919)">
<title>models_diagram</title>
<polygon fill="white" stroke="none" points="-4,4 -4,-919 752.501,-919 752.501,4 -4,4"/>
<!-- _diagram_info -->
<g id="node1" class="node"><title>_diagram_info</title>
<text text-anchor="start" x="8" y="-830.6" font-family="Times,serif" font-size="13.00">Models diagram</text>
<text text-anchor="start" x="8" y="-817.6" font-family="Times,serif" font-size="13.00">Date: Jul 26 2015 &#45; 10:28</text>
<text text-anchor="start" x="8" y="-804.6" font-family="Times,serif" font-size="13.00">Migration version: 20150715211331</text>
<text text-anchor="start" x="8" y="-791.6" font-family="Times,serif" font-size="13.00">Generated by RailRoady 1.3.0</text>
<text text-anchor="start" x="8" y="-778.6" font-family="Times,serif" font-size="13.00">http://railroady.prestonlee.com</text>
</g>
<!-- Admin -->
<g id="node2" class="node"><title>Admin</title>
<path fill="none" stroke="black" d="M237.172,-702.5C237.172,-702.5 417.728,-702.5 417.728,-702.5 423.728,-702.5 429.728,-708.5 429.728,-714.5 429.728,-714.5 429.728,-902.5 429.728,-902.5 429.728,-908.5 423.728,-914.5 417.728,-914.5 417.728,-914.5 237.172,-914.5 237.172,-914.5 231.172,-914.5 225.172,-908.5 225.172,-902.5 225.172,-902.5 225.172,-714.5 225.172,-714.5 225.172,-708.5 231.172,-702.5 237.172,-702.5"/>
<text text-anchor="middle" x="327.45" y="-899.3" font-family="Times,serif" font-size="14.00">Admin</text>
<polyline fill="none" stroke="black" points="225.172,-892.5 429.728,-892.5 "/>
<text text-anchor="start" x="233.172" y="-877.3" font-family="Times,serif" font-size="14.00">id :integer</text>
<text text-anchor="start" x="233.172" y="-863.3" font-family="Times,serif" font-size="14.00">email :string</text>
<text text-anchor="start" x="233.172" y="-849.3" font-family="Times,serif" font-size="14.00">encrypted_password :string</text>
<text text-anchor="start" x="233.172" y="-835.3" font-family="Times,serif" font-size="14.00">reset_password_token :string</text>
<text text-anchor="start" x="233.172" y="-821.3" font-family="Times,serif" font-size="14.00">reset_password_sent_at :datetime</text>
<text text-anchor="start" x="233.172" y="-807.3" font-family="Times,serif" font-size="14.00">remember_created_at :datetime</text>
<text text-anchor="start" x="233.172" y="-793.3" font-family="Times,serif" font-size="14.00">sign_in_count :integer</text>
<text text-anchor="start" x="233.172" y="-779.3" font-family="Times,serif" font-size="14.00">current_sign_in_at :datetime</text>
<text text-anchor="start" x="233.172" y="-765.3" font-family="Times,serif" font-size="14.00">last_sign_in_at :datetime</text>
<text text-anchor="start" x="233.172" y="-751.3" font-family="Times,serif" font-size="14.00">current_sign_in_ip :inet</text>
<text text-anchor="start" x="233.172" y="-737.3" font-family="Times,serif" font-size="14.00">last_sign_in_ip :inet</text>
<text text-anchor="start" x="233.172" y="-723.3" font-family="Times,serif" font-size="14.00">created_at :datetime</text>
<text text-anchor="start" x="233.172" y="-709.3" font-family="Times,serif" font-size="14.00">updated_at :datetime</text>
</g>
<!-- Workout -->
<g id="node12" class="node"><title>Workout</title>
<path fill="none" stroke="black" d="M265.165,-551.5C265.165,-551.5 389.734,-551.5 389.734,-551.5 395.734,-551.5 401.734,-557.5 401.734,-563.5 401.734,-563.5 401.734,-653.5 401.734,-653.5 401.734,-659.5 395.734,-665.5 389.734,-665.5 389.734,-665.5 265.165,-665.5 265.165,-665.5 259.165,-665.5 253.165,-659.5 253.165,-653.5 253.165,-653.5 253.165,-563.5 253.165,-563.5 253.165,-557.5 259.165,-551.5 265.165,-551.5"/>
<text text-anchor="middle" x="327.45" y="-650.3" font-family="Times,serif" font-size="14.00">Workout</text>
<polyline fill="none" stroke="black" points="253.165,-643.5 401.734,-643.5 "/>
<text text-anchor="start" x="261.165" y="-628.3" font-family="Times,serif" font-size="14.00">id :integer</text>
<text text-anchor="start" x="261.165" y="-614.3" font-family="Times,serif" font-size="14.00">title :string</text>
<text text-anchor="start" x="261.165" y="-600.3" font-family="Times,serif" font-size="14.00">admin_id :integer</text>
<text text-anchor="start" x="261.165" y="-586.3" font-family="Times,serif" font-size="14.00">created_at :datetime</text>
<text text-anchor="start" x="261.165" y="-572.3" font-family="Times,serif" font-size="14.00">updated_at :datetime</text>
<text text-anchor="start" x="261.165" y="-558.3" font-family="Times,serif" font-size="14.00">workout_date :datetime</text>
</g>
<!-- Admin&#45;&gt;Workout -->
<g id="edge1" class="edge"><title>Admin&#45;&gt;Workout</title>
<path fill="none" stroke="#9bf218" d="M327.45,-694.119C327.45,-687.975 327.45,-681.907 327.45,-676.012"/>
<ellipse fill="none" stroke="#9bf218" cx="327.45" cy="-698.413" rx="4" ry="4"/>
<polygon fill="#9bf218" stroke="#9bf218" points="327.45,-675.609 331.95,-665.608 327.45,-670.609 327.45,-665.609 327.45,-665.609 327.45,-665.609 327.45,-670.609 322.95,-665.609 327.45,-675.609 327.45,-675.609"/>
</g>
<!-- AdminAbility -->
<g id="node3" class="node"><title>AdminAbility</title>
<polygon fill="none" stroke="black" points="448.17,-786.5 448.17,-830.5 542.729,-830.5 542.729,-786.5 448.17,-786.5"/>
<text text-anchor="middle" x="495.45" y="-815.3" font-family="Times,serif" font-size="14.00">AdminAbility</text>
<polyline fill="none" stroke="black" points="448.17,-808.5 542.729,-808.5 "/>
<text text-anchor="middle" x="495.45" y="-793.3" font-family="Times,serif" font-size="14.00"> </text>
</g>
<!-- Category -->
<g id="node4" class="node"><title>Category</title>
<path fill="none" stroke="black" d="M121.944,-414.5C121.944,-414.5 230.955,-414.5 230.955,-414.5 236.955,-414.5 242.955,-420.5 242.955,-426.5 242.955,-426.5 242.955,-502.5 242.955,-502.5 242.955,-508.5 236.955,-514.5 230.955,-514.5 230.955,-514.5 121.944,-514.5 121.944,-514.5 115.944,-514.5 109.944,-508.5 109.944,-502.5 109.944,-502.5 109.944,-426.5 109.944,-426.5 109.944,-420.5 115.944,-414.5 121.944,-414.5"/>
<text text-anchor="middle" x="176.45" y="-499.3" font-family="Times,serif" font-size="14.00">Category</text>
<polyline fill="none" stroke="black" points="109.944,-492.5 242.955,-492.5 "/>
<text text-anchor="start" x="117.944" y="-477.3" font-family="Times,serif" font-size="14.00">id :integer</text>
<text text-anchor="start" x="117.944" y="-463.3" font-family="Times,serif" font-size="14.00">name :string</text>
<text text-anchor="start" x="117.944" y="-449.3" font-family="Times,serif" font-size="14.00">style :integer</text>
<text text-anchor="start" x="117.944" y="-435.3" font-family="Times,serif" font-size="14.00">created_at :datetime</text>
<text text-anchor="start" x="117.944" y="-421.3" font-family="Times,serif" font-size="14.00">updated_at :datetime</text>
</g>
<!-- Lift -->
<g id="node6" class="node"><title>Lift</title>
<path fill="none" stroke="black" d="M121.944,-186.5C121.944,-186.5 230.955,-186.5 230.955,-186.5 236.955,-186.5 242.955,-192.5 242.955,-198.5 242.955,-198.5 242.955,-344.5 242.955,-344.5 242.955,-350.5 236.955,-356.5 230.955,-356.5 230.955,-356.5 121.944,-356.5 121.944,-356.5 115.944,-356.5 109.944,-350.5 109.944,-344.5 109.944,-344.5 109.944,-198.5 109.944,-198.5 109.944,-192.5 115.944,-186.5 121.944,-186.5"/>
<text text-anchor="middle" x="176.45" y="-341.3" font-family="Times,serif" font-size="14.00">Lift</text>
<polyline fill="none" stroke="black" points="109.944,-334.5 242.955,-334.5 "/>
<text text-anchor="start" x="117.944" y="-319.3" font-family="Times,serif" font-size="14.00">id :integer</text>
<text text-anchor="start" x="117.944" y="-305.3" font-family="Times,serif" font-size="14.00">description :string</text>
<text text-anchor="start" x="117.944" y="-291.3" font-family="Times,serif" font-size="14.00">rep_count :integer</text>
<text text-anchor="start" x="117.944" y="-277.3" font-family="Times,serif" font-size="14.00">created_at :datetime</text>
<text text-anchor="start" x="117.944" y="-263.3" font-family="Times,serif" font-size="14.00">updated_at :datetime</text>
<text text-anchor="start" x="117.944" y="-249.3" font-family="Times,serif" font-size="14.00">part_id :integer</text>
<text text-anchor="start" x="117.944" y="-235.3" font-family="Times,serif" font-size="14.00">style :integer</text>
<text text-anchor="start" x="117.944" y="-221.3" font-family="Times,serif" font-size="14.00">category_id :integer</text>
<text text-anchor="start" x="117.944" y="-207.3" font-family="Times,serif" font-size="14.00">timing :string</text>
<text text-anchor="start" x="117.944" y="-193.3" font-family="Times,serif" font-size="14.00">max :boolean</text>
</g>
<!-- Category&#45;&gt;Lift -->
<g id="edge2" class="edge"><title>Category&#45;&gt;Lift</title>
<path fill="none" stroke="#521f6d" d="M176.45,-405.886C176.45,-393.545 176.45,-380.197 176.45,-366.878"/>
<ellipse fill="none" stroke="#521f6d" cx="176.45" cy="-410.313" rx="4" ry="4"/>
<polygon fill="#521f6d" stroke="#521f6d" points="176.45,-366.716 180.95,-356.716 176.45,-361.716 176.45,-356.716 176.45,-356.716 176.45,-356.716 176.45,-361.716 171.95,-356.716 176.45,-366.716 176.45,-366.716"/>
</g>
<!-- GuestAbility -->
<g id="node5" class="node"><title>GuestAbility</title>
<polygon fill="none" stroke="black" points="560.284,-786.5 560.284,-830.5 648.615,-830.5 648.615,-786.5 560.284,-786.5"/>
<text text-anchor="middle" x="604.45" y="-815.3" font-family="Times,serif" font-size="14.00">GuestAbility</text>
<polyline fill="none" stroke="black" points="560.284,-808.5 648.615,-808.5 "/>
<text text-anchor="middle" x="604.45" y="-793.3" font-family="Times,serif" font-size="14.00"> </text>
</g>
<!-- Score -->
<g id="node8" class="node"><title>Score</title>
<path fill="none" stroke="black" d="M272.944,-0.5C272.944,-0.5 381.955,-0.5 381.955,-0.5 387.955,-0.5 393.955,-6.5 393.955,-12.5 393.955,-12.5 393.955,-116.5 393.955,-116.5 393.955,-122.5 387.955,-128.5 381.955,-128.5 381.955,-128.5 272.944,-128.5 272.944,-128.5 266.944,-128.5 260.944,-122.5 260.944,-116.5 260.944,-116.5 260.944,-12.5 260.944,-12.5 260.944,-6.5 266.944,-0.5 272.944,-0.5"/>
<text text-anchor="middle" x="327.45" y="-113.3" font-family="Times,serif" font-size="14.00">Score</text>
<polyline fill="none" stroke="black" points="260.944,-106.5 393.955,-106.5 "/>
<text text-anchor="start" x="268.944" y="-91.3" font-family="Times,serif" font-size="14.00">id :integer</text>
<text text-anchor="start" x="268.944" y="-77.3" font-family="Times,serif" font-size="14.00">result :string</text>
<text text-anchor="start" x="268.944" y="-63.3" font-family="Times,serif" font-size="14.00">user_id :integer</text>
<text text-anchor="start" x="268.944" y="-49.3" font-family="Times,serif" font-size="14.00">lift_id :integer</text>
<text text-anchor="start" x="268.944" y="-35.3" font-family="Times,serif" font-size="14.00">wod_id :integer</text>
<text text-anchor="start" x="268.944" y="-21.3" font-family="Times,serif" font-size="14.00">created_at :datetime</text>
<text text-anchor="start" x="268.944" y="-7.3" font-family="Times,serif" font-size="14.00">updated_at :datetime</text>
</g>
<!-- Lift&#45;&gt;Score -->
<g id="edge3" class="edge"><title>Lift&#45;&gt;Score</title>
<path fill="none" stroke="#91bc66" d="M240.84,-179.504C244.413,-174.586 247.966,-169.726 251.45,-165 258.183,-155.865 265.33,-146.318 272.443,-136.906"/>
<ellipse fill="none" stroke="#91bc66" cx="238.308" cy="-182.999" rx="4.00002" ry="4.00002"/>
<polygon fill="#91bc66" stroke="#91bc66" points="272.634,-136.654 282.26,-131.402 275.654,-132.669 278.674,-128.684 278.674,-128.684 278.674,-128.684 275.654,-132.669 275.087,-125.966 272.634,-136.654 272.634,-136.654"/>
</g>
<!-- Part -->
<g id="node7" class="node"><title>Part</title>
<path fill="none" stroke="black" d="M272.944,-414.5C272.944,-414.5 381.955,-414.5 381.955,-414.5 387.955,-414.5 393.955,-420.5 393.955,-426.5 393.955,-426.5 393.955,-502.5 393.955,-502.5 393.955,-508.5 387.955,-514.5 381.955,-514.5 381.955,-514.5 272.944,-514.5 272.944,-514.5 266.944,-514.5 260.944,-508.5 260.944,-502.5 260.944,-502.5 260.944,-426.5 260.944,-426.5 260.944,-420.5 266.944,-414.5 272.944,-414.5"/>
<text text-anchor="middle" x="327.45" y="-499.3" font-family="Times,serif" font-size="14.00">Part</text>
<polyline fill="none" stroke="black" points="260.944,-492.5 393.955,-492.5 "/>
<text text-anchor="start" x="268.944" y="-477.3" font-family="Times,serif" font-size="14.00">id :integer</text>
<text text-anchor="start" x="268.944" y="-463.3" font-family="Times,serif" font-size="14.00">workout_id :integer</text>
<text text-anchor="start" x="268.944" y="-449.3" font-family="Times,serif" font-size="14.00">created_at :datetime</text>
<text text-anchor="start" x="268.944" y="-435.3" font-family="Times,serif" font-size="14.00">updated_at :datetime</text>
<text text-anchor="start" x="268.944" y="-421.3" font-family="Times,serif" font-size="14.00">style :integer</text>
</g>
<!-- Part&#45;&gt;Lift -->
<g id="edge4" class="edge"><title>Part&#45;&gt;Lift</title>
<path fill="none" stroke="#2e228b" d="M276.589,-408.032C268.01,-398.185 259.337,-387.908 251.45,-378 248.038,-373.714 244.596,-369.288 241.161,-364.788"/>
<ellipse fill="none" stroke="#2e228b" cx="279.273" cy="-411.093" rx="4.00002" ry="4.00002"/>
<polygon fill="#2e228b" stroke="#2e228b" points="241.019,-364.6 238.583,-353.908 238.006,-360.61 234.992,-356.62 234.992,-356.62 234.992,-356.62 238.006,-360.61 231.401,-359.332 241.019,-364.6 241.019,-364.6"/>
</g>
<!-- Wod -->
<g id="node11" class="node"><title>Wod</title>
<path fill="none" stroke="black" d="M272.944,-207.5C272.944,-207.5 381.955,-207.5 381.955,-207.5 387.955,-207.5 393.955,-213.5 393.955,-219.5 393.955,-219.5 393.955,-323.5 393.955,-323.5 393.955,-329.5 387.955,-335.5 381.955,-335.5 381.955,-335.5 272.944,-335.5 272.944,-335.5 266.944,-335.5 260.944,-329.5 260.944,-323.5 260.944,-323.5 260.944,-219.5 260.944,-219.5 260.944,-213.5 266.944,-207.5 272.944,-207.5"/>
<text text-anchor="middle" x="327.45" y="-320.3" font-family="Times,serif" font-size="14.00">Wod</text>
<polyline fill="none" stroke="black" points="260.944,-313.5 393.955,-313.5 "/>
<text text-anchor="start" x="268.944" y="-298.3" font-family="Times,serif" font-size="14.00">id :integer</text>
<text text-anchor="start" x="268.944" y="-284.3" font-family="Times,serif" font-size="14.00">description :text</text>
<text text-anchor="start" x="268.944" y="-270.3" font-family="Times,serif" font-size="14.00">result_label :string</text>
<text text-anchor="start" x="268.944" y="-256.3" font-family="Times,serif" font-size="14.00">created_at :datetime</text>
<text text-anchor="start" x="268.944" y="-242.3" font-family="Times,serif" font-size="14.00">updated_at :datetime</text>
<text text-anchor="start" x="268.944" y="-228.3" font-family="Times,serif" font-size="14.00">title :string</text>
<text text-anchor="start" x="268.944" y="-214.3" font-family="Times,serif" font-size="14.00">part_id :integer</text>
</g>
<!-- Part&#45;&gt;Wod -->
<g id="edge5" class="edge"><title>Part&#45;&gt;Wod</title>
<path fill="none" stroke="#3c1ae9" d="M327.45,-406.269C327.45,-387.217 327.45,-365.729 327.45,-345.641"/>
<ellipse fill="none" stroke="#3c1ae9" cx="327.45" cy="-410.313" rx="4" ry="4"/>
<polygon fill="#3c1ae9" stroke="#3c1ae9" points="327.45,-345.597 331.95,-335.597 327.45,-340.597 327.45,-335.597 327.45,-335.597 327.45,-335.597 327.45,-340.597 322.95,-335.597 327.45,-345.597 327.45,-345.597"/>
</g>
<!-- User -->
<g id="node9" class="node"><title>User</title>
<path fill="none" stroke="black" d="M424.172,-165.5C424.172,-165.5 604.728,-165.5 604.728,-165.5 610.728,-165.5 616.728,-171.5 616.728,-177.5 616.728,-177.5 616.728,-365.5 616.728,-365.5 616.728,-371.5 610.728,-377.5 604.728,-377.5 604.728,-377.5 424.172,-377.5 424.172,-377.5 418.172,-377.5 412.172,-371.5 412.172,-365.5 412.172,-365.5 412.172,-177.5 412.172,-177.5 412.172,-171.5 418.172,-165.5 424.172,-165.5"/>
<text text-anchor="middle" x="514.45" y="-362.3" font-family="Times,serif" font-size="14.00">User</text>
<polyline fill="none" stroke="black" points="412.172,-355.5 616.728,-355.5 "/>
<text text-anchor="start" x="420.172" y="-340.3" font-family="Times,serif" font-size="14.00">id :integer</text>
<text text-anchor="start" x="420.172" y="-326.3" font-family="Times,serif" font-size="14.00">email :string</text>
<text text-anchor="start" x="420.172" y="-312.3" font-family="Times,serif" font-size="14.00">encrypted_password :string</text>
<text text-anchor="start" x="420.172" y="-298.3" font-family="Times,serif" font-size="14.00">reset_password_token :string</text>
<text text-anchor="start" x="420.172" y="-284.3" font-family="Times,serif" font-size="14.00">reset_password_sent_at :datetime</text>
<text text-anchor="start" x="420.172" y="-270.3" font-family="Times,serif" font-size="14.00">remember_created_at :datetime</text>
<text text-anchor="start" x="420.172" y="-256.3" font-family="Times,serif" font-size="14.00">sign_in_count :integer</text>
<text text-anchor="start" x="420.172" y="-242.3" font-family="Times,serif" font-size="14.00">current_sign_in_at :datetime</text>
<text text-anchor="start" x="420.172" y="-228.3" font-family="Times,serif" font-size="14.00">last_sign_in_at :datetime</text>
<text text-anchor="start" x="420.172" y="-214.3" font-family="Times,serif" font-size="14.00">current_sign_in_ip :inet</text>
<text text-anchor="start" x="420.172" y="-200.3" font-family="Times,serif" font-size="14.00">last_sign_in_ip :inet</text>
<text text-anchor="start" x="420.172" y="-186.3" font-family="Times,serif" font-size="14.00">created_at :datetime</text>
<text text-anchor="start" x="420.172" y="-172.3" font-family="Times,serif" font-size="14.00">updated_at :datetime</text>
</g>
<!-- User&#45;&gt;Score -->
<g id="edge6" class="edge"><title>User&#45;&gt;Score</title>
<path fill="none" stroke="#4fae1a" d="M412.886,-159.16C405.767,-151.356 398.711,-143.621 391.885,-136.137"/>
<ellipse fill="none" stroke="#4fae1a" cx="415.789" cy="-162.342" rx="4.00002" ry="4.00002"/>
<polygon fill="#4fae1a" stroke="#4fae1a" points="391.88,-136.133 388.466,-125.712 388.511,-132.439 385.141,-128.745 385.141,-128.745 385.141,-128.745 388.511,-132.439 381.816,-131.777 391.88,-136.133 391.88,-136.133"/>
</g>
<!-- UserAbility -->
<g id="node10" class="node"><title>UserAbility</title>
<polygon fill="none" stroke="black" points="666.398,-786.5 666.398,-830.5 748.501,-830.5 748.501,-786.5 666.398,-786.5"/>
<text text-anchor="middle" x="707.45" y="-815.3" font-family="Times,serif" font-size="14.00">UserAbility</text>
<polyline fill="none" stroke="black" points="666.398,-808.5 748.501,-808.5 "/>
<text text-anchor="middle" x="707.45" y="-793.3" font-family="Times,serif" font-size="14.00"> </text>
</g>
<!-- Wod&#45;&gt;Score -->
<g id="edge7" class="edge"><title>Wod&#45;&gt;Score</title>
<path fill="none" stroke="#3f1195" d="M327.45,-199.316C327.45,-179.791 327.45,-158.589 327.45,-138.94"/>
<ellipse fill="none" stroke="#3f1195" cx="327.45" cy="-203.321" rx="4" ry="4"/>
<polygon fill="#3f1195" stroke="#3f1195" points="327.45,-138.824 331.95,-128.824 327.45,-133.824 327.45,-128.824 327.45,-128.824 327.45,-128.824 327.45,-133.824 322.95,-128.824 327.45,-138.824 327.45,-138.824"/>
</g>
<!-- Workout&#45;&gt;Part -->
<g id="edge8" class="edge"><title>Workout&#45;&gt;Part</title>
<path fill="none" stroke="#5df04e" d="M327.45,-543.371C327.45,-537.222 327.45,-531.003 327.45,-524.902"/>
<ellipse fill="none" stroke="#5df04e" cx="327.45" cy="-547.378" rx="4" ry="4"/>
<polygon fill="#5df04e" stroke="#5df04e" points="327.45,-524.779 331.95,-514.779 327.45,-519.779 327.45,-514.779 327.45,-514.779 327.45,-514.779 327.45,-519.779 322.95,-514.779 327.45,-524.779 327.45,-524.779"/>
</g>
</g>
</svg>
