<?xml version="1.0" encoding="UTF-8" standalone="no"?>
<!DOCTYPE svg PUBLIC "-//W3C//DTD SVG 1.1//EN"
 "http://www.w3.org/Graphics/SVG/1.1/DTD/svg11.dtd">
<!-- Generated by graphviz version 2.38.0 (20140413.2041)
 -->
<!-- Title: models_diagram Pages: 1 -->
<svg width="757pt" height="965pt"
 viewBox="0.00 0.00 756.74 965.00" xmlns="http://www.w3.org/2000/svg" xmlns:xlink="http://www.w3.org/1999/xlink">
<g id="graph0" class="graph" transform="scale(1 1) rotate(0) translate(4 961)">
<title>models_diagram</title>
<polygon fill="white" stroke="none" points="-4,4 -4,-961 752.74,-961 752.74,4 -4,4"/>
<!-- _diagram_info -->
<g id="node1" class="node"><title>_diagram_info</title>
<text text-anchor="start" x="8" y="-872.6" font-family="Times,serif" font-size="13.00">Models diagram</text>
<text text-anchor="start" x="8" y="-859.6" font-family="Times,serif" font-size="13.00">Date: Dec 13 2016 &#45; 12:33</text>
<text text-anchor="start" x="8" y="-846.6" font-family="Times,serif" font-size="13.00">Migration version: 20161213173234</text>
<text text-anchor="start" x="8" y="-833.6" font-family="Times,serif" font-size="13.00">Generated by RailRoady 1.3.0</text>
<text text-anchor="start" x="8" y="-820.6" font-family="Times,serif" font-size="13.00">http://railroady.prestonlee.com</text>
</g>
<!-- Admin -->
<g id="node2" class="node"><title>Admin</title>
<path fill="none" stroke="black" d="M237.41,-744.5C237.41,-744.5 417.966,-744.5 417.966,-744.5 423.966,-744.5 429.966,-750.5 429.966,-756.5 429.966,-756.5 429.966,-944.5 429.966,-944.5 429.966,-950.5 423.966,-956.5 417.966,-956.5 417.966,-956.5 237.41,-956.5 237.41,-956.5 231.41,-956.5 225.41,-950.5 225.41,-944.5 225.41,-944.5 225.41,-756.5 225.41,-756.5 225.41,-750.5 231.41,-744.5 237.41,-744.5"/>
<text text-anchor="middle" x="327.688" y="-941.3" font-family="Times,serif" font-size="14.00">Admin</text>
<polyline fill="none" stroke="black" points="225.41,-934.5 429.966,-934.5 "/>
<text text-anchor="start" x="233.41" y="-919.3" font-family="Times,serif" font-size="14.00">id :integer</text>
<text text-anchor="start" x="233.41" y="-905.3" font-family="Times,serif" font-size="14.00">email :string</text>
<text text-anchor="start" x="233.41" y="-891.3" font-family="Times,serif" font-size="14.00">encrypted_password :string</text>
<text text-anchor="start" x="233.41" y="-877.3" font-family="Times,serif" font-size="14.00">reset_password_token :string</text>
<text text-anchor="start" x="233.41" y="-863.3" font-family="Times,serif" font-size="14.00">reset_password_sent_at :datetime</text>
<text text-anchor="start" x="233.41" y="-849.3" font-family="Times,serif" font-size="14.00">remember_created_at :datetime</text>
<text text-anchor="start" x="233.41" y="-835.3" font-family="Times,serif" font-size="14.00">sign_in_count :integer</text>
<text text-anchor="start" x="233.41" y="-821.3" font-family="Times,serif" font-size="14.00">current_sign_in_at :datetime</text>
<text text-anchor="start" x="233.41" y="-807.3" font-family="Times,serif" font-size="14.00">last_sign_in_at :datetime</text>
<text text-anchor="start" x="233.41" y="-793.3" font-family="Times,serif" font-size="14.00">current_sign_in_ip :inet</text>
<text text-anchor="start" x="233.41" y="-779.3" font-family="Times,serif" font-size="14.00">last_sign_in_ip :inet</text>
<text text-anchor="start" x="233.41" y="-765.3" font-family="Times,serif" font-size="14.00">created_at :datetime</text>
<text text-anchor="start" x="233.41" y="-751.3" font-family="Times,serif" font-size="14.00">updated_at :datetime</text>
</g>
<!-- Workout -->
<g id="node12" class="node"><title>Workout</title>
<path fill="none" stroke="black" d="M265.403,-593.5C265.403,-593.5 389.972,-593.5 389.972,-593.5 395.972,-593.5 401.972,-599.5 401.972,-605.5 401.972,-605.5 401.972,-695.5 401.972,-695.5 401.972,-701.5 395.972,-707.5 389.972,-707.5 389.972,-707.5 265.403,-707.5 265.403,-707.5 259.403,-707.5 253.403,-701.5 253.403,-695.5 253.403,-695.5 253.403,-605.5 253.403,-605.5 253.403,-599.5 259.403,-593.5 265.403,-593.5"/>
<text text-anchor="middle" x="327.688" y="-692.3" font-family="Times,serif" font-size="14.00">Workout</text>
<polyline fill="none" stroke="black" points="253.403,-685.5 401.972,-685.5 "/>
<text text-anchor="start" x="261.403" y="-670.3" font-family="Times,serif" font-size="14.00">id :integer</text>
<text text-anchor="start" x="261.403" y="-656.3" font-family="Times,serif" font-size="14.00">title :string</text>
<text text-anchor="start" x="261.403" y="-642.3" font-family="Times,serif" font-size="14.00">admin_id :integer</text>
<text text-anchor="start" x="261.403" y="-628.3" font-family="Times,serif" font-size="14.00">created_at :datetime</text>
<text text-anchor="start" x="261.403" y="-614.3" font-family="Times,serif" font-size="14.00">updated_at :datetime</text>
<text text-anchor="start" x="261.403" y="-600.3" font-family="Times,serif" font-size="14.00">workout_date :datetime</text>
</g>
<!-- Admin&#45;&gt;Workout -->
<g id="edge1" class="edge"><title>Admin&#45;&gt;Workout</title>
<path fill="none" stroke="#d191b4" d="M327.688,-736.119C327.688,-729.975 327.688,-723.907 327.688,-718.012"/>
<ellipse fill="none" stroke="#d191b4" cx="327.688" cy="-740.413" rx="4" ry="4"/>
<polygon fill="#d191b4" stroke="#d191b4" points="327.688,-717.609 332.188,-707.608 327.688,-712.609 327.688,-707.609 327.688,-707.609 327.688,-707.609 327.688,-712.609 323.188,-707.609 327.688,-717.609 327.688,-717.609"/>
</g>
<!-- AdminAbility -->
<g id="node3" class="node"><title>AdminAbility</title>
<polygon fill="none" stroke="black" points="448.408,-828.5 448.408,-872.5 542.967,-872.5 542.967,-828.5 448.408,-828.5"/>
<text text-anchor="middle" x="495.688" y="-857.3" font-family="Times,serif" font-size="14.00">AdminAbility</text>
<polyline fill="none" stroke="black" points="448.408,-850.5 542.967,-850.5 "/>
<text text-anchor="middle" x="495.688" y="-835.3" font-family="Times,serif" font-size="14.00"> </text>
</g>
<!-- Category -->
<g id="node4" class="node"><title>Category</title>
<path fill="none" stroke="black" d="M120.182,-456.5C120.182,-456.5 229.193,-456.5 229.193,-456.5 235.193,-456.5 241.193,-462.5 241.193,-468.5 241.193,-468.5 241.193,-544.5 241.193,-544.5 241.193,-550.5 235.193,-556.5 229.193,-556.5 229.193,-556.5 120.182,-556.5 120.182,-556.5 114.182,-556.5 108.182,-550.5 108.182,-544.5 108.182,-544.5 108.182,-468.5 108.182,-468.5 108.182,-462.5 114.182,-456.5 120.182,-456.5"/>
<text text-anchor="middle" x="174.688" y="-541.3" font-family="Times,serif" font-size="14.00">Category</text>
<polyline fill="none" stroke="black" points="108.182,-534.5 241.193,-534.5 "/>
<text text-anchor="start" x="116.182" y="-519.3" font-family="Times,serif" font-size="14.00">id :integer</text>
<text text-anchor="start" x="116.182" y="-505.3" font-family="Times,serif" font-size="14.00">name :string</text>
<text text-anchor="start" x="116.182" y="-491.3" font-family="Times,serif" font-size="14.00">style :integer</text>
<text text-anchor="start" x="116.182" y="-477.3" font-family="Times,serif" font-size="14.00">created_at :datetime</text>
<text text-anchor="start" x="116.182" y="-463.3" font-family="Times,serif" font-size="14.00">updated_at :datetime</text>
</g>
<!-- Lift -->
<g id="node6" class="node"><title>Lift</title>
<path fill="none" stroke="black" d="M119.786,-200.5C119.786,-200.5 229.59,-200.5 229.59,-200.5 235.59,-200.5 241.59,-206.5 241.59,-212.5 241.59,-212.5 241.59,-400.5 241.59,-400.5 241.59,-406.5 235.59,-412.5 229.59,-412.5 229.59,-412.5 119.786,-412.5 119.786,-412.5 113.786,-412.5 107.786,-406.5 107.786,-400.5 107.786,-400.5 107.786,-212.5 107.786,-212.5 107.786,-206.5 113.786,-200.5 119.786,-200.5"/>
<text text-anchor="middle" x="174.688" y="-397.3" font-family="Times,serif" font-size="14.00">Lift</text>
<polyline fill="none" stroke="black" points="107.786,-390.5 241.59,-390.5 "/>
<text text-anchor="start" x="115.786" y="-375.3" font-family="Times,serif" font-size="14.00">id :integer</text>
<text text-anchor="start" x="115.786" y="-361.3" font-family="Times,serif" font-size="14.00">description :string</text>
<text text-anchor="start" x="115.786" y="-347.3" font-family="Times,serif" font-size="14.00">rep_count :integer</text>
<text text-anchor="start" x="115.786" y="-333.3" font-family="Times,serif" font-size="14.00">created_at :datetime</text>
<text text-anchor="start" x="115.786" y="-319.3" font-family="Times,serif" font-size="14.00">updated_at :datetime</text>
<text text-anchor="start" x="115.786" y="-305.3" font-family="Times,serif" font-size="14.00">part_id :integer</text>
<text text-anchor="start" x="115.786" y="-291.3" font-family="Times,serif" font-size="14.00">style :integer</text>
<text text-anchor="start" x="115.786" y="-277.3" font-family="Times,serif" font-size="14.00">category_id :integer</text>
<text text-anchor="start" x="115.786" y="-263.3" font-family="Times,serif" font-size="14.00">timing :string</text>
<text text-anchor="start" x="115.786" y="-249.3" font-family="Times,serif" font-size="14.00">max :boolean</text>
<text text-anchor="start" x="115.786" y="-235.3" font-family="Times,serif" font-size="14.00">summary :text</text>
<text text-anchor="start" x="115.786" y="-221.3" font-family="Times,serif" font-size="14.00">lift_date :datetime</text>
<text text-anchor="start" x="115.786" y="-207.3" font-family="Times,serif" font-size="14.00">previous_lift :integer</text>
</g>
<!-- Category&#45;&gt;Lift -->
<g id="edge2" class="edge"><title>Category&#45;&gt;Lift</title>
<path fill="none" stroke="#26f601" d="M174.688,-448.273C174.688,-440.094 174.688,-431.451 174.688,-422.631"/>
<ellipse fill="none" stroke="#26f601" cx="174.688" cy="-452.302" rx="4" ry="4"/>
<polygon fill="#26f601" stroke="#26f601" points="174.688,-422.615 179.188,-412.615 174.688,-417.615 174.688,-412.615 174.688,-412.615 174.688,-412.615 174.688,-417.615 170.188,-412.615 174.688,-422.615 174.688,-422.615"/>
</g>
<!-- GuestAbility -->
<g id="node5" class="node"><title>GuestAbility</title>
<polygon fill="none" stroke="black" points="560.522,-828.5 560.522,-872.5 648.853,-872.5 648.853,-828.5 560.522,-828.5"/>
<text text-anchor="middle" x="604.688" y="-857.3" font-family="Times,serif" font-size="14.00">GuestAbility</text>
<polyline fill="none" stroke="black" points="560.522,-850.5 648.853,-850.5 "/>
<text text-anchor="middle" x="604.688" y="-835.3" font-family="Times,serif" font-size="14.00"> </text>
</g>
<!-- Score -->
<g id="node8" class="node"><title>Score</title>
<path fill="none" stroke="black" d="M276.182,-0.5C276.182,-0.5 385.193,-0.5 385.193,-0.5 391.193,-0.5 397.193,-6.5 397.193,-12.5 397.193,-12.5 397.193,-144.5 397.193,-144.5 397.193,-150.5 391.193,-156.5 385.193,-156.5 385.193,-156.5 276.182,-156.5 276.182,-156.5 270.182,-156.5 264.182,-150.5 264.182,-144.5 264.182,-144.5 264.182,-12.5 264.182,-12.5 264.182,-6.5 270.182,-0.5 276.182,-0.5"/>
<text text-anchor="middle" x="330.688" y="-141.3" font-family="Times,serif" font-size="14.00">Score</text>
<polyline fill="none" stroke="black" points="264.182,-134.5 397.193,-134.5 "/>
<text text-anchor="start" x="272.182" y="-119.3" font-family="Times,serif" font-size="14.00">id :integer</text>
<text text-anchor="start" x="272.182" y="-105.3" font-family="Times,serif" font-size="14.00">result :string</text>
<text text-anchor="start" x="272.182" y="-91.3" font-family="Times,serif" font-size="14.00">user_id :integer</text>
<text text-anchor="start" x="272.182" y="-77.3" font-family="Times,serif" font-size="14.00">lift_id :integer</text>
<text text-anchor="start" x="272.182" y="-63.3" font-family="Times,serif" font-size="14.00">wod_id :integer</text>
<text text-anchor="start" x="272.182" y="-49.3" font-family="Times,serif" font-size="14.00">created_at :datetime</text>
<text text-anchor="start" x="272.182" y="-35.3" font-family="Times,serif" font-size="14.00">updated_at :datetime</text>
<text text-anchor="start" x="272.182" y="-21.3" font-family="Times,serif" font-size="14.00">rx :boolean</text>
<text text-anchor="start" x="272.182" y="-7.3" font-family="Times,serif" font-size="14.00">note :text</text>
</g>
<!-- Lift&#45;&gt;Score -->
<g id="edge3" class="edge"><title>Lift&#45;&gt;Score</title>
<path fill="none" stroke="#66407a" d="M246.513,-199.061C247.914,-197.023 249.307,-195.001 250.688,-193 256.989,-183.869 263.61,-174.353 270.232,-164.886"/>
<ellipse fill="none" stroke="#66407a" cx="243.981" cy="-202.749" rx="4.00002" ry="4.00002"/>
<polygon fill="#66407a" stroke="#66407a" points="270.307,-164.78 279.73,-159.171 273.175,-160.684 276.044,-156.589 276.044,-156.589 276.044,-156.589 273.175,-160.684 272.358,-154.007 270.307,-164.78 270.307,-164.78"/>
</g>
<!-- Part -->
<g id="node7" class="node"><title>Part</title>
<path fill="none" stroke="black" d="M273.182,-456.5C273.182,-456.5 382.193,-456.5 382.193,-456.5 388.193,-456.5 394.193,-462.5 394.193,-468.5 394.193,-468.5 394.193,-544.5 394.193,-544.5 394.193,-550.5 388.193,-556.5 382.193,-556.5 382.193,-556.5 273.182,-556.5 273.182,-556.5 267.182,-556.5 261.182,-550.5 261.182,-544.5 261.182,-544.5 261.182,-468.5 261.182,-468.5 261.182,-462.5 267.182,-456.5 273.182,-456.5"/>
<text text-anchor="middle" x="327.688" y="-541.3" font-family="Times,serif" font-size="14.00">Part</text>
<polyline fill="none" stroke="black" points="261.182,-534.5 394.193,-534.5 "/>
<text text-anchor="start" x="269.182" y="-519.3" font-family="Times,serif" font-size="14.00">id :integer</text>
<text text-anchor="start" x="269.182" y="-505.3" font-family="Times,serif" font-size="14.00">workout_id :integer</text>
<text text-anchor="start" x="269.182" y="-491.3" font-family="Times,serif" font-size="14.00">created_at :datetime</text>
<text text-anchor="start" x="269.182" y="-477.3" font-family="Times,serif" font-size="14.00">updated_at :datetime</text>
<text text-anchor="start" x="269.182" y="-463.3" font-family="Times,serif" font-size="14.00">style :integer</text>
</g>
<!-- Part&#45;&gt;Lift -->
<g id="edge4" class="edge"><title>Part&#45;&gt;Lift</title>
<path fill="none" stroke="#1c5610" d="M275.913,-450.246C267.249,-440.375 258.534,-430.034 250.688,-420 249.758,-418.811 248.826,-417.61 247.895,-416.4"/>
<ellipse fill="none" stroke="#1c5610" cx="278.641" cy="-453.329" rx="4.00002" ry="4.00002"/>
<polygon fill="#1c5610" stroke="#1c5610" points="247.787,-416.258 245.334,-405.57 244.767,-412.273 241.747,-408.288 241.747,-408.288 241.747,-408.288 244.767,-412.273 238.161,-411.006 247.787,-416.258 247.787,-416.258"/>
</g>
<!-- Wod -->
<g id="node11" class="node"><title>Wod</title>
<path fill="none" stroke="black" d="M271.896,-235.5C271.896,-235.5 389.479,-235.5 389.479,-235.5 395.479,-235.5 401.479,-241.5 401.479,-247.5 401.479,-247.5 401.479,-365.5 401.479,-365.5 401.479,-371.5 395.479,-377.5 389.479,-377.5 389.479,-377.5 271.896,-377.5 271.896,-377.5 265.896,-377.5 259.896,-371.5 259.896,-365.5 259.896,-365.5 259.896,-247.5 259.896,-247.5 259.896,-241.5 265.896,-235.5 271.896,-235.5"/>
<text text-anchor="middle" x="330.688" y="-362.3" font-family="Times,serif" font-size="14.00">Wod</text>
<polyline fill="none" stroke="black" points="259.896,-355.5 401.479,-355.5 "/>
<text text-anchor="start" x="267.896" y="-340.3" font-family="Times,serif" font-size="14.00">id :integer</text>
<text text-anchor="start" x="267.896" y="-326.3" font-family="Times,serif" font-size="14.00">description :text</text>
<text text-anchor="start" x="267.896" y="-312.3" font-family="Times,serif" font-size="14.00">result_label :string</text>
<text text-anchor="start" x="267.896" y="-298.3" font-family="Times,serif" font-size="14.00">created_at :datetime</text>
<text text-anchor="start" x="267.896" y="-284.3" font-family="Times,serif" font-size="14.00">updated_at :datetime</text>
<text text-anchor="start" x="267.896" y="-270.3" font-family="Times,serif" font-size="14.00">title :string</text>
<text text-anchor="start" x="267.896" y="-256.3" font-family="Times,serif" font-size="14.00">part_id :integer</text>
<text text-anchor="start" x="267.896" y="-242.3" font-family="Times,serif" font-size="14.00">previous_wod :integer</text>
</g>
<!-- Part&#45;&gt;Wod -->
<g id="edge5" class="edge"><title>Part&#45;&gt;Wod</title>
<path fill="none" stroke="#025136" d="M328.558,-448.058C328.843,-429.267 329.164,-408.035 329.47,-387.873"/>
<ellipse fill="none" stroke="#025136" cx="328.494" cy="-452.302" rx="4" ry="4"/>
<polygon fill="#025136" stroke="#025136" points="329.472,-387.761 334.123,-377.83 329.547,-382.761 329.623,-377.762 329.623,-377.762 329.623,-377.762 329.547,-382.761 325.124,-377.694 329.472,-387.761 329.472,-387.761"/>
</g>
<!-- User -->
<g id="node9" class="node"><title>User</title>
<path fill="none" stroke="black" d="M431.41,-193.5C431.41,-193.5 611.966,-193.5 611.966,-193.5 617.966,-193.5 623.966,-199.5 623.966,-205.5 623.966,-205.5 623.966,-407.5 623.966,-407.5 623.966,-413.5 617.966,-419.5 611.966,-419.5 611.966,-419.5 431.41,-419.5 431.41,-419.5 425.41,-419.5 419.41,-413.5 419.41,-407.5 419.41,-407.5 419.41,-205.5 419.41,-205.5 419.41,-199.5 425.41,-193.5 431.41,-193.5"/>
<text text-anchor="middle" x="521.688" y="-404.3" font-family="Times,serif" font-size="14.00">User</text>
<polyline fill="none" stroke="black" points="419.41,-397.5 623.966,-397.5 "/>
<text text-anchor="start" x="427.41" y="-382.3" font-family="Times,serif" font-size="14.00">id :integer</text>
<text text-anchor="start" x="427.41" y="-368.3" font-family="Times,serif" font-size="14.00">email :string</text>
<text text-anchor="start" x="427.41" y="-354.3" font-family="Times,serif" font-size="14.00">encrypted_password :string</text>
<text text-anchor="start" x="427.41" y="-340.3" font-family="Times,serif" font-size="14.00">reset_password_token :string</text>
<text text-anchor="start" x="427.41" y="-326.3" font-family="Times,serif" font-size="14.00">reset_password_sent_at :datetime</text>
<text text-anchor="start" x="427.41" y="-312.3" font-family="Times,serif" font-size="14.00">remember_created_at :datetime</text>
<text text-anchor="start" x="427.41" y="-298.3" font-family="Times,serif" font-size="14.00">sign_in_count :integer</text>
<text text-anchor="start" x="427.41" y="-284.3" font-family="Times,serif" font-size="14.00">current_sign_in_at :datetime</text>
<text text-anchor="start" x="427.41" y="-270.3" font-family="Times,serif" font-size="14.00">last_sign_in_at :datetime</text>
<text text-anchor="start" x="427.41" y="-256.3" font-family="Times,serif" font-size="14.00">current_sign_in_ip :inet</text>
<text text-anchor="start" x="427.41" y="-242.3" font-family="Times,serif" font-size="14.00">last_sign_in_ip :inet</text>
<text text-anchor="start" x="427.41" y="-228.3" font-family="Times,serif" font-size="14.00">created_at :datetime</text>
<text text-anchor="start" x="427.41" y="-214.3" font-family="Times,serif" font-size="14.00">updated_at :datetime</text>
<text text-anchor="start" x="427.41" y="-200.3" font-family="Times,serif" font-size="14.00">username :string</text>
</g>
<!-- User&#45;&gt;Score -->
<g id="edge6" class="edge"><title>User&#45;&gt;Score</title>
<path fill="none" stroke="#c2ad02" d="M421.857,-187.376C415.413,-179.751 408.996,-172.158 402.722,-164.734"/>
<ellipse fill="none" stroke="#c2ad02" cx="424.445" cy="-190.438" rx="4.00002" ry="4.00002"/>
<polygon fill="#c2ad02" stroke="#c2ad02" points="402.432,-164.391 399.414,-153.848 399.204,-160.572 395.977,-156.753 395.977,-156.753 395.977,-156.753 399.204,-160.572 392.54,-159.658 402.432,-164.391 402.432,-164.391"/>
</g>
<!-- UserAbility -->
<g id="node10" class="node"><title>UserAbility</title>
<polygon fill="none" stroke="black" points="666.636,-828.5 666.636,-872.5 748.74,-872.5 748.74,-828.5 666.636,-828.5"/>
<text text-anchor="middle" x="707.688" y="-857.3" font-family="Times,serif" font-size="14.00">UserAbility</text>
<polyline fill="none" stroke="black" points="666.636,-850.5 748.74,-850.5 "/>
<text text-anchor="middle" x="707.688" y="-835.3" font-family="Times,serif" font-size="14.00"> </text>
</g>
<!-- Wod&#45;&gt;Score -->
<g id="edge7" class="edge"><title>Wod&#45;&gt;Score</title>
<path fill="none" stroke="#c4162b" d="M330.688,-226.959C330.688,-207.607 330.688,-186.763 330.688,-167.016"/>
<ellipse fill="none" stroke="#c4162b" cx="330.688" cy="-231.231" rx="4" ry="4"/>
<polygon fill="#c4162b" stroke="#c4162b" points="330.688,-166.802 335.188,-156.802 330.688,-161.802 330.688,-156.802 330.688,-156.802 330.688,-156.802 330.688,-161.802 326.188,-156.802 330.688,-166.802 330.688,-166.802"/>
</g>
<!-- Workout&#45;&gt;Part -->
<g id="edge8" class="edge"><title>Workout&#45;&gt;Part</title>
<path fill="none" stroke="#0831d7" d="M327.688,-585.371C327.688,-579.222 327.688,-573.003 327.688,-566.902"/>
<ellipse fill="none" stroke="#0831d7" cx="327.688" cy="-589.378" rx="4" ry="4"/>
<polygon fill="#0831d7" stroke="#0831d7" points="327.688,-566.779 332.188,-556.779 327.688,-561.779 327.688,-556.779 327.688,-556.779 327.688,-556.779 327.688,-561.779 323.188,-556.779 327.688,-566.779 327.688,-566.779"/>
</g>
</g>
</svg>
