<?xml version="1.0" encoding="UTF-8" standalone="no"?>
<!DOCTYPE svg PUBLIC "-//W3C//DTD SVG 1.1//EN"
 "http://www.w3.org/Graphics/SVG/1.1/DTD/svg11.dtd">
<!-- Generated by graphviz version 2.38.0 (20140413.2041)
 -->
<!-- Title: models_diagram Pages: 1 -->
<svg width="757pt" height="937pt"
 viewBox="0.00 0.00 756.50 937.00" xmlns="http://www.w3.org/2000/svg" xmlns:xlink="http://www.w3.org/1999/xlink">
<g id="graph0" class="graph" transform="scale(1 1) rotate(0) translate(4 933)">
<title>models_diagram</title>
<polygon fill="white" stroke="none" points="-4,4 -4,-933 752.501,-933 752.501,4 -4,4"/>
<!-- _diagram_info -->
<g id="node1" class="node"><title>_diagram_info</title>
<text text-anchor="start" x="8" y="-844.6" font-family="Times,serif" font-size="13.00">Models diagram</text>
<text text-anchor="start" x="8" y="-831.6" font-family="Times,serif" font-size="13.00">Date: Feb 01 2016 &#45; 08:20</text>
<text text-anchor="start" x="8" y="-818.6" font-family="Times,serif" font-size="13.00">Migration version: 20160201131913</text>
<text text-anchor="start" x="8" y="-805.6" font-family="Times,serif" font-size="13.00">Generated by RailRoady 1.3.0</text>
<text text-anchor="start" x="8" y="-792.6" font-family="Times,serif" font-size="13.00">http://railroady.prestonlee.com</text>
</g>
<!-- Admin -->
<g id="node2" class="node"><title>Admin</title>
<path fill="none" stroke="black" d="M237.172,-716.5C237.172,-716.5 417.728,-716.5 417.728,-716.5 423.728,-716.5 429.728,-722.5 429.728,-728.5 429.728,-728.5 429.728,-916.5 429.728,-916.5 429.728,-922.5 423.728,-928.5 417.728,-928.5 417.728,-928.5 237.172,-928.5 237.172,-928.5 231.172,-928.5 225.172,-922.5 225.172,-916.5 225.172,-916.5 225.172,-728.5 225.172,-728.5 225.172,-722.5 231.172,-716.5 237.172,-716.5"/>
<text text-anchor="middle" x="327.45" y="-913.3" font-family="Times,serif" font-size="14.00">Admin</text>
<polyline fill="none" stroke="black" points="225.172,-906.5 429.728,-906.5 "/>
<text text-anchor="start" x="233.172" y="-891.3" font-family="Times,serif" font-size="14.00">id :integer</text>
<text text-anchor="start" x="233.172" y="-877.3" font-family="Times,serif" font-size="14.00">email :string</text>
<text text-anchor="start" x="233.172" y="-863.3" font-family="Times,serif" font-size="14.00">encrypted_password :string</text>
<text text-anchor="start" x="233.172" y="-849.3" font-family="Times,serif" font-size="14.00">reset_password_token :string</text>
<text text-anchor="start" x="233.172" y="-835.3" font-family="Times,serif" font-size="14.00">reset_password_sent_at :datetime</text>
<text text-anchor="start" x="233.172" y="-821.3" font-family="Times,serif" font-size="14.00">remember_created_at :datetime</text>
<text text-anchor="start" x="233.172" y="-807.3" font-family="Times,serif" font-size="14.00">sign_in_count :integer</text>
<text text-anchor="start" x="233.172" y="-793.3" font-family="Times,serif" font-size="14.00">current_sign_in_at :datetime</text>
<text text-anchor="start" x="233.172" y="-779.3" font-family="Times,serif" font-size="14.00">last_sign_in_at :datetime</text>
<text text-anchor="start" x="233.172" y="-765.3" font-family="Times,serif" font-size="14.00">current_sign_in_ip :inet</text>
<text text-anchor="start" x="233.172" y="-751.3" font-family="Times,serif" font-size="14.00">last_sign_in_ip :inet</text>
<text text-anchor="start" x="233.172" y="-737.3" font-family="Times,serif" font-size="14.00">created_at :datetime</text>
<text text-anchor="start" x="233.172" y="-723.3" font-family="Times,serif" font-size="14.00">updated_at :datetime</text>
</g>
<!-- Workout -->
<g id="node12" class="node"><title>Workout</title>
<path fill="none" stroke="black" d="M265.165,-565.5C265.165,-565.5 389.734,-565.5 389.734,-565.5 395.734,-565.5 401.734,-571.5 401.734,-577.5 401.734,-577.5 401.734,-667.5 401.734,-667.5 401.734,-673.5 395.734,-679.5 389.734,-679.5 389.734,-679.5 265.165,-679.5 265.165,-679.5 259.165,-679.5 253.165,-673.5 253.165,-667.5 253.165,-667.5 253.165,-577.5 253.165,-577.5 253.165,-571.5 259.165,-565.5 265.165,-565.5"/>
<text text-anchor="middle" x="327.45" y="-664.3" font-family="Times,serif" font-size="14.00">Workout</text>
<polyline fill="none" stroke="black" points="253.165,-657.5 401.734,-657.5 "/>
<text text-anchor="start" x="261.165" y="-642.3" font-family="Times,serif" font-size="14.00">id :integer</text>
<text text-anchor="start" x="261.165" y="-628.3" font-family="Times,serif" font-size="14.00">title :string</text>
<text text-anchor="start" x="261.165" y="-614.3" font-family="Times,serif" font-size="14.00">admin_id :integer</text>
<text text-anchor="start" x="261.165" y="-600.3" font-family="Times,serif" font-size="14.00">created_at :datetime</text>
<text text-anchor="start" x="261.165" y="-586.3" font-family="Times,serif" font-size="14.00">updated_at :datetime</text>
<text text-anchor="start" x="261.165" y="-572.3" font-family="Times,serif" font-size="14.00">workout_date :datetime</text>
</g>
<!-- Admin&#45;&gt;Workout -->
<g id="edge1" class="edge"><title>Admin&#45;&gt;Workout</title>
<path fill="none" stroke="#dbd4fd" d="M327.45,-708.119C327.45,-701.975 327.45,-695.907 327.45,-690.012"/>
<ellipse fill="none" stroke="#dbd4fd" cx="327.45" cy="-712.413" rx="4" ry="4"/>
<polygon fill="#dbd4fd" stroke="#dbd4fd" points="327.45,-689.609 331.95,-679.608 327.45,-684.609 327.45,-679.609 327.45,-679.609 327.45,-679.609 327.45,-684.609 322.95,-679.609 327.45,-689.609 327.45,-689.609"/>
</g>
<!-- AdminAbility -->
<g id="node3" class="node"><title>AdminAbility</title>
<polygon fill="none" stroke="black" points="448.17,-800.5 448.17,-844.5 542.729,-844.5 542.729,-800.5 448.17,-800.5"/>
<text text-anchor="middle" x="495.45" y="-829.3" font-family="Times,serif" font-size="14.00">AdminAbility</text>
<polyline fill="none" stroke="black" points="448.17,-822.5 542.729,-822.5 "/>
<text text-anchor="middle" x="495.45" y="-807.3" font-family="Times,serif" font-size="14.00"> </text>
</g>
<!-- Category -->
<g id="node4" class="node"><title>Category</title>
<path fill="none" stroke="black" d="M121.944,-428.5C121.944,-428.5 230.955,-428.5 230.955,-428.5 236.955,-428.5 242.955,-434.5 242.955,-440.5 242.955,-440.5 242.955,-516.5 242.955,-516.5 242.955,-522.5 236.955,-528.5 230.955,-528.5 230.955,-528.5 121.944,-528.5 121.944,-528.5 115.944,-528.5 109.944,-522.5 109.944,-516.5 109.944,-516.5 109.944,-440.5 109.944,-440.5 109.944,-434.5 115.944,-428.5 121.944,-428.5"/>
<text text-anchor="middle" x="176.45" y="-513.3" font-family="Times,serif" font-size="14.00">Category</text>
<polyline fill="none" stroke="black" points="109.944,-506.5 242.955,-506.5 "/>
<text text-anchor="start" x="117.944" y="-491.3" font-family="Times,serif" font-size="14.00">id :integer</text>
<text text-anchor="start" x="117.944" y="-477.3" font-family="Times,serif" font-size="14.00">name :string</text>
<text text-anchor="start" x="117.944" y="-463.3" font-family="Times,serif" font-size="14.00">style :integer</text>
<text text-anchor="start" x="117.944" y="-449.3" font-family="Times,serif" font-size="14.00">created_at :datetime</text>
<text text-anchor="start" x="117.944" y="-435.3" font-family="Times,serif" font-size="14.00">updated_at :datetime</text>
</g>
<!-- Lift -->
<g id="node6" class="node"><title>Lift</title>
<path fill="none" stroke="black" d="M121.944,-186.5C121.944,-186.5 230.955,-186.5 230.955,-186.5 236.955,-186.5 242.955,-192.5 242.955,-198.5 242.955,-198.5 242.955,-358.5 242.955,-358.5 242.955,-364.5 236.955,-370.5 230.955,-370.5 230.955,-370.5 121.944,-370.5 121.944,-370.5 115.944,-370.5 109.944,-364.5 109.944,-358.5 109.944,-358.5 109.944,-198.5 109.944,-198.5 109.944,-192.5 115.944,-186.5 121.944,-186.5"/>
<text text-anchor="middle" x="176.45" y="-355.3" font-family="Times,serif" font-size="14.00">Lift</text>
<polyline fill="none" stroke="black" points="109.944,-348.5 242.955,-348.5 "/>
<text text-anchor="start" x="117.944" y="-333.3" font-family="Times,serif" font-size="14.00">id :integer</text>
<text text-anchor="start" x="117.944" y="-319.3" font-family="Times,serif" font-size="14.00">description :string</text>
<text text-anchor="start" x="117.944" y="-305.3" font-family="Times,serif" font-size="14.00">rep_count :integer</text>
<text text-anchor="start" x="117.944" y="-291.3" font-family="Times,serif" font-size="14.00">created_at :datetime</text>
<text text-anchor="start" x="117.944" y="-277.3" font-family="Times,serif" font-size="14.00">updated_at :datetime</text>
<text text-anchor="start" x="117.944" y="-263.3" font-family="Times,serif" font-size="14.00">part_id :integer</text>
<text text-anchor="start" x="117.944" y="-249.3" font-family="Times,serif" font-size="14.00">style :integer</text>
<text text-anchor="start" x="117.944" y="-235.3" font-family="Times,serif" font-size="14.00">category_id :integer</text>
<text text-anchor="start" x="117.944" y="-221.3" font-family="Times,serif" font-size="14.00">timing :string</text>
<text text-anchor="start" x="117.944" y="-207.3" font-family="Times,serif" font-size="14.00">max :boolean</text>
<text text-anchor="start" x="117.944" y="-193.3" font-family="Times,serif" font-size="14.00">summary :text</text>
</g>
<!-- Category&#45;&gt;Lift -->
<g id="edge2" class="edge"><title>Category&#45;&gt;Lift</title>
<path fill="none" stroke="#a13df2" d="M176.45,-419.894C176.45,-407.574 176.45,-394.21 176.45,-380.791"/>
<ellipse fill="none" stroke="#a13df2" cx="176.45" cy="-424.302" rx="4" ry="4"/>
<polygon fill="#a13df2" stroke="#a13df2" points="176.45,-380.534 180.95,-370.534 176.45,-375.534 176.45,-370.534 176.45,-370.534 176.45,-370.534 176.45,-375.534 171.95,-370.534 176.45,-380.534 176.45,-380.534"/>
</g>
<!-- GuestAbility -->
<g id="node5" class="node"><title>GuestAbility</title>
<polygon fill="none" stroke="black" points="560.284,-800.5 560.284,-844.5 648.615,-844.5 648.615,-800.5 560.284,-800.5"/>
<text text-anchor="middle" x="604.45" y="-829.3" font-family="Times,serif" font-size="14.00">GuestAbility</text>
<polyline fill="none" stroke="black" points="560.284,-822.5 648.615,-822.5 "/>
<text text-anchor="middle" x="604.45" y="-807.3" font-family="Times,serif" font-size="14.00"> </text>
</g>
<!-- Score -->
<g id="node8" class="node"><title>Score</title>
<path fill="none" stroke="black" d="M272.944,-0.5C272.944,-0.5 381.955,-0.5 381.955,-0.5 387.955,-0.5 393.955,-6.5 393.955,-12.5 393.955,-12.5 393.955,-116.5 393.955,-116.5 393.955,-122.5 387.955,-128.5 381.955,-128.5 381.955,-128.5 272.944,-128.5 272.944,-128.5 266.944,-128.5 260.944,-122.5 260.944,-116.5 260.944,-116.5 260.944,-12.5 260.944,-12.5 260.944,-6.5 266.944,-0.5 272.944,-0.5"/>
<text text-anchor="middle" x="327.45" y="-113.3" font-family="Times,serif" font-size="14.00">Score</text>
<polyline fill="none" stroke="black" points="260.944,-106.5 393.955,-106.5 "/>
<text text-anchor="start" x="268.944" y="-91.3" font-family="Times,serif" font-size="14.00">id :integer</text>
<text text-anchor="start" x="268.944" y="-77.3" font-family="Times,serif" font-size="14.00">result :string</text>
<text text-anchor="start" x="268.944" y="-63.3" font-family="Times,serif" font-size="14.00">user_id :integer</text>
<text text-anchor="start" x="268.944" y="-49.3" font-family="Times,serif" font-size="14.00">lift_id :integer</text>
<text text-anchor="start" x="268.944" y="-35.3" font-family="Times,serif" font-size="14.00">wod_id :integer</text>
<text text-anchor="start" x="268.944" y="-21.3" font-family="Times,serif" font-size="14.00">created_at :datetime</text>
<text text-anchor="start" x="268.944" y="-7.3" font-family="Times,serif" font-size="14.00">updated_at :datetime</text>
</g>
<!-- Lift&#45;&gt;Score -->
<g id="edge3" class="edge"><title>Lift&#45;&gt;Score</title>
<path fill="none" stroke="#679d9f" d="M241.217,-179.525C244.649,-174.593 248.073,-169.728 251.45,-165 257.996,-155.833 265.006,-146.301 272.024,-136.926"/>
<ellipse fill="none" stroke="#679d9f" cx="238.814" cy="-182.996" rx="4.00002" ry="4.00002"/>
<polygon fill="#679d9f" stroke="#679d9f" points="272.17,-136.732 281.778,-131.447 275.176,-132.737 278.182,-128.741 278.182,-128.741 278.182,-128.741 275.176,-132.737 274.586,-126.036 272.17,-136.732 272.17,-136.732"/>
</g>
<!-- Part -->
<g id="node7" class="node"><title>Part</title>
<path fill="none" stroke="black" d="M272.944,-428.5C272.944,-428.5 381.955,-428.5 381.955,-428.5 387.955,-428.5 393.955,-434.5 393.955,-440.5 393.955,-440.5 393.955,-516.5 393.955,-516.5 393.955,-522.5 387.955,-528.5 381.955,-528.5 381.955,-528.5 272.944,-528.5 272.944,-528.5 266.944,-528.5 260.944,-522.5 260.944,-516.5 260.944,-516.5 260.944,-440.5 260.944,-440.5 260.944,-434.5 266.944,-428.5 272.944,-428.5"/>
<text text-anchor="middle" x="327.45" y="-513.3" font-family="Times,serif" font-size="14.00">Part</text>
<polyline fill="none" stroke="black" points="260.944,-506.5 393.955,-506.5 "/>
<text text-anchor="start" x="268.944" y="-491.3" font-family="Times,serif" font-size="14.00">id :integer</text>
<text text-anchor="start" x="268.944" y="-477.3" font-family="Times,serif" font-size="14.00">workout_id :integer</text>
<text text-anchor="start" x="268.944" y="-463.3" font-family="Times,serif" font-size="14.00">created_at :datetime</text>
<text text-anchor="start" x="268.944" y="-449.3" font-family="Times,serif" font-size="14.00">updated_at :datetime</text>
<text text-anchor="start" x="268.944" y="-435.3" font-family="Times,serif" font-size="14.00">style :integer</text>
</g>
<!-- Part&#45;&gt;Lift -->
<g id="edge4" class="edge"><title>Part&#45;&gt;Lift</title>
<path fill="none" stroke="#f3a1e9" d="M276.336,-422.23C267.786,-412.361 259.187,-402.025 251.45,-392 248.133,-387.703 244.804,-383.264 241.491,-378.744"/>
<ellipse fill="none" stroke="#f3a1e9" cx="279.014" cy="-425.296" rx="4.00002" ry="4.00002"/>
<polygon fill="#f3a1e9" stroke="#f3a1e9" points="241.413,-378.637 239.198,-367.897 238.482,-374.585 235.552,-370.534 235.552,-370.534 235.552,-370.534 238.482,-374.585 231.906,-373.172 241.413,-378.637 241.413,-378.637"/>
</g>
<!-- Wod -->
<g id="node11" class="node"><title>Wod</title>
<path fill="none" stroke="black" d="M272.944,-214.5C272.944,-214.5 381.955,-214.5 381.955,-214.5 387.955,-214.5 393.955,-220.5 393.955,-226.5 393.955,-226.5 393.955,-330.5 393.955,-330.5 393.955,-336.5 387.955,-342.5 381.955,-342.5 381.955,-342.5 272.944,-342.5 272.944,-342.5 266.944,-342.5 260.944,-336.5 260.944,-330.5 260.944,-330.5 260.944,-226.5 260.944,-226.5 260.944,-220.5 266.944,-214.5 272.944,-214.5"/>
<text text-anchor="middle" x="327.45" y="-327.3" font-family="Times,serif" font-size="14.00">Wod</text>
<polyline fill="none" stroke="black" points="260.944,-320.5 393.955,-320.5 "/>
<text text-anchor="start" x="268.944" y="-305.3" font-family="Times,serif" font-size="14.00">id :integer</text>
<text text-anchor="start" x="268.944" y="-291.3" font-family="Times,serif" font-size="14.00">description :text</text>
<text text-anchor="start" x="268.944" y="-277.3" font-family="Times,serif" font-size="14.00">result_label :string</text>
<text text-anchor="start" x="268.944" y="-263.3" font-family="Times,serif" font-size="14.00">created_at :datetime</text>
<text text-anchor="start" x="268.944" y="-249.3" font-family="Times,serif" font-size="14.00">updated_at :datetime</text>
<text text-anchor="start" x="268.944" y="-235.3" font-family="Times,serif" font-size="14.00">title :string</text>
<text text-anchor="start" x="268.944" y="-221.3" font-family="Times,serif" font-size="14.00">part_id :integer</text>
</g>
<!-- Part&#45;&gt;Wod -->
<g id="edge5" class="edge"><title>Part&#45;&gt;Wod</title>
<path fill="none" stroke="#379be8" d="M327.45,-420.236C327.45,-399.182 327.45,-375.044 327.45,-352.773"/>
<ellipse fill="none" stroke="#379be8" cx="327.45" cy="-424.302" rx="4" ry="4"/>
<polygon fill="#379be8" stroke="#379be8" points="327.45,-352.69 331.95,-342.69 327.45,-347.69 327.45,-342.69 327.45,-342.69 327.45,-342.69 327.45,-347.69 322.95,-342.69 327.45,-352.69 327.45,-352.69"/>
</g>
<!-- User -->
<g id="node9" class="node"><title>User</title>
<path fill="none" stroke="black" d="M424.172,-165.5C424.172,-165.5 604.728,-165.5 604.728,-165.5 610.728,-165.5 616.728,-171.5 616.728,-177.5 616.728,-177.5 616.728,-379.5 616.728,-379.5 616.728,-385.5 610.728,-391.5 604.728,-391.5 604.728,-391.5 424.172,-391.5 424.172,-391.5 418.172,-391.5 412.172,-385.5 412.172,-379.5 412.172,-379.5 412.172,-177.5 412.172,-177.5 412.172,-171.5 418.172,-165.5 424.172,-165.5"/>
<text text-anchor="middle" x="514.45" y="-376.3" font-family="Times,serif" font-size="14.00">User</text>
<polyline fill="none" stroke="black" points="412.172,-369.5 616.728,-369.5 "/>
<text text-anchor="start" x="420.172" y="-354.3" font-family="Times,serif" font-size="14.00">id :integer</text>
<text text-anchor="start" x="420.172" y="-340.3" font-family="Times,serif" font-size="14.00">email :string</text>
<text text-anchor="start" x="420.172" y="-326.3" font-family="Times,serif" font-size="14.00">encrypted_password :string</text>
<text text-anchor="start" x="420.172" y="-312.3" font-family="Times,serif" font-size="14.00">reset_password_token :string</text>
<text text-anchor="start" x="420.172" y="-298.3" font-family="Times,serif" font-size="14.00">reset_password_sent_at :datetime</text>
<text text-anchor="start" x="420.172" y="-284.3" font-family="Times,serif" font-size="14.00">remember_created_at :datetime</text>
<text text-anchor="start" x="420.172" y="-270.3" font-family="Times,serif" font-size="14.00">sign_in_count :integer</text>
<text text-anchor="start" x="420.172" y="-256.3" font-family="Times,serif" font-size="14.00">current_sign_in_at :datetime</text>
<text text-anchor="start" x="420.172" y="-242.3" font-family="Times,serif" font-size="14.00">last_sign_in_at :datetime</text>
<text text-anchor="start" x="420.172" y="-228.3" font-family="Times,serif" font-size="14.00">current_sign_in_ip :inet</text>
<text text-anchor="start" x="420.172" y="-214.3" font-family="Times,serif" font-size="14.00">last_sign_in_ip :inet</text>
<text text-anchor="start" x="420.172" y="-200.3" font-family="Times,serif" font-size="14.00">created_at :datetime</text>
<text text-anchor="start" x="420.172" y="-186.3" font-family="Times,serif" font-size="14.00">updated_at :datetime</text>
<text text-anchor="start" x="420.172" y="-172.3" font-family="Times,serif" font-size="14.00">username :string</text>
</g>
<!-- User&#45;&gt;Score -->
<g id="edge6" class="edge"><title>User&#45;&gt;Score</title>
<path fill="none" stroke="#99fcba" d="M410.009,-159.097C403.21,-151.389 396.489,-143.77 389.993,-136.405"/>
<ellipse fill="none" stroke="#99fcba" cx="412.828" cy="-162.292" rx="4.00002" ry="4.00002"/>
<polygon fill="#99fcba" stroke="#99fcba" points="389.655,-136.021 386.414,-125.545 386.347,-132.272 383.04,-128.522 383.04,-128.522 383.04,-128.522 386.347,-132.272 379.665,-131.499 389.655,-136.021 389.655,-136.021"/>
</g>
<!-- UserAbility -->
<g id="node10" class="node"><title>UserAbility</title>
<polygon fill="none" stroke="black" points="666.398,-800.5 666.398,-844.5 748.501,-844.5 748.501,-800.5 666.398,-800.5"/>
<text text-anchor="middle" x="707.45" y="-829.3" font-family="Times,serif" font-size="14.00">UserAbility</text>
<polyline fill="none" stroke="black" points="666.398,-822.5 748.501,-822.5 "/>
<text text-anchor="middle" x="707.45" y="-807.3" font-family="Times,serif" font-size="14.00"> </text>
</g>
<!-- Wod&#45;&gt;Score -->
<g id="edge7" class="edge"><title>Wod&#45;&gt;Score</title>
<path fill="none" stroke="#f8acf0" d="M327.45,-206.408C327.45,-184.682 327.45,-160.753 327.45,-138.878"/>
<ellipse fill="none" stroke="#f8acf0" cx="327.45" cy="-210.467" rx="4" ry="4"/>
<polygon fill="#f8acf0" stroke="#f8acf0" points="327.45,-138.656 331.95,-128.656 327.45,-133.656 327.45,-128.656 327.45,-128.656 327.45,-128.656 327.45,-133.656 322.95,-128.656 327.45,-138.656 327.45,-138.656"/>
</g>
<!-- Workout&#45;&gt;Part -->
<g id="edge8" class="edge"><title>Workout&#45;&gt;Part</title>
<path fill="none" stroke="#93901a" d="M327.45,-557.371C327.45,-551.222 327.45,-545.003 327.45,-538.902"/>
<ellipse fill="none" stroke="#93901a" cx="327.45" cy="-561.378" rx="4" ry="4"/>
<polygon fill="#93901a" stroke="#93901a" points="327.45,-538.779 331.95,-528.779 327.45,-533.779 327.45,-528.779 327.45,-528.779 327.45,-528.779 327.45,-533.779 322.95,-528.779 327.45,-538.779 327.45,-538.779"/>
</g>
</g>
</svg>
