<?xml version="1.0" encoding="UTF-8" standalone="no"?>
<!DOCTYPE svg PUBLIC "-//W3C//DTD SVG 1.1//EN"
 "http://www.w3.org/Graphics/SVG/1.1/DTD/svg11.dtd">
<!-- Generated by graphviz version 2.38.0 (20140413.2041)
 -->
<!-- Title: models_diagram Pages: 1 -->
<svg width="757pt" height="937pt"
 viewBox="0.00 0.00 756.74 937.00" xmlns="http://www.w3.org/2000/svg" xmlns:xlink="http://www.w3.org/1999/xlink">
<g id="graph0" class="graph" transform="scale(1 1) rotate(0) translate(4 933)">
<title>models_diagram</title>
<polygon fill="white" stroke="none" points="-4,4 -4,-933 752.74,-933 752.74,4 -4,4"/>
<!-- _diagram_info -->
<g id="node1" class="node"><title>_diagram_info</title>
<text text-anchor="start" x="8" y="-844.6" font-family="Times,serif" font-size="13.00">Models diagram</text>
<text text-anchor="start" x="8" y="-831.6" font-family="Times,serif" font-size="13.00">Date: Jan 16 2016 &#45; 09:38</text>
<text text-anchor="start" x="8" y="-818.6" font-family="Times,serif" font-size="13.00">Migration version: 20150726151329</text>
<text text-anchor="start" x="8" y="-805.6" font-family="Times,serif" font-size="13.00">Generated by RailRoady 1.3.0</text>
<text text-anchor="start" x="8" y="-792.6" font-family="Times,serif" font-size="13.00">http://railroady.prestonlee.com</text>
</g>
<!-- Admin -->
<g id="node2" class="node"><title>Admin</title>
<path fill="none" stroke="black" d="M237.41,-716.5C237.41,-716.5 417.966,-716.5 417.966,-716.5 423.966,-716.5 429.966,-722.5 429.966,-728.5 429.966,-728.5 429.966,-916.5 429.966,-916.5 429.966,-922.5 423.966,-928.5 417.966,-928.5 417.966,-928.5 237.41,-928.5 237.41,-928.5 231.41,-928.5 225.41,-922.5 225.41,-916.5 225.41,-916.5 225.41,-728.5 225.41,-728.5 225.41,-722.5 231.41,-716.5 237.41,-716.5"/>
<text text-anchor="middle" x="327.688" y="-913.3" font-family="Times,serif" font-size="14.00">Admin</text>
<polyline fill="none" stroke="black" points="225.41,-906.5 429.966,-906.5 "/>
<text text-anchor="start" x="233.41" y="-891.3" font-family="Times,serif" font-size="14.00">id :integer</text>
<text text-anchor="start" x="233.41" y="-877.3" font-family="Times,serif" font-size="14.00">email :string</text>
<text text-anchor="start" x="233.41" y="-863.3" font-family="Times,serif" font-size="14.00">encrypted_password :string</text>
<text text-anchor="start" x="233.41" y="-849.3" font-family="Times,serif" font-size="14.00">reset_password_token :string</text>
<text text-anchor="start" x="233.41" y="-835.3" font-family="Times,serif" font-size="14.00">reset_password_sent_at :datetime</text>
<text text-anchor="start" x="233.41" y="-821.3" font-family="Times,serif" font-size="14.00">remember_created_at :datetime</text>
<text text-anchor="start" x="233.41" y="-807.3" font-family="Times,serif" font-size="14.00">sign_in_count :integer</text>
<text text-anchor="start" x="233.41" y="-793.3" font-family="Times,serif" font-size="14.00">current_sign_in_at :datetime</text>
<text text-anchor="start" x="233.41" y="-779.3" font-family="Times,serif" font-size="14.00">last_sign_in_at :datetime</text>
<text text-anchor="start" x="233.41" y="-765.3" font-family="Times,serif" font-size="14.00">current_sign_in_ip :inet</text>
<text text-anchor="start" x="233.41" y="-751.3" font-family="Times,serif" font-size="14.00">last_sign_in_ip :inet</text>
<text text-anchor="start" x="233.41" y="-737.3" font-family="Times,serif" font-size="14.00">created_at :datetime</text>
<text text-anchor="start" x="233.41" y="-723.3" font-family="Times,serif" font-size="14.00">updated_at :datetime</text>
</g>
<!-- Workout -->
<g id="node12" class="node"><title>Workout</title>
<path fill="none" stroke="black" d="M265.403,-565.5C265.403,-565.5 389.972,-565.5 389.972,-565.5 395.972,-565.5 401.972,-571.5 401.972,-577.5 401.972,-577.5 401.972,-667.5 401.972,-667.5 401.972,-673.5 395.972,-679.5 389.972,-679.5 389.972,-679.5 265.403,-679.5 265.403,-679.5 259.403,-679.5 253.403,-673.5 253.403,-667.5 253.403,-667.5 253.403,-577.5 253.403,-577.5 253.403,-571.5 259.403,-565.5 265.403,-565.5"/>
<text text-anchor="middle" x="327.688" y="-664.3" font-family="Times,serif" font-size="14.00">Workout</text>
<polyline fill="none" stroke="black" points="253.403,-657.5 401.972,-657.5 "/>
<text text-anchor="start" x="261.403" y="-642.3" font-family="Times,serif" font-size="14.00">id :integer</text>
<text text-anchor="start" x="261.403" y="-628.3" font-family="Times,serif" font-size="14.00">title :string</text>
<text text-anchor="start" x="261.403" y="-614.3" font-family="Times,serif" font-size="14.00">admin_id :integer</text>
<text text-anchor="start" x="261.403" y="-600.3" font-family="Times,serif" font-size="14.00">created_at :datetime</text>
<text text-anchor="start" x="261.403" y="-586.3" font-family="Times,serif" font-size="14.00">updated_at :datetime</text>
<text text-anchor="start" x="261.403" y="-572.3" font-family="Times,serif" font-size="14.00">workout_date :datetime</text>
</g>
<!-- Admin&#45;&gt;Workout -->
<g id="edge1" class="edge"><title>Admin&#45;&gt;Workout</title>
<path fill="none" stroke="#535e9f" d="M327.688,-708.119C327.688,-701.975 327.688,-695.907 327.688,-690.012"/>
<ellipse fill="none" stroke="#535e9f" cx="327.688" cy="-712.413" rx="4" ry="4"/>
<polygon fill="#535e9f" stroke="#535e9f" points="327.688,-689.609 332.188,-679.608 327.688,-684.609 327.688,-679.609 327.688,-679.609 327.688,-679.609 327.688,-684.609 323.188,-679.609 327.688,-689.609 327.688,-689.609"/>
</g>
<!-- AdminAbility -->
<g id="node3" class="node"><title>AdminAbility</title>
<polygon fill="none" stroke="black" points="448.408,-800.5 448.408,-844.5 542.967,-844.5 542.967,-800.5 448.408,-800.5"/>
<text text-anchor="middle" x="495.688" y="-829.3" font-family="Times,serif" font-size="14.00">AdminAbility</text>
<polyline fill="none" stroke="black" points="448.408,-822.5 542.967,-822.5 "/>
<text text-anchor="middle" x="495.688" y="-807.3" font-family="Times,serif" font-size="14.00"> </text>
</g>
<!-- Category -->
<g id="node4" class="node"><title>Category</title>
<path fill="none" stroke="black" d="M122.182,-428.5C122.182,-428.5 231.193,-428.5 231.193,-428.5 237.193,-428.5 243.193,-434.5 243.193,-440.5 243.193,-440.5 243.193,-516.5 243.193,-516.5 243.193,-522.5 237.193,-528.5 231.193,-528.5 231.193,-528.5 122.182,-528.5 122.182,-528.5 116.182,-528.5 110.182,-522.5 110.182,-516.5 110.182,-516.5 110.182,-440.5 110.182,-440.5 110.182,-434.5 116.182,-428.5 122.182,-428.5"/>
<text text-anchor="middle" x="176.688" y="-513.3" font-family="Times,serif" font-size="14.00">Category</text>
<polyline fill="none" stroke="black" points="110.182,-506.5 243.193,-506.5 "/>
<text text-anchor="start" x="118.182" y="-491.3" font-family="Times,serif" font-size="14.00">id :integer</text>
<text text-anchor="start" x="118.182" y="-477.3" font-family="Times,serif" font-size="14.00">name :string</text>
<text text-anchor="start" x="118.182" y="-463.3" font-family="Times,serif" font-size="14.00">style :integer</text>
<text text-anchor="start" x="118.182" y="-449.3" font-family="Times,serif" font-size="14.00">created_at :datetime</text>
<text text-anchor="start" x="118.182" y="-435.3" font-family="Times,serif" font-size="14.00">updated_at :datetime</text>
</g>
<!-- Lift -->
<g id="node6" class="node"><title>Lift</title>
<path fill="none" stroke="black" d="M122.182,-193.5C122.182,-193.5 231.193,-193.5 231.193,-193.5 237.193,-193.5 243.193,-199.5 243.193,-205.5 243.193,-205.5 243.193,-351.5 243.193,-351.5 243.193,-357.5 237.193,-363.5 231.193,-363.5 231.193,-363.5 122.182,-363.5 122.182,-363.5 116.182,-363.5 110.182,-357.5 110.182,-351.5 110.182,-351.5 110.182,-205.5 110.182,-205.5 110.182,-199.5 116.182,-193.5 122.182,-193.5"/>
<text text-anchor="middle" x="176.688" y="-348.3" font-family="Times,serif" font-size="14.00">Lift</text>
<polyline fill="none" stroke="black" points="110.182,-341.5 243.193,-341.5 "/>
<text text-anchor="start" x="118.182" y="-326.3" font-family="Times,serif" font-size="14.00">id :integer</text>
<text text-anchor="start" x="118.182" y="-312.3" font-family="Times,serif" font-size="14.00">description :string</text>
<text text-anchor="start" x="118.182" y="-298.3" font-family="Times,serif" font-size="14.00">rep_count :integer</text>
<text text-anchor="start" x="118.182" y="-284.3" font-family="Times,serif" font-size="14.00">created_at :datetime</text>
<text text-anchor="start" x="118.182" y="-270.3" font-family="Times,serif" font-size="14.00">updated_at :datetime</text>
<text text-anchor="start" x="118.182" y="-256.3" font-family="Times,serif" font-size="14.00">part_id :integer</text>
<text text-anchor="start" x="118.182" y="-242.3" font-family="Times,serif" font-size="14.00">style :integer</text>
<text text-anchor="start" x="118.182" y="-228.3" font-family="Times,serif" font-size="14.00">category_id :integer</text>
<text text-anchor="start" x="118.182" y="-214.3" font-family="Times,serif" font-size="14.00">timing :string</text>
<text text-anchor="start" x="118.182" y="-200.3" font-family="Times,serif" font-size="14.00">max :boolean</text>
</g>
<!-- Category&#45;&gt;Lift -->
<g id="edge2" class="edge"><title>Category&#45;&gt;Lift</title>
<path fill="none" stroke="#cfa97e" d="M176.688,-419.843C176.688,-405.403 176.688,-389.532 176.688,-373.819"/>
<ellipse fill="none" stroke="#cfa97e" cx="176.688" cy="-424.302" rx="4" ry="4"/>
<polygon fill="#cfa97e" stroke="#cfa97e" points="176.688,-373.532 181.188,-363.532 176.688,-368.532 176.688,-363.532 176.688,-363.532 176.688,-363.532 176.688,-368.532 172.188,-363.532 176.688,-373.532 176.688,-373.532"/>
</g>
<!-- GuestAbility -->
<g id="node5" class="node"><title>GuestAbility</title>
<polygon fill="none" stroke="black" points="560.522,-800.5 560.522,-844.5 648.853,-844.5 648.853,-800.5 560.522,-800.5"/>
<text text-anchor="middle" x="604.688" y="-829.3" font-family="Times,serif" font-size="14.00">GuestAbility</text>
<polyline fill="none" stroke="black" points="560.522,-822.5 648.853,-822.5 "/>
<text text-anchor="middle" x="604.688" y="-807.3" font-family="Times,serif" font-size="14.00"> </text>
</g>
<!-- Score -->
<g id="node8" class="node"><title>Score</title>
<path fill="none" stroke="black" d="M273.182,-0.5C273.182,-0.5 382.193,-0.5 382.193,-0.5 388.193,-0.5 394.193,-6.5 394.193,-12.5 394.193,-12.5 394.193,-116.5 394.193,-116.5 394.193,-122.5 388.193,-128.5 382.193,-128.5 382.193,-128.5 273.182,-128.5 273.182,-128.5 267.182,-128.5 261.182,-122.5 261.182,-116.5 261.182,-116.5 261.182,-12.5 261.182,-12.5 261.182,-6.5 267.182,-0.5 273.182,-0.5"/>
<text text-anchor="middle" x="327.688" y="-113.3" font-family="Times,serif" font-size="14.00">Score</text>
<polyline fill="none" stroke="black" points="261.182,-106.5 394.193,-106.5 "/>
<text text-anchor="start" x="269.182" y="-91.3" font-family="Times,serif" font-size="14.00">id :integer</text>
<text text-anchor="start" x="269.182" y="-77.3" font-family="Times,serif" font-size="14.00">result :string</text>
<text text-anchor="start" x="269.182" y="-63.3" font-family="Times,serif" font-size="14.00">user_id :integer</text>
<text text-anchor="start" x="269.182" y="-49.3" font-family="Times,serif" font-size="14.00">lift_id :integer</text>
<text text-anchor="start" x="269.182" y="-35.3" font-family="Times,serif" font-size="14.00">wod_id :integer</text>
<text text-anchor="start" x="269.182" y="-21.3" font-family="Times,serif" font-size="14.00">created_at :datetime</text>
<text text-anchor="start" x="269.182" y="-7.3" font-family="Times,serif" font-size="14.00">updated_at :datetime</text>
</g>
<!-- Lift&#45;&gt;Score -->
<g id="edge3" class="edge"><title>Lift&#45;&gt;Score</title>
<path fill="none" stroke="#9ee22b" d="M236.622,-186.507C241.661,-179.191 246.727,-171.947 251.688,-165 258.234,-155.833 265.244,-146.301 272.262,-136.926"/>
<ellipse fill="none" stroke="#9ee22b" cx="234.267" cy="-189.94" rx="4.00002" ry="4.00002"/>
<polygon fill="#9ee22b" stroke="#9ee22b" points="272.408,-136.732 282.016,-131.447 275.414,-132.737 278.42,-128.741 278.42,-128.741 278.42,-128.741 275.414,-132.737 274.824,-126.036 272.408,-136.732 272.408,-136.732"/>
</g>
<!-- Part -->
<g id="node7" class="node"><title>Part</title>
<path fill="none" stroke="black" d="M273.182,-428.5C273.182,-428.5 382.193,-428.5 382.193,-428.5 388.193,-428.5 394.193,-434.5 394.193,-440.5 394.193,-440.5 394.193,-516.5 394.193,-516.5 394.193,-522.5 388.193,-528.5 382.193,-528.5 382.193,-528.5 273.182,-528.5 273.182,-528.5 267.182,-528.5 261.182,-522.5 261.182,-516.5 261.182,-516.5 261.182,-440.5 261.182,-440.5 261.182,-434.5 267.182,-428.5 273.182,-428.5"/>
<text text-anchor="middle" x="327.688" y="-513.3" font-family="Times,serif" font-size="14.00">Part</text>
<polyline fill="none" stroke="black" points="261.182,-506.5 394.193,-506.5 "/>
<text text-anchor="start" x="269.182" y="-491.3" font-family="Times,serif" font-size="14.00">id :integer</text>
<text text-anchor="start" x="269.182" y="-477.3" font-family="Times,serif" font-size="14.00">workout_id :integer</text>
<text text-anchor="start" x="269.182" y="-463.3" font-family="Times,serif" font-size="14.00">created_at :datetime</text>
<text text-anchor="start" x="269.182" y="-449.3" font-family="Times,serif" font-size="14.00">updated_at :datetime</text>
<text text-anchor="start" x="269.182" y="-435.3" font-family="Times,serif" font-size="14.00">style :integer</text>
</g>
<!-- Part&#45;&gt;Lift -->
<g id="edge4" class="edge"><title>Part&#45;&gt;Lift</title>
<path fill="none" stroke="#11ef1d" d="M276.574,-422.23C268.024,-412.361 259.425,-402.025 251.688,-392 246.797,-385.663 241.878,-379.018 237.026,-372.26"/>
<ellipse fill="none" stroke="#11ef1d" cx="279.252" cy="-425.296" rx="4.00002" ry="4.00002"/>
<polygon fill="#11ef1d" stroke="#11ef1d" points="236.707,-371.81 234.592,-361.05 233.814,-367.732 230.922,-363.653 230.922,-363.653 230.922,-363.653 233.814,-367.732 227.251,-366.256 236.707,-371.81 236.707,-371.81"/>
</g>
<!-- Wod -->
<g id="node11" class="node"><title>Wod</title>
<path fill="none" stroke="black" d="M273.182,-214.5C273.182,-214.5 382.193,-214.5 382.193,-214.5 388.193,-214.5 394.193,-220.5 394.193,-226.5 394.193,-226.5 394.193,-330.5 394.193,-330.5 394.193,-336.5 388.193,-342.5 382.193,-342.5 382.193,-342.5 273.182,-342.5 273.182,-342.5 267.182,-342.5 261.182,-336.5 261.182,-330.5 261.182,-330.5 261.182,-226.5 261.182,-226.5 261.182,-220.5 267.182,-214.5 273.182,-214.5"/>
<text text-anchor="middle" x="327.688" y="-327.3" font-family="Times,serif" font-size="14.00">Wod</text>
<polyline fill="none" stroke="black" points="261.182,-320.5 394.193,-320.5 "/>
<text text-anchor="start" x="269.182" y="-305.3" font-family="Times,serif" font-size="14.00">id :integer</text>
<text text-anchor="start" x="269.182" y="-291.3" font-family="Times,serif" font-size="14.00">description :text</text>
<text text-anchor="start" x="269.182" y="-277.3" font-family="Times,serif" font-size="14.00">result_label :string</text>
<text text-anchor="start" x="269.182" y="-263.3" font-family="Times,serif" font-size="14.00">created_at :datetime</text>
<text text-anchor="start" x="269.182" y="-249.3" font-family="Times,serif" font-size="14.00">updated_at :datetime</text>
<text text-anchor="start" x="269.182" y="-235.3" font-family="Times,serif" font-size="14.00">title :string</text>
<text text-anchor="start" x="269.182" y="-221.3" font-family="Times,serif" font-size="14.00">part_id :integer</text>
</g>
<!-- Part&#45;&gt;Wod -->
<g id="edge5" class="edge"><title>Part&#45;&gt;Wod</title>
<path fill="none" stroke="#7501ad" d="M327.688,-420.236C327.688,-399.182 327.688,-375.044 327.688,-352.773"/>
<ellipse fill="none" stroke="#7501ad" cx="327.688" cy="-424.302" rx="4" ry="4"/>
<polygon fill="#7501ad" stroke="#7501ad" points="327.688,-352.69 332.188,-342.69 327.688,-347.69 327.688,-342.69 327.688,-342.69 327.688,-342.69 327.688,-347.69 323.188,-342.69 327.688,-352.69 327.688,-352.69"/>
</g>
<!-- User -->
<g id="node9" class="node"><title>User</title>
<path fill="none" stroke="black" d="M424.41,-165.5C424.41,-165.5 604.966,-165.5 604.966,-165.5 610.966,-165.5 616.966,-171.5 616.966,-177.5 616.966,-177.5 616.966,-379.5 616.966,-379.5 616.966,-385.5 610.966,-391.5 604.966,-391.5 604.966,-391.5 424.41,-391.5 424.41,-391.5 418.41,-391.5 412.41,-385.5 412.41,-379.5 412.41,-379.5 412.41,-177.5 412.41,-177.5 412.41,-171.5 418.41,-165.5 424.41,-165.5"/>
<text text-anchor="middle" x="514.688" y="-376.3" font-family="Times,serif" font-size="14.00">User</text>
<polyline fill="none" stroke="black" points="412.41,-369.5 616.966,-369.5 "/>
<text text-anchor="start" x="420.41" y="-354.3" font-family="Times,serif" font-size="14.00">id :integer</text>
<text text-anchor="start" x="420.41" y="-340.3" font-family="Times,serif" font-size="14.00">email :string</text>
<text text-anchor="start" x="420.41" y="-326.3" font-family="Times,serif" font-size="14.00">encrypted_password :string</text>
<text text-anchor="start" x="420.41" y="-312.3" font-family="Times,serif" font-size="14.00">reset_password_token :string</text>
<text text-anchor="start" x="420.41" y="-298.3" font-family="Times,serif" font-size="14.00">reset_password_sent_at :datetime</text>
<text text-anchor="start" x="420.41" y="-284.3" font-family="Times,serif" font-size="14.00">remember_created_at :datetime</text>
<text text-anchor="start" x="420.41" y="-270.3" font-family="Times,serif" font-size="14.00">sign_in_count :integer</text>
<text text-anchor="start" x="420.41" y="-256.3" font-family="Times,serif" font-size="14.00">current_sign_in_at :datetime</text>
<text text-anchor="start" x="420.41" y="-242.3" font-family="Times,serif" font-size="14.00">last_sign_in_at :datetime</text>
<text text-anchor="start" x="420.41" y="-228.3" font-family="Times,serif" font-size="14.00">current_sign_in_ip :inet</text>
<text text-anchor="start" x="420.41" y="-214.3" font-family="Times,serif" font-size="14.00">last_sign_in_ip :inet</text>
<text text-anchor="start" x="420.41" y="-200.3" font-family="Times,serif" font-size="14.00">created_at :datetime</text>
<text text-anchor="start" x="420.41" y="-186.3" font-family="Times,serif" font-size="14.00">updated_at :datetime</text>
<text text-anchor="start" x="420.41" y="-172.3" font-family="Times,serif" font-size="14.00">username :string</text>
</g>
<!-- User&#45;&gt;Score -->
<g id="edge6" class="edge"><title>User&#45;&gt;Score</title>
<path fill="none" stroke="#33f2bb" d="M410.247,-159.097C403.448,-151.389 396.727,-143.77 390.231,-136.405"/>
<ellipse fill="none" stroke="#33f2bb" cx="413.066" cy="-162.292" rx="4.00002" ry="4.00002"/>
<polygon fill="#33f2bb" stroke="#33f2bb" points="389.893,-136.021 386.652,-125.545 386.585,-132.272 383.278,-128.522 383.278,-128.522 383.278,-128.522 386.585,-132.272 379.903,-131.499 389.893,-136.021 389.893,-136.021"/>
</g>
<!-- UserAbility -->
<g id="node10" class="node"><title>UserAbility</title>
<polygon fill="none" stroke="black" points="666.636,-800.5 666.636,-844.5 748.74,-844.5 748.74,-800.5 666.636,-800.5"/>
<text text-anchor="middle" x="707.688" y="-829.3" font-family="Times,serif" font-size="14.00">UserAbility</text>
<polyline fill="none" stroke="black" points="666.636,-822.5 748.74,-822.5 "/>
<text text-anchor="middle" x="707.688" y="-807.3" font-family="Times,serif" font-size="14.00"> </text>
</g>
<!-- Wod&#45;&gt;Score -->
<g id="edge7" class="edge"><title>Wod&#45;&gt;Score</title>
<path fill="none" stroke="#00b2ae" d="M327.688,-206.408C327.688,-184.682 327.688,-160.753 327.688,-138.878"/>
<ellipse fill="none" stroke="#00b2ae" cx="327.688" cy="-210.467" rx="4" ry="4"/>
<polygon fill="#00b2ae" stroke="#00b2ae" points="327.688,-138.656 332.188,-128.656 327.688,-133.656 327.688,-128.656 327.688,-128.656 327.688,-128.656 327.688,-133.656 323.188,-128.656 327.688,-138.656 327.688,-138.656"/>
</g>
<!-- Workout&#45;&gt;Part -->
<g id="edge8" class="edge"><title>Workout&#45;&gt;Part</title>
<path fill="none" stroke="#7768a6" d="M327.688,-557.371C327.688,-551.222 327.688,-545.003 327.688,-538.902"/>
<ellipse fill="none" stroke="#7768a6" cx="327.688" cy="-561.378" rx="4" ry="4"/>
<polygon fill="#7768a6" stroke="#7768a6" points="327.688,-538.779 332.188,-528.779 327.688,-533.779 327.688,-528.779 327.688,-528.779 327.688,-528.779 327.688,-533.779 323.188,-528.779 327.688,-538.779 327.688,-538.779"/>
</g>
</g>
</svg>
