<?xml version="1.0" encoding="UTF-8" standalone="no"?>
<!DOCTYPE svg PUBLIC "-//W3C//DTD SVG 1.1//EN"
 "http://www.w3.org/Graphics/SVG/1.1/DTD/svg11.dtd">
<!-- Generated by graphviz version 2.38.0 (20140413.2041)
 -->
<!-- Title: models_diagram Pages: 1 -->
<svg width="757pt" height="923pt"
 viewBox="0.00 0.00 756.74 923.00" xmlns="http://www.w3.org/2000/svg" xmlns:xlink="http://www.w3.org/1999/xlink">
<g id="graph0" class="graph" transform="scale(1 1) rotate(0) translate(4 919)">
<title>models_diagram</title>
<polygon fill="white" stroke="none" points="-4,4 -4,-919 752.74,-919 752.74,4 -4,4"/>
<!-- _diagram_info -->
<g id="node1" class="node"><title>_diagram_info</title>
<text text-anchor="start" x="8" y="-830.6" font-family="Times,serif" font-size="13.00">Models diagram</text>
<text text-anchor="start" x="8" y="-817.6" font-family="Times,serif" font-size="13.00">Date: Jul 15 2015 &#45; 17:11</text>
<text text-anchor="start" x="8" y="-804.6" font-family="Times,serif" font-size="13.00">Migration version: 20150715145744</text>
<text text-anchor="start" x="8" y="-791.6" font-family="Times,serif" font-size="13.00">Generated by RailRoady 1.3.0</text>
<text text-anchor="start" x="8" y="-778.6" font-family="Times,serif" font-size="13.00">http://railroady.prestonlee.com</text>
</g>
<!-- Admin -->
<g id="node2" class="node"><title>Admin</title>
<path fill="none" stroke="black" d="M237.41,-702.5C237.41,-702.5 417.966,-702.5 417.966,-702.5 423.966,-702.5 429.966,-708.5 429.966,-714.5 429.966,-714.5 429.966,-902.5 429.966,-902.5 429.966,-908.5 423.966,-914.5 417.966,-914.5 417.966,-914.5 237.41,-914.5 237.41,-914.5 231.41,-914.5 225.41,-908.5 225.41,-902.5 225.41,-902.5 225.41,-714.5 225.41,-714.5 225.41,-708.5 231.41,-702.5 237.41,-702.5"/>
<text text-anchor="middle" x="327.688" y="-899.3" font-family="Times,serif" font-size="14.00">Admin</text>
<polyline fill="none" stroke="black" points="225.41,-892.5 429.966,-892.5 "/>
<text text-anchor="start" x="233.41" y="-877.3" font-family="Times,serif" font-size="14.00">id :integer</text>
<text text-anchor="start" x="233.41" y="-863.3" font-family="Times,serif" font-size="14.00">email :string</text>
<text text-anchor="start" x="233.41" y="-849.3" font-family="Times,serif" font-size="14.00">encrypted_password :string</text>
<text text-anchor="start" x="233.41" y="-835.3" font-family="Times,serif" font-size="14.00">reset_password_token :string</text>
<text text-anchor="start" x="233.41" y="-821.3" font-family="Times,serif" font-size="14.00">reset_password_sent_at :datetime</text>
<text text-anchor="start" x="233.41" y="-807.3" font-family="Times,serif" font-size="14.00">remember_created_at :datetime</text>
<text text-anchor="start" x="233.41" y="-793.3" font-family="Times,serif" font-size="14.00">sign_in_count :integer</text>
<text text-anchor="start" x="233.41" y="-779.3" font-family="Times,serif" font-size="14.00">current_sign_in_at :datetime</text>
<text text-anchor="start" x="233.41" y="-765.3" font-family="Times,serif" font-size="14.00">last_sign_in_at :datetime</text>
<text text-anchor="start" x="233.41" y="-751.3" font-family="Times,serif" font-size="14.00">current_sign_in_ip :inet</text>
<text text-anchor="start" x="233.41" y="-737.3" font-family="Times,serif" font-size="14.00">last_sign_in_ip :inet</text>
<text text-anchor="start" x="233.41" y="-723.3" font-family="Times,serif" font-size="14.00">created_at :datetime</text>
<text text-anchor="start" x="233.41" y="-709.3" font-family="Times,serif" font-size="14.00">updated_at :datetime</text>
</g>
<!-- Workout -->
<g id="node12" class="node"><title>Workout</title>
<path fill="none" stroke="black" d="M265.403,-551.5C265.403,-551.5 389.972,-551.5 389.972,-551.5 395.972,-551.5 401.972,-557.5 401.972,-563.5 401.972,-563.5 401.972,-653.5 401.972,-653.5 401.972,-659.5 395.972,-665.5 389.972,-665.5 389.972,-665.5 265.403,-665.5 265.403,-665.5 259.403,-665.5 253.403,-659.5 253.403,-653.5 253.403,-653.5 253.403,-563.5 253.403,-563.5 253.403,-557.5 259.403,-551.5 265.403,-551.5"/>
<text text-anchor="middle" x="327.688" y="-650.3" font-family="Times,serif" font-size="14.00">Workout</text>
<polyline fill="none" stroke="black" points="253.403,-643.5 401.972,-643.5 "/>
<text text-anchor="start" x="261.403" y="-628.3" font-family="Times,serif" font-size="14.00">id :integer</text>
<text text-anchor="start" x="261.403" y="-614.3" font-family="Times,serif" font-size="14.00">title :string</text>
<text text-anchor="start" x="261.403" y="-600.3" font-family="Times,serif" font-size="14.00">admin_id :integer</text>
<text text-anchor="start" x="261.403" y="-586.3" font-family="Times,serif" font-size="14.00">created_at :datetime</text>
<text text-anchor="start" x="261.403" y="-572.3" font-family="Times,serif" font-size="14.00">updated_at :datetime</text>
<text text-anchor="start" x="261.403" y="-558.3" font-family="Times,serif" font-size="14.00">workout_date :datetime</text>
</g>
<!-- Admin&#45;&gt;Workout -->
<g id="edge1" class="edge"><title>Admin&#45;&gt;Workout</title>
<path fill="none" stroke="#743eca" d="M327.688,-694.119C327.688,-687.975 327.688,-681.907 327.688,-676.012"/>
<ellipse fill="none" stroke="#743eca" cx="327.688" cy="-698.413" rx="4" ry="4"/>
<polygon fill="#743eca" stroke="#743eca" points="327.688,-675.609 332.188,-665.608 327.688,-670.609 327.688,-665.609 327.688,-665.609 327.688,-665.609 327.688,-670.609 323.188,-665.609 327.688,-675.609 327.688,-675.609"/>
</g>
<!-- AdminAbility -->
<g id="node3" class="node"><title>AdminAbility</title>
<polygon fill="none" stroke="black" points="448.408,-786.5 448.408,-830.5 542.967,-830.5 542.967,-786.5 448.408,-786.5"/>
<text text-anchor="middle" x="495.688" y="-815.3" font-family="Times,serif" font-size="14.00">AdminAbility</text>
<polyline fill="none" stroke="black" points="448.408,-808.5 542.967,-808.5 "/>
<text text-anchor="middle" x="495.688" y="-793.3" font-family="Times,serif" font-size="14.00"> </text>
</g>
<!-- Category -->
<g id="node4" class="node"><title>Category</title>
<path fill="none" stroke="black" d="M122.182,-414.5C122.182,-414.5 231.193,-414.5 231.193,-414.5 237.193,-414.5 243.193,-420.5 243.193,-426.5 243.193,-426.5 243.193,-502.5 243.193,-502.5 243.193,-508.5 237.193,-514.5 231.193,-514.5 231.193,-514.5 122.182,-514.5 122.182,-514.5 116.182,-514.5 110.182,-508.5 110.182,-502.5 110.182,-502.5 110.182,-426.5 110.182,-426.5 110.182,-420.5 116.182,-414.5 122.182,-414.5"/>
<text text-anchor="middle" x="176.688" y="-499.3" font-family="Times,serif" font-size="14.00">Category</text>
<polyline fill="none" stroke="black" points="110.182,-492.5 243.193,-492.5 "/>
<text text-anchor="start" x="118.182" y="-477.3" font-family="Times,serif" font-size="14.00">id :integer</text>
<text text-anchor="start" x="118.182" y="-463.3" font-family="Times,serif" font-size="14.00">name :string</text>
<text text-anchor="start" x="118.182" y="-449.3" font-family="Times,serif" font-size="14.00">style :integer</text>
<text text-anchor="start" x="118.182" y="-435.3" font-family="Times,serif" font-size="14.00">created_at :datetime</text>
<text text-anchor="start" x="118.182" y="-421.3" font-family="Times,serif" font-size="14.00">updated_at :datetime</text>
</g>
<!-- Lift -->
<g id="node6" class="node"><title>Lift</title>
<path fill="none" stroke="black" d="M122.182,-200.5C122.182,-200.5 231.193,-200.5 231.193,-200.5 237.193,-200.5 243.193,-206.5 243.193,-212.5 243.193,-212.5 243.193,-330.5 243.193,-330.5 243.193,-336.5 237.193,-342.5 231.193,-342.5 231.193,-342.5 122.182,-342.5 122.182,-342.5 116.182,-342.5 110.182,-336.5 110.182,-330.5 110.182,-330.5 110.182,-212.5 110.182,-212.5 110.182,-206.5 116.182,-200.5 122.182,-200.5"/>
<text text-anchor="middle" x="176.688" y="-327.3" font-family="Times,serif" font-size="14.00">Lift</text>
<polyline fill="none" stroke="black" points="110.182,-320.5 243.193,-320.5 "/>
<text text-anchor="start" x="118.182" y="-305.3" font-family="Times,serif" font-size="14.00">id :integer</text>
<text text-anchor="start" x="118.182" y="-291.3" font-family="Times,serif" font-size="14.00">description :string</text>
<text text-anchor="start" x="118.182" y="-277.3" font-family="Times,serif" font-size="14.00">rep_count :integer</text>
<text text-anchor="start" x="118.182" y="-263.3" font-family="Times,serif" font-size="14.00">created_at :datetime</text>
<text text-anchor="start" x="118.182" y="-249.3" font-family="Times,serif" font-size="14.00">updated_at :datetime</text>
<text text-anchor="start" x="118.182" y="-235.3" font-family="Times,serif" font-size="14.00">part_id :integer</text>
<text text-anchor="start" x="118.182" y="-221.3" font-family="Times,serif" font-size="14.00">style :integer</text>
<text text-anchor="start" x="118.182" y="-207.3" font-family="Times,serif" font-size="14.00">category_id :integer</text>
</g>
<!-- Category&#45;&gt;Lift -->
<g id="edge2" class="edge"><title>Category&#45;&gt;Lift</title>
<path fill="none" stroke="#6f0d5c" d="M176.688,-406.228C176.688,-389.467 176.688,-370.825 176.688,-352.911"/>
<ellipse fill="none" stroke="#6f0d5c" cx="176.688" cy="-410.313" rx="4" ry="4"/>
<polygon fill="#6f0d5c" stroke="#6f0d5c" points="176.688,-352.759 181.188,-342.759 176.688,-347.759 176.688,-342.759 176.688,-342.759 176.688,-342.759 176.688,-347.759 172.188,-342.759 176.688,-352.759 176.688,-352.759"/>
</g>
<!-- GuestAbility -->
<g id="node5" class="node"><title>GuestAbility</title>
<polygon fill="none" stroke="black" points="560.522,-786.5 560.522,-830.5 648.853,-830.5 648.853,-786.5 560.522,-786.5"/>
<text text-anchor="middle" x="604.688" y="-815.3" font-family="Times,serif" font-size="14.00">GuestAbility</text>
<polyline fill="none" stroke="black" points="560.522,-808.5 648.853,-808.5 "/>
<text text-anchor="middle" x="604.688" y="-793.3" font-family="Times,serif" font-size="14.00"> </text>
</g>
<!-- Score -->
<g id="node8" class="node"><title>Score</title>
<path fill="none" stroke="black" d="M273.182,-0.5C273.182,-0.5 382.193,-0.5 382.193,-0.5 388.193,-0.5 394.193,-6.5 394.193,-12.5 394.193,-12.5 394.193,-116.5 394.193,-116.5 394.193,-122.5 388.193,-128.5 382.193,-128.5 382.193,-128.5 273.182,-128.5 273.182,-128.5 267.182,-128.5 261.182,-122.5 261.182,-116.5 261.182,-116.5 261.182,-12.5 261.182,-12.5 261.182,-6.5 267.182,-0.5 273.182,-0.5"/>
<text text-anchor="middle" x="327.688" y="-113.3" font-family="Times,serif" font-size="14.00">Score</text>
<polyline fill="none" stroke="black" points="261.182,-106.5 394.193,-106.5 "/>
<text text-anchor="start" x="269.182" y="-91.3" font-family="Times,serif" font-size="14.00">id :integer</text>
<text text-anchor="start" x="269.182" y="-77.3" font-family="Times,serif" font-size="14.00">result :string</text>
<text text-anchor="start" x="269.182" y="-63.3" font-family="Times,serif" font-size="14.00">user_id :integer</text>
<text text-anchor="start" x="269.182" y="-49.3" font-family="Times,serif" font-size="14.00">lift_id :integer</text>
<text text-anchor="start" x="269.182" y="-35.3" font-family="Times,serif" font-size="14.00">wod_id :integer</text>
<text text-anchor="start" x="269.182" y="-21.3" font-family="Times,serif" font-size="14.00">created_at :datetime</text>
<text text-anchor="start" x="269.182" y="-7.3" font-family="Times,serif" font-size="14.00">updated_at :datetime</text>
</g>
<!-- Lift&#45;&gt;Score -->
<g id="edge3" class="edge"><title>Lift&#45;&gt;Score</title>
<path fill="none" stroke="#2738a4" d="M230.786,-193.748C237.769,-184.035 244.863,-174.26 251.688,-165 258.421,-155.865 265.568,-146.318 272.681,-136.906"/>
<ellipse fill="none" stroke="#2738a4" cx="228.306" cy="-197.206" rx="4.00002" ry="4.00002"/>
<polygon fill="#2738a4" stroke="#2738a4" points="272.872,-136.654 282.498,-131.402 275.892,-132.669 278.912,-128.684 278.912,-128.684 278.912,-128.684 275.892,-132.669 275.325,-125.966 272.872,-136.654 272.872,-136.654"/>
</g>
<!-- Part -->
<g id="node7" class="node"><title>Part</title>
<path fill="none" stroke="black" d="M273.182,-414.5C273.182,-414.5 382.193,-414.5 382.193,-414.5 388.193,-414.5 394.193,-420.5 394.193,-426.5 394.193,-426.5 394.193,-502.5 394.193,-502.5 394.193,-508.5 388.193,-514.5 382.193,-514.5 382.193,-514.5 273.182,-514.5 273.182,-514.5 267.182,-514.5 261.182,-508.5 261.182,-502.5 261.182,-502.5 261.182,-426.5 261.182,-426.5 261.182,-420.5 267.182,-414.5 273.182,-414.5"/>
<text text-anchor="middle" x="327.688" y="-499.3" font-family="Times,serif" font-size="14.00">Part</text>
<polyline fill="none" stroke="black" points="261.182,-492.5 394.193,-492.5 "/>
<text text-anchor="start" x="269.182" y="-477.3" font-family="Times,serif" font-size="14.00">id :integer</text>
<text text-anchor="start" x="269.182" y="-463.3" font-family="Times,serif" font-size="14.00">workout_id :integer</text>
<text text-anchor="start" x="269.182" y="-449.3" font-family="Times,serif" font-size="14.00">created_at :datetime</text>
<text text-anchor="start" x="269.182" y="-435.3" font-family="Times,serif" font-size="14.00">updated_at :datetime</text>
<text text-anchor="start" x="269.182" y="-421.3" font-family="Times,serif" font-size="14.00">style :integer</text>
</g>
<!-- Part&#45;&gt;Lift -->
<g id="edge4" class="edge"><title>Part&#45;&gt;Lift</title>
<path fill="none" stroke="#434832" d="M276.827,-408.032C268.248,-398.185 259.575,-387.908 251.688,-378 244.76,-369.297 237.707,-360.015 230.836,-350.704"/>
<ellipse fill="none" stroke="#434832" cx="279.511" cy="-411.093" rx="4.00002" ry="4.00002"/>
<polygon fill="#434832" stroke="#434832" points="230.759,-350.597 228.485,-339.87 227.806,-346.562 224.853,-342.527 224.853,-342.527 224.853,-342.527 227.806,-346.562 221.222,-345.184 230.759,-350.597 230.759,-350.597"/>
</g>
<!-- Wod -->
<g id="node11" class="node"><title>Wod</title>
<path fill="none" stroke="black" d="M273.182,-207.5C273.182,-207.5 382.193,-207.5 382.193,-207.5 388.193,-207.5 394.193,-213.5 394.193,-219.5 394.193,-219.5 394.193,-323.5 394.193,-323.5 394.193,-329.5 388.193,-335.5 382.193,-335.5 382.193,-335.5 273.182,-335.5 273.182,-335.5 267.182,-335.5 261.182,-329.5 261.182,-323.5 261.182,-323.5 261.182,-219.5 261.182,-219.5 261.182,-213.5 267.182,-207.5 273.182,-207.5"/>
<text text-anchor="middle" x="327.688" y="-320.3" font-family="Times,serif" font-size="14.00">Wod</text>
<polyline fill="none" stroke="black" points="261.182,-313.5 394.193,-313.5 "/>
<text text-anchor="start" x="269.182" y="-298.3" font-family="Times,serif" font-size="14.00">id :integer</text>
<text text-anchor="start" x="269.182" y="-284.3" font-family="Times,serif" font-size="14.00">description :text</text>
<text text-anchor="start" x="269.182" y="-270.3" font-family="Times,serif" font-size="14.00">result_label :string</text>
<text text-anchor="start" x="269.182" y="-256.3" font-family="Times,serif" font-size="14.00">created_at :datetime</text>
<text text-anchor="start" x="269.182" y="-242.3" font-family="Times,serif" font-size="14.00">updated_at :datetime</text>
<text text-anchor="start" x="269.182" y="-228.3" font-family="Times,serif" font-size="14.00">title :string</text>
<text text-anchor="start" x="269.182" y="-214.3" font-family="Times,serif" font-size="14.00">part_id :integer</text>
</g>
<!-- Part&#45;&gt;Wod -->
<g id="edge5" class="edge"><title>Part&#45;&gt;Wod</title>
<path fill="none" stroke="#7b77ae" d="M327.688,-406.269C327.688,-387.217 327.688,-365.729 327.688,-345.641"/>
<ellipse fill="none" stroke="#7b77ae" cx="327.688" cy="-410.313" rx="4" ry="4"/>
<polygon fill="#7b77ae" stroke="#7b77ae" points="327.688,-345.597 332.188,-335.597 327.688,-340.597 327.688,-335.597 327.688,-335.597 327.688,-335.597 327.688,-340.597 323.188,-335.597 327.688,-345.597 327.688,-345.597"/>
</g>
<!-- User -->
<g id="node9" class="node"><title>User</title>
<path fill="none" stroke="black" d="M424.41,-165.5C424.41,-165.5 604.966,-165.5 604.966,-165.5 610.966,-165.5 616.966,-171.5 616.966,-177.5 616.966,-177.5 616.966,-365.5 616.966,-365.5 616.966,-371.5 610.966,-377.5 604.966,-377.5 604.966,-377.5 424.41,-377.5 424.41,-377.5 418.41,-377.5 412.41,-371.5 412.41,-365.5 412.41,-365.5 412.41,-177.5 412.41,-177.5 412.41,-171.5 418.41,-165.5 424.41,-165.5"/>
<text text-anchor="middle" x="514.688" y="-362.3" font-family="Times,serif" font-size="14.00">User</text>
<polyline fill="none" stroke="black" points="412.41,-355.5 616.966,-355.5 "/>
<text text-anchor="start" x="420.41" y="-340.3" font-family="Times,serif" font-size="14.00">id :integer</text>
<text text-anchor="start" x="420.41" y="-326.3" font-family="Times,serif" font-size="14.00">email :string</text>
<text text-anchor="start" x="420.41" y="-312.3" font-family="Times,serif" font-size="14.00">encrypted_password :string</text>
<text text-anchor="start" x="420.41" y="-298.3" font-family="Times,serif" font-size="14.00">reset_password_token :string</text>
<text text-anchor="start" x="420.41" y="-284.3" font-family="Times,serif" font-size="14.00">reset_password_sent_at :datetime</text>
<text text-anchor="start" x="420.41" y="-270.3" font-family="Times,serif" font-size="14.00">remember_created_at :datetime</text>
<text text-anchor="start" x="420.41" y="-256.3" font-family="Times,serif" font-size="14.00">sign_in_count :integer</text>
<text text-anchor="start" x="420.41" y="-242.3" font-family="Times,serif" font-size="14.00">current_sign_in_at :datetime</text>
<text text-anchor="start" x="420.41" y="-228.3" font-family="Times,serif" font-size="14.00">last_sign_in_at :datetime</text>
<text text-anchor="start" x="420.41" y="-214.3" font-family="Times,serif" font-size="14.00">current_sign_in_ip :inet</text>
<text text-anchor="start" x="420.41" y="-200.3" font-family="Times,serif" font-size="14.00">last_sign_in_ip :inet</text>
<text text-anchor="start" x="420.41" y="-186.3" font-family="Times,serif" font-size="14.00">created_at :datetime</text>
<text text-anchor="start" x="420.41" y="-172.3" font-family="Times,serif" font-size="14.00">updated_at :datetime</text>
</g>
<!-- User&#45;&gt;Score -->
<g id="edge6" class="edge"><title>User&#45;&gt;Score</title>
<path fill="none" stroke="#0dfb48" d="M413.124,-159.16C406.005,-151.356 398.949,-143.621 392.123,-136.137"/>
<ellipse fill="none" stroke="#0dfb48" cx="416.027" cy="-162.342" rx="4.00002" ry="4.00002"/>
<polygon fill="#0dfb48" stroke="#0dfb48" points="392.118,-136.133 388.704,-125.712 388.749,-132.439 385.379,-128.745 385.379,-128.745 385.379,-128.745 388.749,-132.439 382.054,-131.777 392.118,-136.133 392.118,-136.133"/>
</g>
<!-- UserAbility -->
<g id="node10" class="node"><title>UserAbility</title>
<polygon fill="none" stroke="black" points="666.636,-786.5 666.636,-830.5 748.74,-830.5 748.74,-786.5 666.636,-786.5"/>
<text text-anchor="middle" x="707.688" y="-815.3" font-family="Times,serif" font-size="14.00">UserAbility</text>
<polyline fill="none" stroke="black" points="666.636,-808.5 748.74,-808.5 "/>
<text text-anchor="middle" x="707.688" y="-793.3" font-family="Times,serif" font-size="14.00"> </text>
</g>
<!-- Wod&#45;&gt;Score -->
<g id="edge7" class="edge"><title>Wod&#45;&gt;Score</title>
<path fill="none" stroke="#0e52d8" d="M327.688,-199.316C327.688,-179.791 327.688,-158.589 327.688,-138.94"/>
<ellipse fill="none" stroke="#0e52d8" cx="327.688" cy="-203.321" rx="4" ry="4"/>
<polygon fill="#0e52d8" stroke="#0e52d8" points="327.688,-138.824 332.188,-128.824 327.688,-133.824 327.688,-128.824 327.688,-128.824 327.688,-128.824 327.688,-133.824 323.188,-128.824 327.688,-138.824 327.688,-138.824"/>
</g>
<!-- Workout&#45;&gt;Part -->
<g id="edge8" class="edge"><title>Workout&#45;&gt;Part</title>
<path fill="none" stroke="#db0f85" d="M327.688,-543.371C327.688,-537.222 327.688,-531.003 327.688,-524.902"/>
<ellipse fill="none" stroke="#db0f85" cx="327.688" cy="-547.378" rx="4" ry="4"/>
<polygon fill="#db0f85" stroke="#db0f85" points="327.688,-524.779 332.188,-514.779 327.688,-519.779 327.688,-514.779 327.688,-514.779 327.688,-514.779 327.688,-519.779 323.188,-514.779 327.688,-524.779 327.688,-524.779"/>
</g>
</g>
</svg>
