<?xml version="1.0" encoding="UTF-8" standalone="no"?>
<!DOCTYPE svg PUBLIC "-//W3C//DTD SVG 1.1//EN"
 "http://www.w3.org/Graphics/SVG/1.1/DTD/svg11.dtd">
<!-- Generated by graphviz version 2.38.0 (20140413.2041)
 -->
<!-- Title: models_diagram Pages: 1 -->
<svg width="621pt" height="369pt"
 viewBox="0.00 0.00 620.74 369.00" xmlns="http://www.w3.org/2000/svg" xmlns:xlink="http://www.w3.org/1999/xlink">
<g id="graph0" class="graph" transform="scale(1 1) rotate(0) translate(4 365)">
<title>models_diagram</title>
<polygon fill="white" stroke="none" points="-4,4 -4,-365 616.74,-365 616.74,4 -4,4"/>
<!-- _diagram_info -->
<g id="node1" class="node"><title>_diagram_info</title>
<text text-anchor="start" x="8" y="-346.6" font-family="Times,serif" font-size="13.00">Models diagram</text>
<text text-anchor="start" x="8" y="-333.6" font-family="Times,serif" font-size="13.00">Date: Dec 13 2016 &#45; 12:33</text>
<text text-anchor="start" x="8" y="-320.6" font-family="Times,serif" font-size="13.00">Migration version: 20161213173234</text>
<text text-anchor="start" x="8" y="-307.6" font-family="Times,serif" font-size="13.00">Generated by RailRoady 1.3.0</text>
<text text-anchor="start" x="8" y="-294.6" font-family="Times,serif" font-size="13.00">http://railroady.prestonlee.com</text>
</g>
<!-- Admin -->
<g id="node2" class="node"><title>Admin</title>
<ellipse fill="none" stroke="black" cx="259.688" cy="-324.5" rx="34.8458" ry="18"/>
<text text-anchor="middle" x="259.688" y="-320.3" font-family="Times,serif" font-size="14.00">Admin</text>
</g>
<!-- Workout -->
<g id="node12" class="node"><title>Workout</title>
<ellipse fill="none" stroke="black" cx="259.688" cy="-234" rx="40.6781" ry="18"/>
<text text-anchor="middle" x="259.688" y="-229.8" font-family="Times,serif" font-size="14.00">Workout</text>
</g>
<!-- Admin&#45;&gt;Workout -->
<g id="edge1" class="edge"><title>Admin&#45;&gt;Workout</title>
<path fill="none" stroke="#e9af44" d="M259.688,-298.189C259.688,-286.971 259.688,-273.752 259.688,-262.311"/>
<ellipse fill="none" stroke="#e9af44" cx="259.688" cy="-302.436" rx="4" ry="4"/>
<polygon fill="#e9af44" stroke="#e9af44" points="259.688,-262.011 264.188,-252.011 259.688,-257.011 259.688,-252.011 259.688,-252.011 259.688,-252.011 259.688,-257.011 255.188,-252.011 259.688,-262.011 259.688,-262.011"/>
</g>
<!-- AdminAbility -->
<g id="node3" class="node"><title>AdminAbility</title>
<polygon fill="none" stroke="black" points="406.747,-342.5 312.628,-342.5 312.628,-306.5 406.747,-306.5 406.747,-342.5"/>
<text text-anchor="middle" x="359.688" y="-320.3" font-family="Times,serif" font-size="14.00">AdminAbility</text>
</g>
<!-- Category -->
<g id="node4" class="node"><title>Category</title>
<ellipse fill="none" stroke="black" cx="171.688" cy="-162" rx="42.5456" ry="18"/>
<text text-anchor="middle" x="171.688" y="-157.8" font-family="Times,serif" font-size="14.00">Category</text>
</g>
<!-- Lift -->
<g id="node6" class="node"><title>Lift</title>
<ellipse fill="none" stroke="black" cx="187.688" cy="-90" rx="27" ry="18"/>
<text text-anchor="middle" x="187.688" y="-85.8" font-family="Times,serif" font-size="14.00">Lift</text>
</g>
<!-- Category&#45;&gt;Lift -->
<g id="edge2" class="edge"><title>Category&#45;&gt;Lift</title>
<path fill="none" stroke="#bb0502" d="M177.405,-135.987C178.716,-130.249 180.117,-124.121 181.449,-118.293"/>
<ellipse fill="none" stroke="#bb0502" cx="176.452" cy="-140.156" rx="4.00001" ry="4.00001"/>
<polygon fill="#bb0502" stroke="#bb0502" points="181.511,-118.024 188.126,-109.278 182.625,-113.15 183.739,-108.275 183.739,-108.275 183.739,-108.275 182.625,-113.15 179.352,-107.273 181.511,-118.024 181.511,-118.024"/>
</g>
<!-- GuestAbility -->
<g id="node5" class="node"><title>GuestAbility</title>
<polygon fill="none" stroke="black" points="513.019,-342.5 424.356,-342.5 424.356,-306.5 513.019,-306.5 513.019,-342.5"/>
<text text-anchor="middle" x="468.688" y="-320.3" font-family="Times,serif" font-size="14.00">GuestAbility</text>
</g>
<!-- Score -->
<g id="node8" class="node"><title>Score</title>
<ellipse fill="none" stroke="black" cx="259.688" cy="-18" rx="30.4862" ry="18"/>
<text text-anchor="middle" x="259.688" y="-13.8" font-family="Times,serif" font-size="14.00">Score</text>
</g>
<!-- Lift&#45;&gt;Score -->
<g id="edge3" class="edge"><title>Lift&#45;&gt;Score</title>
<path fill="none" stroke="#fe7309" d="M208.062,-69.1918C217.151,-60.3547 227.89,-49.9144 237.213,-40.8507"/>
<ellipse fill="none" stroke="#fe7309" cx="205.126" cy="-72.0461" rx="4.00002" ry="4.00002"/>
<polygon fill="#fe7309" stroke="#fe7309" points="237.474,-40.5972 247.78,-36.8528 241.059,-37.1118 244.644,-33.6263 244.644,-33.6263 244.644,-33.6263 241.059,-37.1118 241.507,-30.3999 237.474,-40.5972 237.474,-40.5972"/>
</g>
<!-- Part -->
<g id="node7" class="node"><title>Part</title>
<ellipse fill="none" stroke="black" cx="259.688" cy="-162" rx="27" ry="18"/>
<text text-anchor="middle" x="259.688" y="-157.8" font-family="Times,serif" font-size="14.00">Part</text>
</g>
<!-- Part&#45;&gt;Lift -->
<g id="edge4" class="edge"><title>Part&#45;&gt;Lift</title>
<path fill="none" stroke="#9445c0" d="M239.273,-141.152C230.026,-132.163 219.08,-121.52 209.655,-112.357"/>
<ellipse fill="none" stroke="#9445c0" cx="242.249" cy="-144.046" rx="4.00002" ry="4.00002"/>
<polygon fill="#9445c0" stroke="#9445c0" points="209.653,-112.356 205.62,-102.158 206.068,-108.87 202.483,-105.385 202.483,-105.385 202.483,-105.385 206.068,-108.87 199.347,-108.611 209.653,-112.356 209.653,-112.356"/>
</g>
<!-- Wod -->
<g id="node11" class="node"><title>Wod</title>
<ellipse fill="none" stroke="black" cx="259.688" cy="-90" rx="27" ry="18"/>
<text text-anchor="middle" x="259.688" y="-85.8" font-family="Times,serif" font-size="14.00">Wod</text>
</g>
<!-- Part&#45;&gt;Wod -->
<g id="edge5" class="edge"><title>Part&#45;&gt;Wod</title>
<path fill="none" stroke="#e0b00f" d="M259.688,-135.64C259.688,-130.063 259.688,-124.132 259.688,-118.476"/>
<ellipse fill="none" stroke="#e0b00f" cx="259.688" cy="-139.697" rx="4" ry="4"/>
<polygon fill="#e0b00f" stroke="#e0b00f" points="259.688,-118.104 264.188,-108.104 259.688,-113.104 259.688,-108.104 259.688,-108.104 259.688,-108.104 259.688,-113.104 255.188,-108.104 259.688,-118.104 259.688,-118.104"/>
</g>
<!-- User -->
<g id="node9" class="node"><title>User</title>
<ellipse fill="none" stroke="black" cx="331.688" cy="-90" rx="27" ry="18"/>
<text text-anchor="middle" x="331.688" y="-85.8" font-family="Times,serif" font-size="14.00">User</text>
</g>
<!-- User&#45;&gt;Score -->
<g id="edge6" class="edge"><title>User&#45;&gt;Score</title>
<path fill="none" stroke="#f51092" d="M311.314,-69.1918C302.224,-60.3547 291.485,-49.9144 282.163,-40.8507"/>
<ellipse fill="none" stroke="#f51092" cx="314.249" cy="-72.0461" rx="4.00002" ry="4.00002"/>
<polygon fill="#f51092" stroke="#f51092" points="281.902,-40.5972 277.869,-30.3999 278.317,-37.1118 274.732,-33.6263 274.732,-33.6263 274.732,-33.6263 278.317,-37.1118 271.595,-36.8528 281.902,-40.5972 281.902,-40.5972"/>
</g>
<!-- UserAbility -->
<g id="node10" class="node"><title>UserAbility</title>
<polygon fill="none" stroke="black" points="612.791,-342.5 530.584,-342.5 530.584,-306.5 612.791,-306.5 612.791,-342.5"/>
<text text-anchor="middle" x="571.688" y="-320.3" font-family="Times,serif" font-size="14.00">UserAbility</text>
</g>
<!-- Wod&#45;&gt;Score -->
<g id="edge7" class="edge"><title>Wod&#45;&gt;Score</title>
<path fill="none" stroke="#9ef8ab" d="M259.688,-63.6398C259.688,-58.0629 259.688,-52.1319 259.688,-46.4761"/>
<ellipse fill="none" stroke="#9ef8ab" cx="259.688" cy="-67.6966" rx="4" ry="4"/>
<polygon fill="#9ef8ab" stroke="#9ef8ab" points="259.688,-46.1043 264.188,-36.1043 259.688,-41.1043 259.688,-36.1043 259.688,-36.1043 259.688,-36.1043 259.688,-41.1043 255.188,-36.1044 259.688,-46.1043 259.688,-46.1043"/>
</g>
<!-- Workout&#45;&gt;Part -->
<g id="edge8" class="edge"><title>Workout&#45;&gt;Part</title>
<path fill="none" stroke="#ee7e67" d="M259.688,-207.64C259.688,-202.063 259.688,-196.132 259.688,-190.476"/>
<ellipse fill="none" stroke="#ee7e67" cx="259.688" cy="-211.697" rx="4" ry="4"/>
<polygon fill="#ee7e67" stroke="#ee7e67" points="259.688,-190.104 264.188,-180.104 259.688,-185.104 259.688,-180.104 259.688,-180.104 259.688,-180.104 259.688,-185.104 255.188,-180.104 259.688,-190.104 259.688,-190.104"/>
</g>
</g>
</svg>
