<?xml version="1.0" encoding="UTF-8" standalone="no"?>
<!DOCTYPE svg PUBLIC "-//W3C//DTD SVG 1.1//EN"
 "http://www.w3.org/Graphics/SVG/1.1/DTD/svg11.dtd">
<!-- Generated by graphviz version 2.38.0 (20140413.2041)
 -->
<!-- Title: models_diagram Pages: 1 -->
<svg width="621pt" height="369pt"
 viewBox="0.00 0.00 620.50 369.00" xmlns="http://www.w3.org/2000/svg" xmlns:xlink="http://www.w3.org/1999/xlink">
<g id="graph0" class="graph" transform="scale(1 1) rotate(0) translate(4 365)">
<title>models_diagram</title>
<polygon fill="white" stroke="none" points="-4,4 -4,-365 616.501,-365 616.501,4 -4,4"/>
<!-- _diagram_info -->
<g id="node1" class="node"><title>_diagram_info</title>
<text text-anchor="start" x="8" y="-346.6" font-family="Times,serif" font-size="13.00">Models diagram</text>
<text text-anchor="start" x="8" y="-333.6" font-family="Times,serif" font-size="13.00">Date: Feb 02 2016 &#45; 08:49</text>
<text text-anchor="start" x="8" y="-320.6" font-family="Times,serif" font-size="13.00">Migration version: 20160201142341</text>
<text text-anchor="start" x="8" y="-307.6" font-family="Times,serif" font-size="13.00">Generated by RailRoady 1.3.0</text>
<text text-anchor="start" x="8" y="-294.6" font-family="Times,serif" font-size="13.00">http://railroady.prestonlee.com</text>
</g>
<!-- Admin -->
<g id="node2" class="node"><title>Admin</title>
<ellipse fill="none" stroke="black" cx="259.45" cy="-324.5" rx="34.8458" ry="18"/>
<text text-anchor="middle" x="259.45" y="-320.3" font-family="Times,serif" font-size="14.00">Admin</text>
</g>
<!-- Workout -->
<g id="node12" class="node"><title>Workout</title>
<ellipse fill="none" stroke="black" cx="259.45" cy="-234" rx="40.6781" ry="18"/>
<text text-anchor="middle" x="259.45" y="-229.8" font-family="Times,serif" font-size="14.00">Workout</text>
</g>
<!-- Admin&#45;&gt;Workout -->
<g id="edge1" class="edge"><title>Admin&#45;&gt;Workout</title>
<path fill="none" stroke="#4a39d3" d="M259.45,-298.189C259.45,-286.971 259.45,-273.752 259.45,-262.311"/>
<ellipse fill="none" stroke="#4a39d3" cx="259.45" cy="-302.436" rx="4" ry="4"/>
<polygon fill="#4a39d3" stroke="#4a39d3" points="259.45,-262.011 263.95,-252.011 259.45,-257.011 259.45,-252.011 259.45,-252.011 259.45,-252.011 259.45,-257.011 254.95,-252.011 259.45,-262.011 259.45,-262.011"/>
</g>
<!-- AdminAbility -->
<g id="node3" class="node"><title>AdminAbility</title>
<polygon fill="none" stroke="black" points="406.509,-342.5 312.39,-342.5 312.39,-306.5 406.509,-306.5 406.509,-342.5"/>
<text text-anchor="middle" x="359.45" y="-320.3" font-family="Times,serif" font-size="14.00">AdminAbility</text>
</g>
<!-- Category -->
<g id="node4" class="node"><title>Category</title>
<ellipse fill="none" stroke="black" cx="171.45" cy="-162" rx="42.5456" ry="18"/>
<text text-anchor="middle" x="171.45" y="-157.8" font-family="Times,serif" font-size="14.00">Category</text>
</g>
<!-- Lift -->
<g id="node6" class="node"><title>Lift</title>
<ellipse fill="none" stroke="black" cx="187.45" cy="-90" rx="27" ry="18"/>
<text text-anchor="middle" x="187.45" y="-85.8" font-family="Times,serif" font-size="14.00">Lift</text>
</g>
<!-- Category&#45;&gt;Lift -->
<g id="edge2" class="edge"><title>Category&#45;&gt;Lift</title>
<path fill="none" stroke="#09f1db" d="M177.167,-135.987C178.478,-130.249 179.879,-124.121 181.211,-118.293"/>
<ellipse fill="none" stroke="#09f1db" cx="176.214" cy="-140.156" rx="4.00001" ry="4.00001"/>
<polygon fill="#09f1db" stroke="#09f1db" points="181.273,-118.024 187.888,-109.278 182.387,-113.15 183.501,-108.275 183.501,-108.275 183.501,-108.275 182.387,-113.15 179.114,-107.273 181.273,-118.024 181.273,-118.024"/>
</g>
<!-- GuestAbility -->
<g id="node5" class="node"><title>GuestAbility</title>
<polygon fill="none" stroke="black" points="512.781,-342.5 424.118,-342.5 424.118,-306.5 512.781,-306.5 512.781,-342.5"/>
<text text-anchor="middle" x="468.45" y="-320.3" font-family="Times,serif" font-size="14.00">GuestAbility</text>
</g>
<!-- Score -->
<g id="node8" class="node"><title>Score</title>
<ellipse fill="none" stroke="black" cx="259.45" cy="-18" rx="30.4862" ry="18"/>
<text text-anchor="middle" x="259.45" y="-13.8" font-family="Times,serif" font-size="14.00">Score</text>
</g>
<!-- Lift&#45;&gt;Score -->
<g id="edge3" class="edge"><title>Lift&#45;&gt;Score</title>
<path fill="none" stroke="#7a933e" d="M207.824,-69.1918C216.913,-60.3547 227.652,-49.9144 236.975,-40.8507"/>
<ellipse fill="none" stroke="#7a933e" cx="204.888" cy="-72.0461" rx="4.00002" ry="4.00002"/>
<polygon fill="#7a933e" stroke="#7a933e" points="237.235,-40.5972 247.542,-36.8528 240.82,-37.1118 244.405,-33.6263 244.405,-33.6263 244.405,-33.6263 240.82,-37.1118 241.269,-30.3999 237.235,-40.5972 237.235,-40.5972"/>
</g>
<!-- Part -->
<g id="node7" class="node"><title>Part</title>
<ellipse fill="none" stroke="black" cx="259.45" cy="-162" rx="27" ry="18"/>
<text text-anchor="middle" x="259.45" y="-157.8" font-family="Times,serif" font-size="14.00">Part</text>
</g>
<!-- Part&#45;&gt;Lift -->
<g id="edge4" class="edge"><title>Part&#45;&gt;Lift</title>
<path fill="none" stroke="#fc1896" d="M239.035,-141.152C229.788,-132.163 218.842,-121.52 209.416,-112.357"/>
<ellipse fill="none" stroke="#fc1896" cx="242.011" cy="-144.046" rx="4.00002" ry="4.00002"/>
<polygon fill="#fc1896" stroke="#fc1896" points="209.415,-112.356 205.382,-102.158 205.83,-108.87 202.245,-105.385 202.245,-105.385 202.245,-105.385 205.83,-108.87 199.109,-108.611 209.415,-112.356 209.415,-112.356"/>
</g>
<!-- Wod -->
<g id="node11" class="node"><title>Wod</title>
<ellipse fill="none" stroke="black" cx="259.45" cy="-90" rx="27" ry="18"/>
<text text-anchor="middle" x="259.45" y="-85.8" font-family="Times,serif" font-size="14.00">Wod</text>
</g>
<!-- Part&#45;&gt;Wod -->
<g id="edge5" class="edge"><title>Part&#45;&gt;Wod</title>
<path fill="none" stroke="#1b7bcc" d="M259.45,-135.64C259.45,-130.063 259.45,-124.132 259.45,-118.476"/>
<ellipse fill="none" stroke="#1b7bcc" cx="259.45" cy="-139.697" rx="4" ry="4"/>
<polygon fill="#1b7bcc" stroke="#1b7bcc" points="259.45,-118.104 263.95,-108.104 259.45,-113.104 259.45,-108.104 259.45,-108.104 259.45,-108.104 259.45,-113.104 254.95,-108.104 259.45,-118.104 259.45,-118.104"/>
</g>
<!-- User -->
<g id="node9" class="node"><title>User</title>
<ellipse fill="none" stroke="black" cx="331.45" cy="-90" rx="27" ry="18"/>
<text text-anchor="middle" x="331.45" y="-85.8" font-family="Times,serif" font-size="14.00">User</text>
</g>
<!-- User&#45;&gt;Score -->
<g id="edge6" class="edge"><title>User&#45;&gt;Score</title>
<path fill="none" stroke="#e3308f" d="M311.076,-69.1918C301.986,-60.3547 291.247,-49.9144 281.925,-40.8507"/>
<ellipse fill="none" stroke="#e3308f" cx="314.011" cy="-72.0461" rx="4.00002" ry="4.00002"/>
<polygon fill="#e3308f" stroke="#e3308f" points="281.664,-40.5972 277.631,-30.3999 278.079,-37.1118 274.494,-33.6263 274.494,-33.6263 274.494,-33.6263 278.079,-37.1118 271.357,-36.8528 281.664,-40.5972 281.664,-40.5972"/>
</g>
<!-- UserAbility -->
<g id="node10" class="node"><title>UserAbility</title>
<polygon fill="none" stroke="black" points="612.553,-342.5 530.346,-342.5 530.346,-306.5 612.553,-306.5 612.553,-342.5"/>
<text text-anchor="middle" x="571.45" y="-320.3" font-family="Times,serif" font-size="14.00">UserAbility</text>
</g>
<!-- Wod&#45;&gt;Score -->
<g id="edge7" class="edge"><title>Wod&#45;&gt;Score</title>
<path fill="none" stroke="#54dca3" d="M259.45,-63.6398C259.45,-58.0629 259.45,-52.1319 259.45,-46.4761"/>
<ellipse fill="none" stroke="#54dca3" cx="259.45" cy="-67.6966" rx="4" ry="4"/>
<polygon fill="#54dca3" stroke="#54dca3" points="259.45,-46.1043 263.95,-36.1043 259.45,-41.1043 259.45,-36.1043 259.45,-36.1043 259.45,-36.1043 259.45,-41.1043 254.95,-36.1044 259.45,-46.1043 259.45,-46.1043"/>
</g>
<!-- Workout&#45;&gt;Part -->
<g id="edge8" class="edge"><title>Workout&#45;&gt;Part</title>
<path fill="none" stroke="#a595da" d="M259.45,-207.64C259.45,-202.063 259.45,-196.132 259.45,-190.476"/>
<ellipse fill="none" stroke="#a595da" cx="259.45" cy="-211.697" rx="4" ry="4"/>
<polygon fill="#a595da" stroke="#a595da" points="259.45,-190.104 263.95,-180.104 259.45,-185.104 259.45,-180.104 259.45,-180.104 259.45,-180.104 259.45,-185.104 254.95,-180.104 259.45,-190.104 259.45,-190.104"/>
</g>
</g>
</svg>
